<svg width="128" height="241" viewBox="0 0 128 241" fill="none" xmlns="http://www.w3.org/2000/svg">
<g filter="url(#filter0_d)">
<path d="M33.6734 125.192C49.5093 125.192 62.3468 112.354 62.3468 96.5182C62.3468 80.6824 49.5093 67.8448 33.6734 67.8448C17.8375 67.8448 5 80.6824 5 96.5182C5 112.354 17.8375 125.192 33.6734 125.192Z" fill="#EE3D48"/>
<path d="M122.292 2.52328L119.783 1.08961L119.694 1H119.604H119.515H119.335C119.335 1 119.335 1 119.246 1H119.156L118.529 1.17922C87.4363 9.69163 56.8812 14.1718 29.9999 14.1718C29.3727 14.1718 28.7455 14.1718 28.1182 14.1718H27.7598C27.491 14.1718 27.2222 14.2614 27.043 14.5303C26.8638 14.7095 26.7742 15.0679 26.8638 15.3367L28.2975 22.4154C28.2975 22.505 28.2975 22.505 28.2975 22.5947V22.6842C28.2975 22.7738 28.387 22.8635 28.387 22.8635L28.4767 22.9531L30.8064 24.566V26.4476C30.8064 26.5372 30.8064 26.7165 30.896 26.8061C30.9856 26.8957 30.9856 26.9853 31.0752 27.0749V27.1644L33.7633 28.6877C33.9425 28.7773 34.0321 28.7774 34.2113 28.7774L40.2148 28.0605L40.6629 29.6734L40.7524 29.8526L41.4693 30.7486V33.0784L31.6128 34.1536C31.1648 34.2432 30.8064 34.6017 30.8064 35.0497V39.5299C30.8064 39.6195 30.8064 39.7987 30.896 39.8883C30.896 39.9779 30.9856 40.0675 31.0752 40.1571V40.2467L33.7633 41.77C33.9425 41.8596 34.0321 41.8596 34.2113 41.8596L40.2148 41.322L40.7524 43.0244L40.8421 43.2036L40.9317 43.2932C41.0213 43.3828 41.0213 43.4725 41.1109 43.5621L41.2005 43.6517L41.5589 43.8309V221.516C41.5589 221.964 41.9173 222.412 42.3654 222.412L44.0678 222.681V222.95C44.0678 223.398 44.4262 223.846 44.8743 223.846L50.9674 224.742H51.0569C51.2361 224.742 51.505 224.652 51.6842 224.473C51.8634 224.294 52.0426 224.025 52.0426 223.756V44.4581H52.2218H52.3114H52.401L52.5802 44.2789C52.6698 44.1893 52.7594 44.0101 52.849 43.8309L53.9243 40.0675L90.3933 36.4833L91.1101 38.5442L91.1997 38.7234L91.2893 38.813L91.3789 38.9026L92.0958 39.261V228.595C92.0958 229.043 92.4541 229.491 92.9022 229.491L94.6047 229.76V230.029C94.6047 230.477 94.9631 230.925 95.4111 230.925L102.669 232H102.759C103.027 232 103.207 231.91 103.386 231.731C103.565 231.552 103.744 231.283 103.744 231.014V39.5299H104.103H104.192C104.282 39.5299 104.372 39.4403 104.372 39.4403L104.461 39.3507C104.551 39.2611 104.64 39.0818 104.73 38.9922L106.074 34.7808L116.558 33.7952C116.647 33.7952 116.647 33.7952 116.737 33.7952C116.827 33.7952 116.827 33.7952 116.916 33.7056L117.006 33.616L117.095 33.5264C117.095 33.4368 117.185 33.4368 117.185 33.3472L117.275 33.2576V33.0784V32.9887V27.5229C117.275 27.1645 117.095 26.8956 116.827 26.7164L114.318 25.2828L114.138 25.1932H114.049H113.959H113.87L103.655 26.2684V24.8348H104.013H104.103C104.192 24.8348 104.282 24.7452 104.282 24.7452L104.372 24.6555C104.461 24.5659 104.551 24.3868 104.64 24.2972L105.984 20.0857L116.468 18.8313C116.558 18.8313 116.558 18.8313 116.647 18.8313C116.737 18.8313 116.737 18.8313 116.827 18.7417L116.916 18.652L117.006 18.5625C117.006 18.5625 117.006 18.5625 117.095 18.4729C117.095 18.3833 117.185 18.3833 117.185 18.2937L117.275 18.204V18.0249V17.9352V13.455L119.873 13.0966H120.052L120.231 13.007L120.411 12.8278C120.5 12.7382 120.59 12.5589 120.68 12.3797L122.651 3.59852C122.83 3.1505 122.651 2.70249 122.292 2.52328ZM93.171 228.237V38.5442C95.4111 38.6338 97.7408 38.365 100.071 38.0962H100.16V229.401L95.5903 228.774L93.171 228.237ZM42.6342 220.979V43.2036C44.3366 43.3829 46.3079 43.0244 48.0104 42.7556C48.1896 42.7556 48.2792 42.7556 48.4584 42.7556V221.875L45.0535 221.427L42.6342 220.979ZM28.2078 15.1575C28.8351 15.1575 29.4623 15.1575 30.0896 15.1575C56.9709 15.1575 87.7051 10.6773 118.887 2.16487L119.156 2.07526L117.275 10.4981L76.2358 15.8743C74.8021 16.0535 73.2788 16.2327 71.8451 16.4119C64.856 17.308 57.8669 18.204 50.8778 19.1001C44.6951 19.9065 38.4227 20.4442 32.24 21.609L29.3727 21.9674L28.0287 15.2471L28.2078 15.1575ZM103.207 23.5803C102.669 23.4011 102.131 22.9531 101.683 22.5947V22.5051C102.221 22.7739 102.759 23.0427 103.207 23.4011C103.296 23.4907 103.207 23.5803 103.207 23.5803ZM102.311 23.9387C102.131 23.9387 102.042 23.7595 101.952 23.6699C101.952 23.6699 101.952 23.5803 101.952 23.6699C102.131 23.6699 102.311 23.7595 102.311 23.9387C102.4 23.8491 102.4 23.9387 102.311 23.9387ZM51.4154 24.2972C51.953 24.4764 52.6699 24.7451 53.1179 25.1036C53.2075 25.1932 53.1178 25.2828 53.0282 25.2828C52.7594 25.1932 52.4906 25.0139 52.2218 24.9243C52.0426 24.8347 51.953 24.7451 51.7738 24.6555C51.6842 24.4763 51.505 24.4764 51.4154 24.2972C51.505 24.3868 51.4154 24.3867 51.4154 24.3867C51.4154 24.2971 51.4154 24.2972 51.4154 24.2972ZM101.056 22.2362L92.0958 23.2219L91.0205 19.9961C94.7839 19.9065 98.6368 19.2793 102.311 18.652L101.146 22.1466L101.056 22.2362ZM50.1609 28.5085C50.6089 28.7773 51.2362 29.0461 51.5946 29.4046C51.6842 29.4942 51.5946 29.5838 51.505 29.4942C50.9673 29.315 50.5193 28.9565 50.1609 28.5085C50.0713 28.5085 50.0713 28.5085 50.1609 28.5085ZM52.0426 30.659H52.2218H52.3114L52.401 30.5695L52.5802 30.4798L52.6699 30.3902C52.7595 30.3006 52.849 30.1214 52.849 30.0318L54.0139 26.2684L90.4828 21.7882L91.1101 23.7595V23.8491L91.1997 23.9387C91.2893 24.0283 91.2893 24.1179 91.3789 24.2075L91.4685 24.2972L92.0958 24.6555V27.6125L52.0426 31.8239V30.659ZM50.1609 29.4942C50.1609 29.4046 50.1609 29.4046 50.1609 29.4942C50.3401 29.4942 50.4297 29.5838 50.6089 29.6734C50.6985 29.763 50.6089 29.8526 50.5193 29.763C50.3401 29.6734 50.2505 29.5838 50.1609 29.4942ZM42.6342 30.1214V29.6734C43.4406 29.763 44.247 29.6734 45.0535 29.5838C46.1287 29.4942 47.2936 29.4046 48.3688 29.2254V32.8096L42.6342 33.4368V30.1214ZM42.6342 29.2254C42.7238 29.2254 42.6342 29.2254 42.6342 29.2254V29.2254ZM93.171 24.0283C95.2319 24.1179 97.472 23.7595 99.5329 23.3115C99.7121 23.3115 99.8913 23.3115 100.16 23.3115V27.4333H100.071L95.5007 27.8813L93.7982 28.0605L93.171 28.1501V24.0283ZM104.192 18.3832C104.103 18.2936 104.192 18.2936 104.192 18.3832C104.551 18.4728 104.909 18.5624 105.178 18.8313C105.268 18.8313 105.178 19.0105 105.088 18.9209C104.73 18.7417 104.461 18.5624 104.192 18.3832ZM115.034 16.9496C114.676 16.7704 114.318 16.5912 114.049 16.3223C114.407 16.3223 114.766 16.5912 115.124 16.7704C115.482 16.9496 115.931 17.2184 116.289 17.4872V17.5768C115.841 17.3976 115.393 17.1288 115.034 16.9496ZM31.9712 23.8491V22.2362C38.3331 21.7882 44.6055 20.8025 50.8778 19.9961C58.0461 19.1001 65.304 18.204 72.4724 17.308C79.4615 16.4119 86.4507 15.5159 93.4398 14.6198C100.16 13.7238 107.06 13.0966 113.78 12.0213V16.0535L102.848 17.3976L90.4828 18.9209L48.0104 24.1179L40.3941 25.014L31.9712 25.9996V23.8491ZM40.8421 26.0892C43.9782 25.91 47.204 25.6412 50.2505 24.9243L49.3545 28.0605L48.6377 28.1501L46.3079 28.4189L43.7094 28.6877L41.8277 28.867L40.8421 26.0892ZM31.9712 34.96L113.78 26.2684V31.1071L100.339 32.4511C100.25 32.4511 100.25 32.4511 100.16 32.4511L98.9057 32.5407L90.5725 33.3472L50.7881 37.2001L40.4836 38.1858L32.0609 38.9922V34.96H31.9712ZM115.841 32.0927C115.931 32.1823 115.841 32.2719 115.751 32.2719C115.303 32.0927 114.855 31.8239 114.407 31.5551C114.318 31.5551 114.407 31.4655 114.407 31.4655C114.945 31.6447 115.393 31.8239 115.841 32.0927ZM102.49 38.5442C102.311 38.4546 102.131 38.365 101.952 38.2754C102.131 38.365 102.4 38.4546 102.579 38.4546C102.579 38.4546 102.579 38.5442 102.49 38.5442ZM52.9387 38.7234C52.401 38.5442 51.7738 38.1858 51.3258 37.917V37.8274C51.8634 38.0066 52.4906 38.2754 53.0282 38.5442C53.1178 38.5442 53.0283 38.7234 52.9387 38.7234ZM51.4154 42.8452C50.9674 42.5764 50.4297 42.3076 49.9817 41.9492V41.8596C50.5194 42.0388 50.9674 42.3972 51.4154 42.666C51.6842 42.7556 51.5946 42.9348 51.4154 42.8452ZM50.4297 43.0244C50.3401 42.9348 50.1609 42.8453 50.1609 42.666C50.3401 42.666 50.4297 42.7556 50.5193 42.8452C50.6985 42.9348 50.5194 43.114 50.4297 43.0244ZM90.7517 33.7056L91.1101 33.616C91.0205 33.616 90.8413 33.7056 90.7517 33.7056ZM100.16 32.7199C100.071 32.7199 100.071 32.7199 99.9809 32.7199H100.16ZM103.117 38.1858C102.669 38.0066 102.131 37.7378 101.683 37.4689C101.594 37.4689 101.683 37.3794 101.773 37.3794C102.311 37.5586 102.759 37.8274 103.207 38.0066C103.296 38.0962 103.207 38.2754 103.117 38.1858ZM104.82 33.616C104.282 33.4368 103.744 33.0784 103.386 32.6303V32.5407C103.655 32.7199 103.924 32.8991 104.103 32.9887C104.372 33.0783 104.551 33.2576 104.82 33.3472C104.999 33.5264 104.909 33.7056 104.82 33.616ZM50.1609 38.813L49.3545 41.5908L41.8277 42.3076H41.7381L40.8421 39.5299C43.9782 39.6195 47.2039 39.261 50.1609 38.813ZM91.0205 34.4224C92.8126 34.4224 94.6047 34.2432 96.3968 34.1536C98.3681 33.9744 100.339 33.9744 102.221 33.7056L102.131 33.9744L101.146 37.0209L93.8879 37.6482L92.0958 37.8274L91.0205 34.4224ZM116.289 12.4694C115.841 12.2902 115.393 12.0214 115.034 11.7525V11.6629C115.482 11.9317 115.93 12.1109 116.379 12.2902C116.468 12.2902 116.379 12.4694 116.289 12.4694ZM119.694 12.0213C118.887 11.6629 118.081 11.3045 117.454 10.6773C117.454 10.6773 117.454 10.5876 117.543 10.5876C118.26 11.0357 119.067 11.4837 119.783 11.8421C119.873 11.9317 119.783 12.0213 119.694 12.0213Z" fill="black"/>
<path d="M91.0203 20.0858L92.0955 23.3115L101.056 22.3259H101.146L102.31 18.8313C98.6366 19.3689 94.7836 19.9066 91.0203 20.0858ZM100.698 21.161C98.7262 21.6091 96.8445 21.6987 94.8732 21.8779C94.7836 21.8779 94.7836 21.7882 94.8732 21.7882C96.8445 21.3402 98.7262 20.8922 100.698 20.713C100.966 20.713 100.966 21.161 100.698 21.161Z" fill="white"/>
<path d="M32.2399 21.5193C38.4226 20.4441 44.695 19.8169 50.8777 19.0104C57.8668 18.1144 64.8559 17.2183 71.8451 16.3223C73.2787 16.1431 74.802 15.9639 76.2357 15.7847L117.274 10.4084L119.156 1.9856L118.887 2.07521C87.705 10.5876 56.9708 15.0678 30.0895 15.0678C29.4622 15.0678 28.835 15.0678 28.2077 15.0678H28.0286L29.3726 21.7881L32.2399 21.5193ZM118.26 3.32966C117.902 5.12175 117.454 7.00346 116.826 8.61634C116.378 9.60199 115.482 9.96036 114.497 10.1396C110.913 10.6772 107.418 10.8564 103.834 11.2148C103.744 11.2148 103.744 11.1252 103.834 11.0356C106.701 10.5876 109.569 9.8708 112.525 9.51238C113.242 9.42278 113.959 9.33313 114.676 9.24353C115.214 9.15392 115.572 8.88512 115.751 8.5267C112.884 9.06433 109.927 9.24357 106.97 9.51238C106.88 9.51238 106.791 9.33316 106.97 9.33316C110.017 8.61633 113.153 7.98908 116.199 7.63066C116.199 7.54105 116.289 7.36188 116.289 7.27227V7.18264C115.751 7.36185 115.124 7.36186 114.586 7.36186C113.78 7.45146 112.884 7.54108 112.077 7.54108C111.988 7.54108 111.988 7.36186 112.077 7.36186C112.884 7.09304 113.69 6.91382 114.497 6.73461C115.124 6.55541 115.841 6.37623 116.558 6.37623C116.647 6.19702 116.647 6.01778 116.737 5.83857C116.11 6.01778 115.393 6.1074 114.855 6.01779C114.766 6.01779 114.766 5.92818 114.855 5.83857C115.214 5.65936 115.662 5.56976 116.11 5.48016C116.378 5.39055 116.647 5.21135 117.006 5.12175C117.095 4.94254 117.095 4.76332 117.185 4.58412C116.916 4.58412 116.647 4.58412 116.378 4.67373C116.289 4.67373 116.289 4.49451 116.378 4.49451C116.647 4.4049 117.006 4.2257 117.364 4.13609C117.454 3.86728 117.543 3.68808 117.633 3.41927C117.812 2.79204 118.35 2.97124 118.26 3.32966Z" fill="white"/>
<path d="M48.4583 32.8991V29.3149C47.3831 29.4942 46.2182 29.5838 45.143 29.6734C44.3365 29.763 43.5301 29.8526 42.7236 29.763V30.211V33.5264L48.4583 32.8991ZM44.3365 32.5407C45.3221 32.2719 46.3078 32.0031 47.2935 31.9135C47.5623 31.9135 47.5623 32.2719 47.3831 32.2719C46.3974 32.5407 45.4118 32.5407 44.4261 32.6303C44.2469 32.6303 44.2469 32.5407 44.3365 32.5407Z" fill="white"/>
<path d="M40.3938 25.014L48.0101 24.1179L90.4826 18.9209L102.848 17.3976L113.78 16.0536V12.0214C107.059 13.1862 100.249 13.8134 93.4396 14.6199C86.4504 15.5159 79.4613 16.4119 72.4721 17.308C65.3038 18.204 58.0458 19.1001 50.8775 19.9961C44.6052 20.8026 38.2433 21.7882 31.9709 22.2362V23.8491V26.0893L40.3938 25.014ZM103.386 16.0536C104.998 15.7847 106.522 15.4263 108.135 15.2471C109.299 15.0679 110.912 15.1575 111.808 14.4407C110.196 14.8887 108.403 14.7095 106.791 14.7095C106.611 14.7095 106.611 14.5303 106.791 14.4407C108.672 14.2615 110.464 13.7238 112.346 13.6342C112.436 13.455 112.436 13.2758 112.525 13.0966C112.525 12.8278 112.884 12.8278 112.973 13.007C113.332 14.3511 112.884 15.3367 111.45 15.5159C108.851 15.8743 106.163 15.9639 103.475 16.1431C103.296 16.2327 103.296 16.0536 103.386 16.0536Z" fill="white"/>
<path d="M43.6193 28.7774L46.2179 28.5086L48.5475 28.2398L49.2644 28.1502L50.1604 25.014C47.1139 25.7309 43.8881 25.9997 40.752 26.1789L41.648 29.0462L43.6193 28.7774ZM47.0243 27.5229C47.5619 27.4333 48.0996 27.2541 48.6372 27.2541C48.906 27.2541 48.906 27.6126 48.7268 27.7022C48.1891 27.7918 47.6515 27.7022 47.1139 27.7022C46.9347 27.7022 46.9347 27.5229 47.0243 27.5229Z" fill="white"/>
<path d="M93.7981 28.0604L95.5006 27.8813L100.07 27.4332H100.16V23.3114C99.9809 23.3114 99.8017 23.3114 99.5328 23.3114C97.4719 23.7594 95.2318 24.1178 93.1709 24.0282V28.1501L93.7981 28.0604ZM95.9487 26.9852C97.0239 26.7164 98.1888 26.5372 99.3536 26.5372C99.6224 26.5372 99.712 26.9852 99.4432 26.9852C98.2783 27.1644 97.1135 27.1644 95.9487 27.1644C95.8591 27.1644 95.8591 27.0748 95.9487 26.9852Z" fill="white"/>
<path d="M95.5004 228.595L100.07 229.222V38.0066H99.9806C97.7405 38.2754 95.4108 38.5442 93.0811 38.4546V228.237L95.5004 228.595Z" fill="white"/>
<path d="M40.3938 38.2754L50.6983 37.2898L90.4826 33.4367L98.8158 32.6303L100.07 32.5407C100.07 32.5407 100.16 32.4511 100.249 32.5407L113.69 31.1966V26.358L31.8813 35.0497V39.261L40.3938 38.2754ZM100.339 30.211C104.282 29.4942 108.314 28.6877 112.346 28.5085C112.436 28.2397 112.436 27.9709 112.436 27.6125C112.436 27.3436 112.884 27.2541 112.973 27.5229C113.242 28.7773 113.242 29.9422 111.898 30.659C111.271 30.9278 110.464 30.9279 109.837 31.0175C108.672 31.1071 107.418 31.1967 106.253 31.2863C101.504 31.6447 96.6653 32.0031 91.9163 32.0927C91.8267 32.0927 91.737 31.9135 91.9163 31.9135C95.3212 31.4655 98.7262 31.107 102.131 30.7486C103.923 30.5694 105.715 30.4798 107.507 30.3006C108.493 30.211 109.479 30.1214 110.464 30.0318C111.271 29.9422 111.719 29.6734 112.077 29.2254C108.224 29.8526 104.282 30.1214 100.429 30.3006C100.249 30.3902 100.249 30.211 100.339 30.211Z" fill="white"/>
<path d="M41.8274 42.3076L49.3542 41.5908L50.1606 38.813C47.2037 39.261 43.9779 39.6195 40.9314 39.5299L41.8274 42.3076ZM44.3364 41.322C45.77 41.0531 47.1141 40.9635 48.5478 40.8739C48.727 40.8739 48.727 41.1427 48.5478 41.1427C47.1141 41.3219 45.77 41.5011 44.3364 41.5011C44.2467 41.5011 44.2467 41.322 44.3364 41.322Z" fill="white"/>
<path d="M100.161 32.72H99.9807C99.9807 32.8103 100.071 32.72 100.161 32.72Z" fill="white"/>
<path d="M93.9772 37.5586L101.235 36.9313L102.221 33.8848L102.31 33.616C100.429 33.9744 98.3678 33.9744 96.4861 34.064C94.694 34.1536 92.9019 34.4224 91.1099 34.3328L92.2747 37.6482L93.9772 37.5586ZM95.1421 36.5729C96.8445 36.3041 98.547 35.8561 100.339 35.8561C100.608 35.8561 100.698 36.3041 100.429 36.3937C98.7263 36.7522 96.9342 36.6625 95.2317 36.8418C95.0525 36.7522 95.0525 36.5729 95.1421 36.5729Z" fill="white"/>
<path d="M45.0534 221.337L48.4583 221.785V42.7556C48.2791 42.7556 48.1895 42.7556 48.0103 42.7556C46.3078 43.114 44.4261 43.3828 42.634 43.2036V220.979L45.0534 221.337Z" fill="white"/>
<path d="M117.633 3.15044C117.543 3.41926 117.454 3.59848 117.364 3.8673C117.006 3.9569 116.737 4.1361 116.378 4.22571C116.289 4.22571 116.289 4.40493 116.378 4.40493C116.647 4.40493 116.916 4.40492 117.185 4.31532C117.095 4.49453 117.095 4.67374 117.006 4.85295C116.737 4.94255 116.468 5.12176 116.11 5.21136C115.662 5.39057 115.303 5.39056 114.855 5.56977C114.766 5.56977 114.766 5.65939 114.855 5.74899C115.393 5.8386 116.11 5.74898 116.737 5.56977C116.647 5.74898 116.647 5.92817 116.558 6.10738C115.841 6.10738 115.214 6.28661 114.497 6.46582C113.69 6.64503 112.884 6.82424 112.077 7.09306C111.988 7.09306 111.988 7.27228 112.077 7.27228C112.884 7.27228 113.78 7.18266 114.586 7.09306C115.124 7.00345 115.751 7.00344 116.289 6.91384V7.00342C116.289 7.09302 116.199 7.27226 116.199 7.36186C113.063 7.72028 109.927 8.34753 106.97 9.06436C106.88 9.06436 106.88 9.24353 106.97 9.24353C109.837 9.06432 112.884 8.79553 115.751 8.2579C115.482 8.61632 115.124 8.88512 114.676 8.97473C113.959 9.15394 113.242 9.15392 112.525 9.24353C109.568 9.60195 106.701 10.3188 103.834 10.7668C103.744 10.7668 103.744 10.946 103.834 10.946C107.418 10.5876 111.002 10.4084 114.497 9.87077C115.482 9.69156 116.378 9.42274 116.826 8.34749C117.454 6.645 117.991 4.85295 118.26 3.06086C118.35 2.97126 117.812 2.79203 117.633 3.15044Z" fill="black"/>
<path d="M103.385 16.2327C106.074 16.0535 108.672 15.9638 111.36 15.6054C112.794 15.4262 113.242 14.4406 112.884 13.0965C112.794 12.8277 112.525 12.9173 112.435 13.1861C112.435 13.3653 112.346 13.5445 112.256 13.7237C110.375 13.7237 108.583 14.351 106.701 14.5302C106.522 14.5302 106.522 14.799 106.701 14.799C108.314 14.799 110.106 14.9782 111.719 14.5302C110.823 15.247 109.299 15.1574 108.045 15.3366C106.432 15.6054 104.909 15.8742 103.296 16.143C103.296 16.0534 103.296 16.2327 103.385 16.2327Z" fill="black"/>
<path d="M100.698 20.7129C98.7263 20.8921 96.8447 21.3401 94.8734 21.7881C94.7838 21.7881 94.7838 21.9673 94.8734 21.8777C96.8447 21.6985 98.8159 21.6089 100.698 21.1609C100.966 21.1609 100.966 20.7129 100.698 20.7129Z" fill="black"/>
<path d="M96.0382 27.1645C97.2031 27.1645 98.3679 27.1645 99.5328 26.9853C99.8016 26.9853 99.712 26.4477 99.4432 26.5373C98.2783 26.6269 97.1135 26.8061 96.0382 26.9853C95.859 27.0749 95.859 27.1645 96.0382 27.1645Z" fill="black"/>
<path d="M100.339 30.3903C104.192 30.1214 108.135 29.9422 111.988 29.315C111.719 29.763 111.181 30.0319 110.375 30.1215C109.389 30.2111 108.404 30.3007 107.418 30.3903C105.626 30.5695 103.834 30.6591 102.042 30.8383C98.6367 31.1071 95.2317 31.4655 91.8267 32.0031C91.7371 32.0031 91.7371 32.1823 91.8267 32.1823C96.6654 32.0927 101.414 31.7343 106.163 31.3759C107.328 31.2863 108.583 31.1967 109.748 31.1071C110.375 31.0175 111.181 31.1071 111.809 30.7486C113.063 30.1214 113.153 28.9566 112.884 27.6125C112.794 27.3437 112.346 27.4333 112.346 27.7021C112.346 28.0605 112.346 28.3294 112.257 28.5982C108.224 28.867 104.192 29.5838 100.25 30.3006C100.25 30.211 100.25 30.3903 100.339 30.3903Z" fill="black"/>
<path d="M95.1421 36.7521C96.8446 36.6625 98.6366 36.7521 100.339 36.3041C100.608 36.2145 100.518 35.7665 100.25 35.7665C98.547 35.7665 96.755 36.2145 95.0525 36.4833C95.0525 36.5729 95.0525 36.7521 95.1421 36.7521Z" fill="black"/>
<path d="M44.4259 41.5012C45.8596 41.5012 47.2933 41.322 48.6373 41.1428C48.8165 41.1428 48.7269 40.874 48.6373 40.874C47.2037 40.9636 45.8596 41.0532 44.4259 41.322C44.2467 41.322 44.2467 41.5012 44.4259 41.5012Z" fill="black"/>
<path d="M44.3364 32.6304C45.3221 32.5408 46.3077 32.5408 47.2934 32.2719C47.4726 32.1823 47.4726 31.8239 47.2038 31.9136C46.2181 32.0032 45.2325 32.2719 44.2468 32.5407C44.2468 32.5407 44.2468 32.6304 44.3364 32.6304Z" fill="black"/>
<path d="M47.0244 27.7023C47.562 27.7023 48.1893 27.7919 48.6373 27.7023C48.9061 27.6127 48.8165 27.2543 48.5477 27.2543C48.0101 27.2543 47.4724 27.4335 46.9348 27.5231C46.9348 27.5231 46.9348 27.7023 47.0244 27.7023Z" fill="black"/>
<path d="M117.453 10.5876C117.453 10.5876 117.364 10.5876 117.453 10.5876C118.081 11.3045 118.797 11.6629 119.694 12.0213C119.783 12.0213 119.783 11.9317 119.783 11.9317C118.977 11.4837 118.26 11.0357 117.453 10.5876Z" fill="white"/>
<path d="M115.034 11.663C115.034 11.5734 114.945 11.663 115.034 11.663C115.393 12.0214 115.841 12.2902 116.289 12.4695C116.378 12.4695 116.468 12.3798 116.378 12.2902C115.93 12.111 115.482 11.8422 115.034 11.663Z" fill="white"/>
<path d="M116.289 17.4871C115.93 17.2183 115.572 16.9495 115.124 16.7703C114.765 16.5911 114.407 16.3223 114.049 16.3223C114.317 16.5911 114.676 16.7703 115.034 16.9495C115.393 17.1287 115.841 17.3975 116.289 17.4871C116.289 17.5767 116.289 17.4871 116.289 17.4871Z" fill="white"/>
<path d="M105.178 18.7416C104.909 18.5624 104.55 18.3832 104.282 18.204C104.192 18.204 104.192 18.204 104.282 18.2936C104.55 18.4728 104.909 18.7416 105.178 18.8312C105.178 18.9208 105.178 18.8312 105.178 18.7416Z" fill="white"/>
<path d="M101.683 22.5946C101.683 22.505 101.594 22.5946 101.683 22.5946C102.042 23.0427 102.579 23.4011 103.117 23.5803C103.207 23.5803 103.207 23.4907 103.207 23.4907C102.759 23.1323 102.221 22.7738 101.683 22.5946Z" fill="white"/>
<path d="M102.042 23.5803C102.042 23.5803 101.952 23.6699 102.042 23.5803C102.131 23.7595 102.221 23.8492 102.31 23.8492C102.4 23.8492 102.4 23.7595 102.4 23.7595C102.31 23.7595 102.131 23.6699 102.042 23.5803Z" fill="white"/>
<path d="M51.415 24.3867C51.5046 24.3867 51.5046 24.3867 51.415 24.3867C51.5046 24.4763 51.6839 24.5659 51.7735 24.6555C51.9527 24.7451 52.0423 24.8347 52.2215 24.9243C52.4903 25.1035 52.7591 25.1931 53.0279 25.2827C53.1175 25.2827 53.1175 25.1931 53.1175 25.1035C52.6695 24.7451 51.9527 24.4763 51.415 24.2971C51.415 24.2971 51.415 24.2971 51.415 24.3867C51.415 24.2971 51.415 24.2971 51.415 24.3867Z" fill="white"/>
<path d="M51.5047 29.5838C51.5943 29.5838 51.684 29.4942 51.5944 29.4942C51.1464 29.1358 50.6087 28.867 50.1607 28.5981C50.1607 28.5981 50.0711 28.5981 50.1607 28.6877C50.5191 28.9565 50.9671 29.315 51.5047 29.5838Z" fill="white"/>
<path d="M50.5188 29.7631C50.6084 29.8527 50.698 29.6735 50.6084 29.6735C50.5188 29.5839 50.3396 29.5839 50.25 29.4943C50.25 29.4943 50.1604 29.4943 50.25 29.4943C50.25 29.5839 50.3396 29.6735 50.5188 29.7631Z" fill="white"/>
<path d="M114.496 31.4655C114.407 31.4655 114.407 31.4655 114.496 31.4655C114.944 31.7343 115.303 32.0927 115.84 32.2719C115.93 32.2719 116.02 32.1822 115.93 32.0926C115.392 31.8238 114.944 31.6447 114.496 31.4655Z" fill="white"/>
<path d="M104.909 33.4368C104.73 33.2576 104.461 33.168 104.192 33.0784C103.923 32.8992 103.655 32.72 103.475 32.6304C103.475 32.6304 103.386 32.6303 103.475 32.72C103.834 33.0784 104.371 33.5264 104.909 33.7056C104.909 33.7056 104.999 33.5264 104.909 33.4368Z" fill="white"/>
<path d="M103.207 38.0962C102.759 37.8274 102.221 37.6482 101.773 37.469C101.683 37.469 101.683 37.5586 101.683 37.5586C102.131 37.8274 102.579 38.0962 103.117 38.2755C103.207 38.2755 103.296 38.0962 103.207 38.0962Z" fill="white"/>
<path d="M101.952 38.1858C101.952 38.1858 101.863 38.2754 101.952 38.1858C102.131 38.2754 102.311 38.4546 102.49 38.5442C102.579 38.5442 102.579 38.4546 102.579 38.4546C102.311 38.365 102.131 38.2754 101.952 38.1858Z" fill="white"/>
<path d="M53.0277 38.4545C52.4901 38.1857 51.9525 37.9169 51.3253 37.7377C51.2357 37.7377 51.2357 37.8273 51.3253 37.8273C51.7733 38.1857 52.4005 38.4545 52.9381 38.6337C53.0277 38.7233 53.1173 38.5441 53.0277 38.4545Z" fill="white"/>
<path d="M51.5944 42.6661C51.1464 42.3973 50.6087 42.1284 50.1607 41.8596C50.1607 41.8596 50.0711 41.8596 50.1607 41.9492C50.6087 42.3076 51.0567 42.5764 51.5944 42.8452C51.5944 42.9348 51.684 42.7557 51.5944 42.6661Z" fill="white"/>
<path d="M50.1609 42.666C50.1609 42.8452 50.3401 42.9348 50.4297 43.0244C50.5193 43.114 50.6985 42.9348 50.6089 42.8452C50.4297 42.7556 50.3401 42.666 50.1609 42.666Z" fill="white"/>
</g>
<defs>
<filter id="filter0_d" x="0" y="0" width="127.721" height="241" filterUnits="userSpaceOnUse" color-interpolation-filters="sRGB">
<feFlood flood-opacity="0" result="BackgroundImageFix"/>
<feColorMatrix in="SourceAlpha" type="matrix" values="0 0 0 0 0 0 0 0 0 0 0 0 0 0 0 0 0 0 127 0"/>
<feOffset dy="4"/>
<feGaussianBlur stdDeviation="2.5"/>
<feColorMatrix type="matrix" values="0 0 0 0 0 0 0 0 0 0 0 0 0 0 0 0 0 0 0.29 0"/>
<feBlend mode="normal" in2="BackgroundImageFix" result="effect1_dropShadow"/>
<feBlend mode="normal" in="SourceGraphic" in2="effect1_dropShadow" result="shape"/>
</filter>
</defs>
</svg>
