<svg width="90" height="99" viewBox="0 0 90 99" fill="none" xmlns="http://www.w3.org/2000/svg">
<g filter="url(#filter0_d)">
<path d="M44.5484 57.0726C60.231 57.0726 72.9442 44.3513 72.9442 28.6587C72.9442 12.9661 60.231 0.244751 44.5484 0.244751C28.8658 0.244751 16.1526 12.9661 16.1526 28.6587C16.1526 44.3513 28.8658 57.0726 44.5484 57.0726Z" fill="#EE3D48"/>
<path d="M85.7862 65.9379C85.7862 65.8864 85.7862 65.8348 85.7346 65.7832V65.7317L81.4572 58.3059C81.3026 58.048 81.0449 57.8933 80.7357 57.8933L77.2829 57.8418L79.705 28.1386C79.705 28.0871 79.705 28.0355 79.705 27.9839V27.9324C79.705 27.8292 79.6535 27.7261 79.602 27.6745L79.5504 27.6229C79.4989 27.5714 79.4989 27.5198 79.4473 27.4682L79.2927 27.3651H79.2412C79.1897 27.3135 79.1381 27.3135 79.0351 27.262H78.9835C78.932 27.262 78.8289 27.262 78.7774 27.262H78.7259C78.6228 27.262 78.5713 27.3135 78.4682 27.3135L40.8476 45.3623C40.6414 45.4655 40.4868 45.6201 40.4353 45.8264L35.1787 59.6466L7.71053 35.7191C7.40132 35.4613 6.93749 35.4613 6.62828 35.7191C6.31907 35.977 6.21601 36.4411 6.42216 36.802L20.0274 60.7811L17.8629 60.5233C17.5537 60.4717 17.2445 60.6264 17.0384 60.8843L4.1546 80.2738L4.10308 80.3254C4.05154 80.377 4.05154 80.4801 4 80.5317V80.5832C4 80.6864 4 80.7379 4 80.8411V80.8926C4 80.9442 4.05152 81.0473 4.05152 81.0989L4.10308 81.202C4.15461 81.2536 4.15461 81.3052 4.25768 81.3567L4.3092 81.4083C4.36073 81.4599 4.41226 81.4599 4.4638 81.5114L4.51535 81.563C4.61842 81.6146 4.66996 81.6146 4.77303 81.6146L46.8256 83.4195L54.0921 90.7421L54.1952 90.8452C54.2467 90.8968 54.2982 90.8968 54.2982 90.8968L54.4013 90.9484C54.5044 90.9999 54.6074 90.9999 54.7105 90.9999H54.8136C54.8651 90.9999 54.8651 90.9999 54.8651 90.9999L55.0197 90.9484C55.0713 90.9484 55.0713 90.8968 55.1228 90.8968C55.1743 90.8968 55.1743 90.8452 55.1743 90.8452C55.2259 90.8452 55.2259 90.7937 55.2774 90.7421L55.3289 90.6905L57.3903 87.6996L58.9879 89.1435C59.1941 89.2982 59.4002 89.4013 59.6579 89.3498C59.9156 89.2982 60.1217 89.1951 60.2763 88.9888L76.5099 64.5456L84.7555 66.9693H84.807C84.8585 66.9693 84.9101 66.9693 84.9616 66.9693H85.0647C85.1162 66.9693 85.1678 66.9693 85.2708 66.9177H85.3223C85.3223 66.9177 85.3739 66.9177 85.4254 66.8661L85.477 66.8146L85.5285 66.763C85.58 66.763 85.58 66.7115 85.6316 66.6599C85.6316 66.6083 85.6831 66.6083 85.6831 66.5567L85.7346 66.4536C85.7346 66.402 85.7862 66.3505 85.7862 66.3505C85.7862 66.2989 85.7862 66.2989 85.8377 66.2473C85.8377 66.1958 85.8377 66.1442 85.8377 66.0411C85.7862 66.0411 85.7862 65.9895 85.7862 65.9379ZM75.8399 59.0278L80.5296 59.0794L83.8794 64.855L75.8399 59.0278ZM83.1579 65.216L76.4583 63.2564L76.0976 60.0592L83.1579 65.216ZM77.7467 29.0153L51.67 63.7205L44.8673 58.6669C44.8673 58.6669 44.8158 58.6668 44.8158 58.6153C44.7643 58.6153 44.7642 58.6153 44.7127 58.6153C44.6612 58.6153 44.6612 58.6153 44.6096 58.6153L36.0548 60.6264L41.466 46.3937L77.7467 29.0153ZM53.1129 73.2606L45.7434 60.1623L51.5154 64.4425L58.1634 69.393L53.216 73.0543C53.1645 73.1574 53.1645 73.209 53.1129 73.2606ZM55.5866 79.0362L44.7642 72.2292L42.5482 70.8369L44.8673 59.9045L55.5866 79.0362ZM44.2489 59.3888L41.9298 70.4759L29.716 62.7923L44.2489 59.3888ZM28.7884 62.3282L21.7281 61.4515L8.38048 37.885L34.7665 60.8843L28.7884 62.3282ZM28.6853 62.9986L43.6305 72.3839L5.54605 80.2222L17.8114 61.7094L28.6853 62.9986ZM44.5066 72.8996L55.7928 80.016L49.9177 82.3365L47.3925 82.2334C47.2379 82.0787 47.0318 82.0787 46.9287 82.2334L7.60746 80.5317L44.5066 72.8996ZM49.9693 82.9553C50.0208 82.9553 50.0724 82.9553 50.1239 82.9553L56.102 80.5832L54.5044 89.4013L48.114 82.9038L49.9693 82.9553ZM56.875 80.1191C56.875 80.0675 56.875 80.0675 56.875 80.1191C56.875 80.0675 56.875 80.016 56.875 80.016C56.875 79.9644 56.875 79.9644 56.8235 79.9128L53.3191 73.7247C53.4221 73.7762 53.5252 73.7247 53.6283 73.6731L73.5208 59.0794L75.0669 59.5435L55.2774 88.5763L56.875 80.1191ZM75.4276 60.2654L75.7884 63.4111L59.5033 87.9059L57.6996 86.2557L75.4276 60.2654ZM73.5208 58.3059C73.4693 58.3059 73.4693 58.3059 73.4178 58.3059H73.3662C73.3662 58.3059 73.3147 58.3059 73.3147 58.3574L58.7818 69.032L52.2368 64.133L78.4166 29.2216L76.046 58.3574L73.5208 58.3059Z" fill="black"/>
<path d="M78.4166 29.2218L52.2368 64.1333L58.7818 69.0322L73.3147 58.4093C73.3147 58.4093 73.3662 58.4093 73.3662 58.3577H73.4178C73.4693 58.3577 73.4693 58.3577 73.5208 58.3577L76.046 58.4093L78.4166 29.2218Z" fill="white"/>
<path d="M41.9296 70.476L44.2487 59.3889L29.7158 62.7924L41.9296 70.476Z" fill="white"/>
<path d="M47.3925 82.1818L49.9177 82.2849L55.7927 79.9644L44.5065 72.848L7.60742 80.4285L46.9287 82.1302C47.0318 82.0271 47.2379 82.0271 47.3925 82.1818Z" fill="white"/>
<path d="M42.5483 70.8371L44.7643 72.2294L55.5867 79.0364L44.8159 59.9047L42.5483 70.8371Z" fill="white"/>
<path d="M80.5298 59.0794L75.7886 59.0278H75.8401L83.828 64.855L80.5298 59.0794Z" fill="white"/>
<path d="M73.5724 59.0278L53.6798 73.6216C53.5767 73.6731 53.4737 73.6731 53.3706 73.6731L56.875 79.8613C56.875 79.9128 56.9265 79.9128 56.9265 79.9644V80.016L55.3805 88.4731L75.1699 59.4404L73.5724 59.0278Z" fill="white"/>
<path d="M51.5669 64.494L45.7949 60.2139L53.1644 73.3121C53.1644 73.2606 53.216 73.1574 53.2675 73.1059L58.2149 69.4445L51.5669 64.494Z" fill="white"/>
<path d="M56.1019 80.5834L50.1239 82.9555C50.0723 82.9555 50.0208 82.9555 50.0208 82.9555L48.1655 82.8524L54.5559 89.3499L56.1019 80.5834Z" fill="white"/>
<path d="M75.7883 63.4113L75.4275 60.2656L57.6995 86.3074L59.5032 87.906L75.7883 63.4113Z" fill="white"/>
<path d="M83.1577 65.2161L76.0974 60.0593L76.4582 63.2565L83.1577 65.2161Z" fill="white"/>
<path d="M43.6303 72.3841L28.6851 62.9987L17.8628 61.658L5.59741 80.1708L43.6303 72.3841Z" fill="white"/>
<path d="M21.7795 61.4516L28.7883 62.3282L34.7663 60.8843L8.38037 37.885L21.7795 61.4516Z" fill="white"/>
<path d="M44.6095 58.6153C44.661 58.6153 44.661 58.6153 44.7126 58.6153C44.7641 58.6153 44.7641 58.6153 44.8157 58.6153C44.8157 58.6153 44.8672 58.6153 44.8672 58.6669L51.6698 63.7205L77.7466 28.9637L41.4659 46.3421L36.0547 60.6265L44.6095 58.6153Z" fill="white"/>
</g>
<defs>
<filter id="filter0_d" x="0" y="0.244751" width="89.8377" height="98.7552" filterUnits="userSpaceOnUse" color-interpolation-filters="sRGB">
<feFlood flood-opacity="0" result="BackgroundImageFix"/>
<feColorMatrix in="SourceAlpha" type="matrix" values="0 0 0 0 0 0 0 0 0 0 0 0 0 0 0 0 0 0 127 0"/>
<feOffset dy="4"/>
<feGaussianBlur stdDeviation="2"/>
<feColorMatrix type="matrix" values="0 0 0 0 0 0 0 0 0 0 0 0 0 0 0 0 0 0 0.25 0"/>
<feBlend mode="normal" in2="BackgroundImageFix" result="effect1_dropShadow"/>
<feBlend mode="normal" in="SourceGraphic" in2="effect1_dropShadow" result="shape"/>
</filter>
</defs>
</svg>
