<svg width="121" height="99" viewBox="0 0 121 99" fill="none" xmlns="http://www.w3.org/2000/svg">
<g filter="url(#filter0_d)">
<path d="M39.3334 58.6957C55.2656 58.6957 68.1813 45.7801 68.1813 29.8478C68.1813 13.9156 55.2656 1 39.3334 1C23.4012 1 10.4856 13.9156 10.4856 29.8478C10.4856 45.7801 23.4012 58.6957 39.3334 58.6957Z" fill="#EE3D48"/>
<path d="M115.106 70.9781C114.287 67.3249 111.957 64.5534 108.493 62.9158C110.445 60.8372 110.823 58.0029 111.138 55.2944C111.516 52.586 111.831 50.0665 113.531 48.1769C113.72 47.925 113.783 47.6731 113.72 47.3581C113.657 47.0432 113.469 46.8542 113.154 46.7283C111.957 46.2244 110.634 45.9724 109.248 45.9724C107.233 45.9724 105.28 46.4763 103.58 47.4841C104.524 45.7205 105.658 44.0198 106.981 42.2562C107.422 41.6893 107.485 41.1854 107.296 40.8075C107.044 40.2407 106.288 39.9887 104.965 39.9887C103.958 39.9887 102.887 40.1147 102.446 40.1777H102.32C98.0998 40.7445 93.8167 41.9413 89.7856 43.6419C91.4862 40.7445 92.62 37.4062 93.2499 33.627C93.6278 31.4855 93.6908 29.155 93.6278 26.7615C93.5648 25.5648 93.4388 24.431 93.2499 23.5492C93.2499 23.3602 93.1868 23.1713 93.1868 22.9823C93.0608 22.1635 92.9349 21.1557 92.5569 20.4629C92.242 19.833 91.7382 19.5181 91.0453 19.5181C90.2265 19.5181 89.3447 20.0849 88.5888 20.5259C88.3999 20.6518 88.2109 20.7778 88.0219 20.8408C85.3135 22.2895 83.109 23.5492 81.2194 24.8089C78.196 26.8245 75.7396 29.092 73.9129 31.4225C73.0941 32.3043 72.4013 33.2491 71.8344 34.1939C71.6455 34.131 71.4565 34.131 71.2675 34.131C70.5747 34.131 70.0078 34.2569 69.5039 34.4459C69.2519 32.8082 68.5591 31.1076 67.4883 29.344C66.8585 28.3362 66.1026 27.3914 65.3468 26.4466C65.2838 26.3206 65.1578 26.1947 65.0319 26.0057C64.213 24.8719 63.5202 23.9901 62.7644 23.9901C58.7332 23.9901 54.6391 27.1394 52.4345 30.3518L52.3716 30.2888C50.293 28.2102 47.7735 26.8875 45.2541 25.6278C42.8606 24.431 40.4041 23.1713 38.5145 21.2187C38.3256 21.0298 38.0736 20.9668 37.8217 20.9668C37.5697 20.9668 37.3178 21.0927 37.1288 21.2817C34.3574 24.683 33.0977 28.9031 33.5386 33.0602C33.4756 32.9972 33.4756 32.9342 33.4126 32.9342C32.7197 32.1154 31.9639 31.2965 30.8931 30.2258C30.7672 30.0998 30.6412 29.9738 30.5152 29.7849C29.9484 29.155 29.3185 28.3992 28.5626 28.2102C28.3107 28.1472 28.1217 28.1472 27.9328 28.1472C26.3581 28.1472 25.9172 29.8479 25.6023 31.1076C25.5393 31.2336 25.5393 31.3595 25.4763 31.4855C24.6575 34.6978 24.4055 38.0991 24.8464 41.5004C23.3978 40.8075 21.8231 40.6186 20.2484 40.4926C19.2407 40.4296 18.2328 40.3036 17.2251 40.2406C15.0205 40.0517 12.753 39.8627 10.5485 39.6738H10.4855C10.2336 39.6738 9.98161 39.7997 9.79265 39.9887C9.60369 40.1777 9.54073 40.4296 9.54073 40.6815C9.91865 43.9568 11.4303 47.3581 13.6349 49.9406C12.942 50.0665 12.1232 50.1925 11.3043 50.5075H11.2413C10.9894 50.5704 10.4225 50.7594 10.0446 51.0113C9.79266 51.0743 9.60371 51.2633 9.54073 51.4522C9.41475 51.6412 9.41475 51.8932 9.54073 52.1451C11.8712 57.6249 15.5244 62.4749 20.1225 65.8762C17.666 65.6872 15.3985 66.0021 13.005 66.9469C9.85566 68.2067 7.08425 70.5372 5.13167 73.6235C5.0057 73.8754 4.94269 74.1904 5.06866 74.4423C5.19463 74.6943 5.44658 74.9462 5.69852 75.0092C8.21799 75.6391 10.2966 77.2137 12.3751 78.7884C12.816 79.1663 13.3199 79.4813 13.8238 79.8592C16.5952 81.8748 19.8075 83.3234 23.3978 84.0793C24.9094 84.3942 26.5471 84.5832 28.2477 84.5832C33.6645 84.5832 38.7035 82.9455 42.1047 80.0481C45.2541 80.9929 48.8443 81.1819 52.0566 80.615C52.4976 83.1975 54.7021 84.9611 56.6547 86.0319C59.9929 87.9215 64.0241 89.0552 67.8662 90C67.9292 90 68.0552 90 68.1182 90C68.4961 90 68.811 89.8111 68.937 89.4961C69.6928 88.1104 71.3305 86.9767 72.9681 85.8429C75.1097 84.3942 77.3142 82.8825 77.9441 80.552C80.4006 81.5598 83.4869 82.1267 87.0142 82.1267C88.7778 82.1267 90.7303 82.0007 92.8089 81.7488C96.7771 81.2449 100.304 80.1741 103.265 78.4735C104.524 77.7176 105.721 76.8358 106.855 75.891C109.122 74.1274 111.264 72.4268 114.161 72.2378C114.476 72.2378 114.728 72.0488 114.854 71.8599C115.106 71.545 115.169 71.293 115.106 70.9781ZM26.673 46.3503C26.5471 46.2873 26.4841 46.4763 26.5471 46.5393C26.6101 46.6023 26.6731 46.6023 26.736 46.6653C26.799 46.7912 26.862 46.9172 26.862 47.1062C26.4841 47.0432 26.1692 47.0432 25.7912 46.9802C25.7283 46.9802 25.6652 47.1062 25.7282 47.1062C26.0432 47.1692 26.3581 47.2951 26.6101 47.4211C26.736 47.4841 26.925 47.6101 27.051 47.6731C27.114 47.799 27.177 47.925 27.177 48.051C26.925 47.988 26.61 47.988 26.3581 47.925C25.7912 47.799 25.1614 47.673 24.5945 47.4841C24.4685 47.4211 24.4055 47.6101 24.5315 47.6731C25.1614 47.925 25.7912 48.1769 26.3581 48.4289C26.799 48.6178 27.1769 48.8698 27.6178 49.0588C27.6178 49.1217 27.6808 49.1847 27.6808 49.1847C26.2951 48.7438 24.7834 48.4289 23.3348 48.114C23.2088 48.051 23.1458 48.3029 23.2718 48.3659C24.4055 48.8068 25.4763 49.3737 26.5471 49.8776C24.9724 49.4367 23.3977 48.9958 21.7601 48.4919C21.6971 48.4919 21.6341 48.6179 21.6971 48.6179C23.4607 49.3737 25.1614 50.1295 26.862 50.9483C26.4841 50.8224 26.0432 50.6964 25.6653 50.6334C20.0595 48.3659 13.5718 47.2951 11.1784 41.1225C13.5718 41.3114 16.0283 41.5004 18.4218 41.7523C20.8783 41.9413 23.6497 41.9413 25.7282 43.5159C26.1062 44.4607 26.3581 45.4055 26.673 46.3503ZM37.0658 32.2414C37.7587 35.8946 40.6561 39.4218 39.6483 43.264C39.2074 42.0043 38.5775 40.8075 37.9476 39.6738C37.3178 37.7212 36.8139 35.7056 36.6249 33.627C36.6249 33.5011 36.4359 33.5011 36.4359 33.627C36.373 35.0128 36.4989 36.3985 36.7509 37.7212C36.31 37.0913 35.8691 36.4614 35.4282 35.8946V35.8316C34.5464 31.8004 35.1762 27.5174 37.2548 23.9901C36.562 26.6985 36.5619 29.4699 37.0658 32.2414ZM107.485 58.5067C106.855 59.8924 105.973 61.0262 105.091 62.2859C105.028 62.2859 104.902 62.223 104.839 62.223C105.343 61.5931 105.658 60.8372 105.91 60.0814C105.973 59.9554 105.784 59.8925 105.721 60.0184C105.28 60.8372 104.713 61.4671 104.084 62.034C100.871 61.4671 97.3439 61.6561 94.1316 62.3489C94.3206 62.2229 94.4466 62.097 94.6355 61.971C97.9738 61.3411 100.871 58.3178 103.139 56.0503C104.524 54.6016 105.91 53.1529 107.422 51.7672C108.808 50.5075 110.319 49.4997 111.894 48.4919C109.248 52.8379 110.697 58.8217 106.981 62.7898C106.729 62.7268 106.477 62.6009 106.225 62.5379C106.981 61.3411 107.485 59.9554 107.863 58.5697C107.8 58.4437 107.548 58.3808 107.485 58.5067ZM103.769 53.9717C103.328 54.4126 102.95 54.8535 102.509 55.2944C101.564 55.8613 100.619 56.3652 99.6745 56.9321C99.7374 56.8061 99.8634 56.7431 99.9264 56.6171C100.871 55.6723 101.816 54.8535 102.887 54.1607C103.013 54.0977 102.887 53.9087 102.761 53.9717C101.627 54.4756 100.304 55.1055 99.1705 55.9243C99.2965 55.6724 99.4855 55.3574 99.6115 55.1055C100.178 54.7275 100.682 54.3496 101.186 53.9087C101.312 53.8457 101.186 53.5938 101.06 53.6568C100.745 53.7828 100.43 53.9087 100.115 54.0977C100.178 53.9087 100.304 53.7198 100.367 53.4678C100.367 53.4678 100.43 53.4678 100.43 53.4048C100.619 53.2159 100.871 53.0899 101.06 52.9639C101.186 52.9009 101.123 52.712 100.997 52.775C100.871 52.775 100.745 52.8379 100.619 52.8379C100.997 52.0191 101.312 51.2003 101.69 50.4445C104.713 47.862 108.304 46.9172 112.146 47.799C108.745 48.7438 106.099 51.5782 103.769 53.9717ZM104.713 43.138C103.013 45.3425 101.816 47.799 100.682 50.3185C99.5485 52.712 98.5407 55.1055 97.092 57.373C95.6433 59.6405 93.8797 61.2781 91.8011 62.9788C91.0453 63.2307 90.3524 63.4827 89.6596 63.7346C89.6596 62.4749 91.1083 61.971 91.9271 61.3411C92.7459 60.7113 93.4388 59.9554 94.0686 59.1996C95.2654 57.8139 96.0842 56.1132 96.6511 54.4126C96.7141 54.2866 96.4622 54.1607 96.3992 54.2866C95.2654 56.6171 93.5647 58.5067 91.5492 60.1444C90.8563 60.6483 90.0375 61.2152 89.4076 61.845C89.4076 61.5931 89.3446 61.4041 89.3446 61.1522C90.9193 60.1444 92.2421 58.6327 93.3128 57.121C93.3758 56.9951 93.1868 56.8691 93.1238 56.9321C91.9901 58.1918 90.7304 59.1996 89.2817 60.0814C89.2817 60.0184 89.2817 59.9554 89.2817 59.8924C89.2817 59.7665 89.2187 59.6405 89.1557 59.4515C89.1557 59.4515 89.1557 59.3886 89.0927 59.3886C89.0927 59.2626 89.0297 59.1996 88.9667 59.0736C87.5181 57.8139 85.8174 57.436 84.0538 57.499C87.455 55.7353 90.2265 53.1529 93.0609 50.5075C95.0764 48.6179 97.092 46.7283 99.2965 45.1536C101.249 43.7679 103.328 42.8231 105.469 41.8783C105.28 42.4452 104.776 43.138 104.713 43.138ZM61.9455 65.3723C62.0085 65.3093 62.1345 65.3093 62.1345 65.1833C62.1975 65.1203 62.1974 65.0573 62.2604 64.9944C64.213 63.3567 66.3545 62.3489 68.937 62.034C71.5194 61.719 74.1019 62.097 76.6214 62.3489C80.7155 62.7898 85.1245 62.7898 88.4628 60.2074C88.5888 63.1677 88.1479 65.8132 86.3843 68.3326C85.2505 69.9703 83.6129 71.293 81.8492 72.3008C81.7862 72.3008 81.7233 72.3638 81.6603 72.4268C80.7785 72.9307 79.8337 73.3716 78.8889 73.6865C75.8655 74.8202 72.5902 75.0722 69.5039 74.3793C67.8662 74.0014 66.2916 73.2456 64.9689 72.1748C64.0871 71.482 63.7091 70.5372 63.1423 69.7183C63.1423 69.5924 63.1423 69.5294 63.1423 69.4034C63.2682 68.0177 62.7643 66.569 61.9455 65.3723ZM83.7388 60.3334C81.7862 60.5853 79.8967 60.7743 77.9441 60.8372C81.4084 59.2626 84.9356 57.058 88.0849 59.4515C86.1323 60.9632 83.8019 61.4671 81.3454 61.5301C82.2272 61.3411 83.109 61.0262 83.9278 60.6483C83.9908 60.5223 83.8648 60.2704 83.7388 60.3334ZM103.202 42.0043C99.7374 43.264 96.6511 46.0984 94.0057 48.4919C90.8563 51.3263 87.833 54.4126 84.2428 56.7431C82.3532 57.121 80.4635 57.8139 78.6369 58.3808C78.322 58.4438 78.07 58.5697 77.7551 58.6327C79.5187 57.7509 81.2194 56.8691 82.8571 55.9243C82.983 55.8613 82.92 55.6723 82.794 55.7353C80.9044 56.4282 79.0148 57.0581 77.1252 57.7509C79.3298 56.4912 81.5343 55.3574 83.6759 54.0347C83.8018 53.9717 83.7389 53.7198 83.5499 53.7827C81.3454 54.6646 79.1408 55.7353 76.9993 56.7431C76.7474 56.8691 76.5584 56.9321 76.3065 57.058C76.3694 56.9951 76.4954 56.9321 76.5584 56.8691C77.8811 55.8613 79.2668 55.0425 80.5895 54.0977C80.6525 54.0347 80.5895 53.9717 80.5265 53.9717C78.196 54.6646 75.2987 55.8613 73.2201 57.5619C73.3461 57.373 73.472 57.184 73.598 56.9321C76.9363 53.6568 80.4005 50.6334 84.3687 48.1769C88.9667 45.3425 94.0686 43.327 99.3595 42.1302C100.619 41.8153 101.942 41.6264 103.265 41.4374C103.769 41.3744 104.272 41.3114 104.776 41.2484C104.209 41.5004 103.643 41.6893 103.202 42.0043ZM87.959 45.0906C87.5811 45.2796 87.1401 45.4685 86.7622 45.6575C88.0219 43.7679 88.6518 41.7523 89.1557 39.2958C89.1557 39.1699 89.0297 39.1069 88.9667 39.2329C88.2739 41.8153 86.6993 44.3977 85.0616 46.5393C84.4947 46.8542 83.9278 47.1692 83.3609 47.5471C85.5655 45.1536 86.8882 42.2562 87.707 38.9809C88.3999 36.3355 88.6518 33.5641 88.9038 30.8556C89.0297 29.4699 89.1557 28.0842 89.2817 26.6985C89.4706 24.8719 89.3447 21.9745 91.3603 21.1557C91.6122 21.4707 91.6752 22.1635 91.7382 22.3525C93.5648 30.0998 91.6122 38.0991 87.959 45.0906ZM89.4076 21.7856C89.5336 21.7226 89.7226 21.5966 89.8486 21.5336C88.9668 22.4784 88.7778 24.0531 88.5259 25.3758C88.085 28.3362 87.959 31.3595 87.5811 34.3829C86.9512 39.4848 85.3135 45.2796 81.3454 48.8698C82.9201 46.7283 84.1797 44.1458 84.9356 41.7523C84.9986 41.6264 84.8097 41.5634 84.7467 41.6893C83.7389 43.201 82.7941 44.7127 81.7233 46.1614C81.0934 47.0432 80.4006 47.862 79.7077 48.6808C79.8967 48.3029 80.0856 47.988 80.2746 47.6101C81.4083 45.4055 82.3532 43.0121 83.172 40.6815C83.235 40.5556 83.046 40.4926 82.983 40.6186C81.8493 42.5711 80.6525 44.5867 79.5188 46.5393C78.8889 47.5471 78.1961 48.6178 77.5662 49.6886C77.8811 48.9328 78.1331 48.2399 78.448 47.4841C79.4558 45.1536 80.5266 42.8231 81.5973 40.4926C81.6603 40.3666 81.4713 40.2406 81.4084 40.3666C79.8967 42.6341 78.322 45.0276 76.9993 47.6101C78.1331 44.5867 79.2668 41.5634 80.5895 38.603C80.6525 38.54 80.5265 38.477 80.4636 38.54C78.8889 40.9335 77.5662 43.201 76.6214 45.7205C76.6214 45.2796 76.6214 44.8387 76.6214 44.3978C77.6292 42.5711 78.259 40.4926 79.2668 38.666C79.3298 38.54 79.1409 38.414 79.0779 38.54C78.0701 39.6738 77.0623 40.9965 76.4324 42.3822C76.3694 42.0043 76.3065 41.6263 76.2435 41.2484C76.7474 40.3666 77.0623 39.4218 77.5662 38.477C77.6292 38.414 77.5032 38.351 77.4402 38.414C76.9363 38.9809 76.4324 39.6108 75.9915 40.3036C75.9915 40.1777 75.9286 40.0517 75.9286 39.9887C76.0545 39.7997 76.1175 39.5478 76.1804 39.3588C76.3064 39.0439 76.4324 38.729 76.4954 38.414C76.4954 38.351 76.4324 38.2881 76.3694 38.351C76.1805 38.603 75.9915 38.8549 75.8025 39.1069C75.7396 39.1699 75.7396 39.2328 75.6766 39.2958C75.5506 38.9809 75.4247 38.603 75.2987 38.2881C74.8578 37.2803 74.102 36.1465 73.0942 35.4537C73.4721 34.8238 73.8499 34.1939 74.2908 33.627C76.2434 31.0446 78.5739 28.8401 81.2194 26.8875C82.857 25.6908 84.6837 24.62 86.4473 23.6122C87.3921 22.7934 88.3998 22.2895 89.4076 21.7856ZM75.2356 40.8075C76.7473 47.6101 74.4799 55.6094 69.6929 60.5853C69.5669 60.7113 69.5669 60.7743 69.5669 60.9002C69.1259 60.9002 68.685 60.9632 68.3071 61.0262C69.063 59.7035 69.6299 58.2548 70.0078 56.7431C70.0708 56.5542 69.8188 56.5542 69.7558 56.6801C69.126 58.3178 68.2442 59.7035 67.2994 61.2152C66.8584 61.2782 66.4805 61.4041 66.1026 61.5301C67.6143 58.6957 68.5591 55.5464 69.063 52.3341C69.063 52.1451 68.811 52.0821 68.811 52.2711C67.9922 55.7983 66.5435 58.9476 64.7799 62.097C64.276 62.3489 63.8351 62.6638 63.3942 62.9788C65.7877 58.0658 66.9845 52.3341 67.1104 46.9172C67.1104 46.7912 66.9215 46.7912 66.9215 46.9172C66.1026 53.2159 64.15 58.8847 61.4416 64.6164C61.1897 64.3015 60.8748 64.0496 60.5598 63.7976C62.2605 59.7665 63.1423 55.4204 63.3942 51.0113C63.3942 50.8224 63.1423 50.8224 63.1423 51.0113C62.8273 53.2159 62.3864 55.2944 61.8196 57.436C62.3234 53.4678 61.5046 49.3737 59.3631 45.8465C59.1111 45.4685 58.9222 45.0906 58.6702 44.7757C58.7332 44.7127 58.7332 44.6497 58.7332 44.5867C59.0481 40.1777 62.0715 37.0913 66.4806 36.8394C67.2994 36.7764 67.9922 36.7134 68.811 36.4614C69.8818 36.0835 70.4487 35.3907 71.7714 35.6426C73.9129 36.1465 74.8577 39.0439 75.2356 40.8075ZM56.1508 61.782C55.7099 60.2704 55.2689 58.7587 54.7651 57.247C54.7021 57.121 54.5761 57.184 54.5761 57.31C54.8281 58.8847 55.08 60.3963 55.3949 61.971C55.143 61.971 54.891 61.908 54.6391 61.908C54.0722 59.8925 53.3794 57.8769 52.6865 55.8613C52.6235 55.7353 52.4345 55.7983 52.4975 55.9243C52.8754 57.9399 53.2534 59.8925 53.7572 61.908C53.5683 61.908 53.3163 61.908 53.1274 61.908C51.6157 58.6327 49.9781 55.6094 48.9073 52.1451C48.8443 52.0191 48.6553 52.0821 48.7183 52.2081C49.3482 55.5464 50.356 59.0736 52.1826 61.971C51.7417 62.034 51.3008 62.034 50.9229 62.097C48.9073 57.5619 47.2066 52.838 45.8839 48.051C45.8209 47.925 45.632 47.988 45.632 48.114C46.3878 53.0899 47.8995 57.7509 50.0411 62.223C49.5372 62.2859 48.9703 62.4119 48.4664 62.5379C47.4586 60.2074 46.3248 58.0029 45.569 55.6094C45.506 55.4834 45.38 55.5464 45.38 55.6723C45.758 58.0658 46.3878 60.6483 47.7106 62.7268C47.3956 62.7898 47.1437 62.8528 46.8287 62.9788C46.8287 62.9788 46.8287 62.9788 46.8287 62.9158C46.1989 61.5301 45.3171 60.3334 44.6872 59.0106C44.6242 58.9476 44.4982 59.0106 44.5612 59.0736C45.0651 60.4593 45.506 61.908 46.1989 63.1678C45.695 63.2937 45.1281 63.4827 44.6242 63.6716C43.7424 62.7898 42.7976 61.908 41.7898 61.1522C40.0262 57.499 39.0814 53.4678 39.3963 49.3737C39.7113 45.0906 41.7898 41.1225 43.7424 37.3433C46.5138 38.3511 49.4112 38.8549 51.9936 40.2406C54.4501 41.5004 56.4657 43.453 58.0404 45.6575C61.6306 50.6964 61.8825 57.436 59.3001 62.9788C58.2923 62.5379 57.2215 62.2229 56.1508 62.097C56.1508 61.908 56.1508 61.845 56.1508 61.782ZM64.7799 36.0205C64.213 36.0835 63.6462 36.2725 63.1423 36.4614C63.2052 35.8316 63.2053 35.2017 63.2682 34.5718C63.2682 34.4459 63.0793 34.4459 63.0793 34.5718C62.8903 35.3277 62.7014 36.0205 62.5124 36.7764C62.2604 36.9023 62.0085 37.0283 61.8196 37.2173C61.8825 36.3355 61.8196 35.4537 61.8196 34.6348C61.8196 34.5718 61.7565 34.5718 61.7565 34.6348C61.5676 35.6426 61.2527 36.7134 61.1267 37.7212C60.8747 37.9731 60.5598 38.2251 60.3079 38.477C60.4338 36.7764 60.3708 35.0128 60.3708 33.2491C60.3708 33.1232 60.1819 33.1232 60.1819 33.2491C59.9299 35.3907 59.489 37.5322 59.3631 39.6738C59.1741 39.9887 58.9851 40.3666 58.7962 40.7445C58.9221 37.9731 58.8592 35.1387 59.0481 32.3043C59.0481 32.2414 58.9222 32.1784 58.9222 32.3043C58.4812 34.7608 57.9144 37.3433 57.6624 39.9257C57.4735 39.2958 57.2845 38.729 57.0956 38.0991C57.2215 36.3985 57.3475 34.7608 57.5995 33.0602C57.5995 32.9972 57.4735 32.8712 57.4735 32.9972C56.9066 34.1939 56.5917 35.3907 56.4657 36.6504C56.2767 36.2095 56.0878 35.8316 55.8358 35.4537C55.8358 34.7608 55.9618 34.1309 56.0878 33.4381C56.0878 33.3121 55.9618 33.2491 55.8358 33.3751C55.5839 33.753 55.3949 34.1939 55.3319 34.5718C54.702 33.5011 53.9462 32.5563 53.1274 31.6115C55.3949 28.5251 58.4183 26.4466 62.1975 25.6278C63.5202 25.3128 65.4728 28.7141 66.1656 29.6589C67.4254 31.4855 68.1812 33.4381 68.4331 35.6426C67.2994 35.9576 65.9766 35.8316 64.7799 36.0205ZM57.3475 43.138C57.0955 42.8861 56.8436 42.5711 56.5916 42.3192C55.8988 38.792 54.0722 35.4537 51.9307 32.5563C51.8677 32.4933 51.8047 32.5563 51.8047 32.6193C53.0644 35.3907 54.0722 38.2881 55.206 41.1225C54.954 40.9335 54.7021 40.7445 54.5131 40.5556C54.5131 40.5556 54.5131 40.5556 54.5131 40.4926C54.3871 39.7368 53.8832 38.9809 53.5683 38.2881C53.1904 37.4692 52.8125 36.7134 52.3716 35.9576C52.3086 35.8946 52.2456 35.9576 52.2456 36.0205C52.4975 36.7134 52.7495 37.4692 53.0014 38.1621C53.1904 38.666 53.2534 39.1699 53.3793 39.7367C53.3793 39.7367 53.3164 39.7367 53.3164 39.6738C51.4898 38.54 49.5372 37.9101 47.5216 37.3433C47.3326 37.0283 47.0177 36.7764 46.8287 36.4614C46.7657 36.3985 46.7028 36.4614 46.7028 36.5244C46.7658 36.7134 46.8288 36.9653 46.8917 37.1543C46.4508 37.0283 45.9469 36.9024 45.506 36.7134C45.3801 36.4615 45.1911 36.2095 45.0021 35.9576C44.8132 35.6426 44.6242 35.3277 44.4352 35.0128C44.3723 34.8868 44.1833 35.0128 44.2463 35.1387C44.4353 35.5167 44.5612 35.8946 44.6872 36.2725C44.6872 36.3355 44.7502 36.3985 44.7502 36.4614C44.4352 36.3355 44.1203 36.2725 43.8054 36.1465C43.5534 35.7686 43.3015 35.3907 43.1125 35.0128C42.9236 34.6348 42.7346 34.1939 42.4197 33.879H42.3567C42.3567 34.3199 42.5456 34.7608 42.7346 35.1387C42.8606 35.5167 42.9866 35.8316 43.1125 36.2095C43.1125 36.2095 43.1125 36.2095 43.1125 36.2725C42.9866 36.5244 42.8606 36.7764 42.7346 37.0283C42.6086 36.7134 42.4197 36.3355 42.2307 36.0205C41.9158 35.4537 41.6639 34.8868 41.3489 34.3199C41.2859 34.2569 41.2229 34.3199 41.2229 34.3829C41.4749 35.0128 41.6639 35.5796 41.8528 36.2095C41.9788 36.7764 41.9788 37.4063 42.2307 37.9731V38.0361C42.1047 38.2881 41.9788 38.54 41.8528 38.729C41.3489 37.4062 40.5931 36.0835 39.9632 34.8238C39.9002 34.6978 39.7113 34.7608 39.7113 34.8868C40.0262 36.2095 40.2782 37.5952 40.7191 38.9179C40.5301 38.54 40.2782 38.1621 40.0892 37.7842C39.6483 36.6504 39.1444 35.5796 38.7665 34.5089C37.3808 30.6667 37.3178 26.4466 38.1366 22.4784C41.7898 25.8167 46.8287 27.0135 50.545 30.1628C54.4501 33.627 56.4657 38.2251 57.3475 43.138ZM39.3334 44.8387C39.2704 45.0906 39.1444 45.4055 39.0814 45.6575C38.7035 44.7757 38.1366 43.9568 37.4438 43.201C37.3808 43.138 37.2548 43.201 37.3178 43.327C37.8847 44.4607 38.3886 45.5315 38.8295 46.7283C38.7665 47.0432 38.7035 47.3581 38.6405 47.6731C38.4515 47.2322 38.1996 46.8542 38.0106 46.4763C37.4437 45.4685 36.9398 44.3977 36.4359 43.39C36.373 43.264 36.121 43.327 36.184 43.5159C36.5619 44.4607 36.9399 45.4055 37.2548 46.3503C37.4438 46.9802 37.5697 47.6101 37.7587 48.1769C37.0658 46.6653 36.184 45.2166 35.3022 43.9569C35.2392 43.8309 34.9873 43.8939 35.0503 44.0828C35.8061 46.0984 36.4989 48.2399 37.3807 50.2555C36.4359 48.2399 35.3022 46.2874 34.1684 44.5237C34.1055 44.3978 33.8535 44.4607 33.9165 44.6497C34.7353 46.5393 35.6171 48.4289 36.247 50.3815C36.247 50.4445 36.31 50.5704 36.31 50.6334C35.3022 48.7438 34.2314 46.7913 33.2236 44.9017C33.1607 44.7757 32.9717 44.9016 33.0347 44.9646C33.4756 46.0984 33.9795 47.2322 34.4204 48.3659H34.3574C33.9165 47.3581 33.4126 46.4133 32.8457 45.4685C30.0114 40.6816 26.1062 35.7686 28.3737 29.9738C28.9406 30.1628 29.5704 30.8557 29.6964 30.9816C31.0821 32.3043 32.3418 33.69 33.5386 35.2017C35.9951 38.0991 37.4438 41.5004 39.3334 44.8387ZM31.2081 44.4607C32.9087 47.1062 34.1684 49.6886 34.8613 52.775C35.1762 54.0347 35.4282 55.4834 36.058 56.7431L35.9951 56.6801C34.1055 54.3496 32.2159 52.1451 30.8302 49.4367C30.7672 49.3107 30.5782 49.4367 30.6412 49.4997C31.586 52.0191 32.8457 54.6016 34.6094 56.6801C34.4204 56.6171 34.2314 56.4912 33.9795 56.4282C28.4997 50.5704 25.7912 43.138 26.673 35.0757C26.736 34.6978 26.799 34.2569 26.862 33.879C26.799 37.6582 29.3185 41.5004 31.2081 44.4607ZM18.8627 50.6334C20.4374 51.8302 22.075 52.9639 23.8386 53.7827C22.8309 53.5938 21.8231 53.4678 20.8153 53.2789C18.4848 51.9561 16.4063 50.6334 14.5796 48.4919C13.2569 46.9172 12.3121 45.0906 11.7453 43.138C13.1939 45.9094 15.8394 47.799 18.7367 49.1217C22.7049 50.9484 26.988 51.9561 30.8302 54.0977C31.1451 54.4756 31.523 54.9165 31.8379 55.2944C30.0743 54.4126 28.1218 53.9087 26.2322 53.4048C23.6497 52.712 21.3822 51.5782 18.9887 50.4445C18.8627 50.3815 18.7368 50.5704 18.8627 50.6334ZM17.0361 52.1451C16.4692 52.2711 15.9023 52.397 15.3355 52.397C14.2647 52.2081 13.1939 52.0191 12.1232 51.7672C12.4381 51.7042 12.753 51.5782 13.068 51.5152C13.9498 51.3263 14.8316 51.3263 15.7134 51.1373C16.2173 51.5152 16.6582 51.8302 17.0361 52.1451ZM28.4367 55.6723C31.46 56.3652 34.2944 57.499 37.0028 59.0106C39.4593 60.3963 41.6638 62.2229 43.9314 63.8606C43.1125 64.1755 42.2937 64.4275 41.4749 64.7424C39.3963 65.4983 37.3178 66.3171 35.3022 67.1989H35.2392C32.9717 66.758 30.8302 66.443 28.6886 65.4982C28.4997 65.4353 28.3737 65.6872 28.5626 65.7502C30.2003 66.632 31.9639 67.4508 33.7905 67.8917C33.5386 68.0177 33.2236 68.1437 32.9717 68.3326C31.649 67.8917 30.2633 67.7028 28.9406 67.2619C27.3029 66.695 25.8542 65.7502 24.4685 64.8684C24.3425 64.8054 24.2796 64.9314 24.3426 65.0573C26.2322 66.758 28.9406 68.5846 31.586 69.1515C31.2711 69.3404 31.0191 69.4664 30.7042 69.6554C22.201 66.8839 14.7056 60.9002 11.2413 52.523C16.9101 53.9717 22.7679 54.3496 28.4367 55.6723ZM24.9094 68.2067C26.0432 68.7736 27.2399 69.2774 28.4997 69.7183C28.3737 70.2222 28.2477 70.7891 27.9958 71.293C27.9328 71.482 27.8068 71.6079 27.6808 71.7969C27.177 72.2378 26.673 72.6787 26.1691 73.1826C25.5393 73.0566 25.0984 72.7417 24.7834 71.9229C24.2166 70.6631 24.5315 69.4034 24.9094 68.2067ZM23.2088 67.2619C23.5867 67.5138 23.9646 67.7028 24.4055 67.8917C23.8387 68.5846 23.5867 69.5924 23.5867 70.5372C23.2718 70.6002 23.0198 70.6002 22.7049 70.6631C22.5789 70.6631 22.5159 70.8521 22.7049 70.9151C23.0198 70.9781 23.3348 71.0411 23.6497 71.104C23.6497 71.356 23.7127 71.5449 23.7757 71.7969C22.5159 71.7339 21.0673 71.7339 19.9335 72.1118C19.8705 72.1118 19.8705 72.2378 19.9335 72.3008C20.5634 72.4268 21.2562 72.4268 21.949 72.4897C22.7049 72.5527 23.3977 72.6157 24.1536 72.6787C24.2795 72.8677 24.3425 72.9936 24.4685 73.1196C22.3899 72.9307 20.3744 73.0566 18.2958 73.3716C18.2328 73.3716 18.2328 73.4975 18.2958 73.4975C20.4374 73.5605 22.5789 73.8125 24.6575 74.0644C23.6497 74.1274 22.7049 74.1274 21.6971 74.1904C19.4926 74.1904 17.2881 74.2534 15.0835 74.3793C14.9576 74.3793 14.9576 74.5053 15.0835 74.5683C16.9101 74.8832 18.8627 75.1352 20.8783 75.3241C20.1855 75.4501 19.5556 75.5761 18.8627 75.7021C15.2095 75.5131 11.6193 75.0092 8.02903 74.3164C7.65111 74.1904 7.33617 74.0014 6.95825 73.9384C10.5485 68.6476 16.9731 66.1911 23.2088 67.2619ZM20.1854 76.5839C24.4685 76.8358 29.4444 76.9618 33.6016 75.7021C34.7353 76.206 35.8061 76.7099 36.9399 77.2767C35.1133 78.1585 33.3496 79.1663 31.397 79.7962C31.334 79.7962 31.334 79.9222 31.397 79.9222C33.6016 79.6702 36.0581 79.1663 37.8847 77.9066C37.9477 77.9066 37.9476 77.8436 38.0106 77.7806C38.3255 77.9066 38.5775 78.0326 38.8924 78.1585C35.6801 79.7332 32.5308 81.1189 28.8776 81.3709C28.7516 81.3709 28.7516 81.5598 28.8776 81.6228C32.7827 81.8118 36.9399 81.1189 40.0892 78.6624C40.4671 78.8514 40.845 78.9774 41.2229 79.1033C38.4515 80.615 35.8691 81.9377 32.7827 82.6306C29.3815 83.3234 25.7913 83.1345 22.453 82.2527C19.1777 81.4338 16.3433 79.7332 13.6978 77.7176C12.4381 76.7728 11.1784 75.828 9.85566 75.0722C13.131 75.891 16.5952 76.3949 20.1854 76.5839ZM37.4438 76.5209C34.2314 75.0092 31.0191 73.4975 27.4289 73.2456C31.523 69.8443 36.247 67.7028 41.2859 65.8132C44.1833 64.7424 47.1437 63.7346 50.23 63.1678C52.2456 62.7898 54.1982 62.8528 56.1508 63.1048C56.2138 63.1048 56.2137 63.1678 56.2767 63.1678C61.1897 63.7976 63.4572 68.3326 61.4416 72.8047C59.615 76.8988 54.828 78.6624 50.7339 79.2293C46.0099 79.8592 41.6639 78.5365 37.4438 76.5209ZM56.0878 78.9144C57.4105 78.3475 58.6072 77.5917 59.678 76.7099C59.615 77.0878 59.615 77.5287 59.678 77.9066C59.678 78.0326 59.867 77.9696 59.93 77.9066C59.93 77.2767 60.0559 76.7098 60.3079 76.143C60.4968 75.954 60.6228 75.828 60.8117 75.6391C60.8747 76.3949 61.0637 77.0878 61.1897 77.7806C61.1897 77.8436 61.3156 77.8436 61.3156 77.7806C61.3156 76.7728 61.3786 75.828 61.4416 74.8203C61.5676 74.6313 61.6936 74.4423 61.8196 74.3164C61.9455 75.4501 62.1975 76.6469 62.4494 77.7806C62.4494 77.8436 62.5754 77.8436 62.5754 77.7806C62.7013 76.206 62.9533 74.4423 62.7013 72.8677C62.7013 72.8047 62.7014 72.8047 62.6384 72.7417C62.6384 72.6787 62.7013 72.6157 62.7013 72.4897C63.2052 74.3793 63.8351 76.2689 64.465 78.1585C64.5279 78.2845 64.6539 78.2215 64.6539 78.0956C64.339 76.143 64.0241 74.1904 63.6461 72.2378C63.8351 72.4268 64.0241 72.6787 64.276 72.8677C64.8429 74.3164 65.4728 75.7021 65.9137 77.1508C65.9767 77.3397 66.2286 77.2767 66.1656 77.0878C65.9767 75.954 65.7247 74.7573 65.3468 73.6865C65.7877 73.9384 66.1656 74.1904 66.6065 74.4423C66.7325 74.9462 67.1104 75.4501 67.3623 75.891C67.4253 75.954 67.5513 75.891 67.4883 75.828C67.3624 75.4501 67.2994 75.1352 67.2364 74.7573C67.4883 74.8832 67.7403 74.9462 67.9292 75.0722C68.1182 75.1352 68.3071 75.1982 68.5591 75.2612C68.6221 75.4501 68.6851 75.5761 68.7481 75.7651C68.8111 75.954 69.126 75.891 69.063 75.7021C69.063 75.6391 69 75.5131 69 75.4501C70.1968 75.828 71.5195 75.954 72.7792 75.954C73.913 77.5287 75.3616 78.7254 76.9993 79.6072C75.9915 81.8747 74.4168 83.1975 72.3383 84.6461C70.7006 85.7799 69.126 86.9137 68.0552 88.6143C65.2838 87.9215 62.5124 87.0396 59.867 85.9059C56.7176 84.6461 54.2612 83.3234 53.3793 79.9851C54.1982 79.6072 55.143 79.2923 56.0878 78.9144ZM73.724 75.7651C74.1649 75.7651 74.6688 75.7021 75.1097 75.6391L75.1727 75.7021C79.2038 78.4105 84.4947 80.552 89.3446 79.0403C89.4076 79.0403 89.4076 78.8514 89.3446 78.9144C84.6207 79.2923 80.7785 77.4027 76.7473 75.3871C77.0623 75.3242 77.3772 75.2612 77.6921 75.1352C78.8889 75.891 80.2746 76.2059 81.5343 76.7728C81.6603 76.8358 81.7233 76.6469 81.6603 76.5839C80.6525 76.017 79.7707 75.3242 78.8259 74.7573C79.2668 74.6313 79.6447 74.4423 80.0857 74.3164C82.2272 74.1274 84.3687 73.9384 86.5732 74.1274C89.5966 74.3164 92.557 74.8832 95.5174 75.1352C99.2336 75.4501 103.202 75.2612 106.855 74.1274C106.603 74.3164 106.351 74.5053 106.099 74.6943C102.824 77.2767 99.4225 78.9144 95.3284 79.7962C87.896 81.3709 79.3928 81.2449 73.724 75.7651ZM109.5 72.2378C107.485 72.8677 105.469 73.4975 103.328 73.8755C100.304 74.3794 97.281 74.3164 94.2576 74.0014C92.557 73.8125 90.7304 73.4975 88.8408 73.3086C87.2031 72.8047 85.3765 72.4268 83.6759 72.3638C83.8018 72.2378 83.9278 72.1748 84.1168 72.0488C85.1876 72.3008 86.2583 72.2378 87.3291 72.2378C88.5888 72.2378 89.9115 72.3638 91.1713 72.3008C91.2343 72.3008 91.2972 72.1748 91.1713 72.1118C89.9115 71.8599 88.6518 71.7969 87.3921 71.6079C86.5732 71.482 85.7544 71.293 84.9356 71.293C85.0616 71.167 85.1875 71.104 85.3135 70.9781C86.8252 71.167 88.3369 71.104 89.7856 71.167C91.5492 71.293 93.3758 71.5449 95.2024 71.482C95.3914 71.482 95.3914 71.23 95.2654 71.23C93.6907 70.7261 92.0531 70.6002 90.4155 70.4112C88.9668 70.2852 87.5181 70.1592 86.0694 70.2222C86.2583 70.0333 86.3843 69.9073 86.5103 69.7183C89.2817 69.8443 92.1161 69.9073 94.9505 69.9073C95.0135 69.9073 95.0134 69.9073 95.0134 69.8443C95.0764 69.8443 95.0764 69.7813 95.0764 69.7813H95.0134H94.9505C92.368 69.2145 89.7226 68.9625 87.0771 68.9625C87.2031 68.7735 87.3291 68.5846 87.455 68.3326C88.8408 68.3956 90.2264 68.2697 91.6121 68.2067C91.7381 68.2067 91.7381 68.0177 91.6121 67.9547C90.3524 67.8287 89.0927 67.7028 87.833 67.7028C87.8959 67.6398 87.959 67.5138 88.0219 67.3878C88.5888 67.4508 89.1557 67.3878 89.6596 67.3248C89.7856 67.3248 89.9115 67.0729 89.7225 67.0099C89.2816 66.9469 88.7778 66.884 88.3369 66.884C88.6518 66.1911 88.9038 65.4982 89.1557 64.8054C93.5648 62.7268 98.4777 62.097 103.265 62.8528C107.674 63.5457 112.713 66.0021 113.72 70.7261C112.146 70.9781 110.823 71.545 109.5 72.2378Z" fill="black"/>
<path d="M62.1973 25.5648C58.4181 26.3837 55.3947 28.4622 53.1272 31.5486C53.946 32.4934 54.6389 33.4382 55.3317 34.5089C55.4577 34.068 55.5837 33.6901 55.8356 33.3122C55.8986 33.1862 56.0876 33.2492 56.0876 33.3752C55.9616 34.005 55.8986 34.6979 55.8356 35.3907C56.0876 35.7687 56.2766 36.2096 56.4655 36.5875C56.5285 35.3278 56.9064 34.131 57.4733 32.9343C57.5363 32.8713 57.6623 32.9343 57.5993 32.9972C57.3473 34.6349 57.2214 36.3355 57.0954 38.0362C57.3473 38.603 57.5363 39.2329 57.6622 39.8628C57.8512 37.2803 58.4181 34.6979 58.922 32.2414C58.922 32.1784 59.0479 32.1784 59.0479 32.2414C58.859 35.0128 58.9849 37.8472 58.796 40.6816C58.9849 40.3037 59.1739 39.9887 59.3629 39.6108C59.4889 37.4693 59.9298 35.3278 60.1817 33.1862C60.1817 33.0602 60.3706 33.0602 60.3706 33.1862C60.4336 34.8868 60.4337 36.6505 60.3077 38.4141C60.5596 38.1621 60.8116 37.9102 61.1265 37.6583C61.2525 36.5875 61.5044 35.5797 61.7564 34.5719C61.7564 34.5089 61.8194 34.5089 61.8194 34.5719C61.8194 35.4537 61.8194 36.2725 61.8194 37.1544C62.0713 37.0284 62.3232 36.8394 62.5122 36.7135C62.7012 35.9576 62.8901 35.2648 63.0791 34.5089C63.0791 34.383 63.2681 34.4459 63.2681 34.5089C63.2051 35.1388 63.2051 35.7687 63.1421 36.3985C63.646 36.2096 64.2128 36.0206 64.7797 35.9576C65.9765 35.7687 67.2992 35.8946 68.433 35.4537C68.181 33.3122 67.4252 31.2966 66.1655 29.47C65.4726 28.6512 63.52 25.2499 62.1973 25.5648Z" fill="white"/>
<path d="M68.8112 36.4615C68.0554 36.7135 67.2996 36.7765 66.4808 36.8395C62.0717 37.0914 59.0483 40.1778 58.7334 44.5868C58.7334 44.6498 58.6704 44.7128 58.6704 44.7758C58.9224 45.1537 59.1743 45.4686 59.3632 45.8466C61.4418 49.3738 62.2606 53.4679 61.8197 57.4361C62.3866 55.3575 62.8275 53.216 63.1424 51.0114C63.1424 50.8225 63.3944 50.8225 63.3944 51.0114C63.1425 55.3575 62.2606 59.7666 60.56 63.7977C60.8749 64.0497 61.1269 64.3016 61.4418 64.6165C64.0872 58.8848 66.1028 53.216 66.9216 46.9173C66.9216 46.7913 67.1106 46.7913 67.1106 46.9173C66.9217 52.3342 65.7879 58.003 63.3944 62.9789C63.8353 62.601 64.2762 62.349 64.7801 62.0971C66.5437 58.9478 67.9924 55.7984 68.8112 52.2712C68.8742 52.0822 69.1262 52.1452 69.0632 52.3342C68.5593 55.5465 67.6145 58.6958 66.1028 61.5302C66.4807 61.4042 66.9216 61.2783 67.2995 61.2153C68.2443 59.7666 69.1262 58.3179 69.756 56.6802C69.819 56.5543 70.008 56.6173 70.008 56.7432C69.6301 58.1919 69.0631 59.7036 68.3073 61.0263C68.7482 60.9633 69.1261 60.9633 69.567 60.9003C69.567 60.7744 69.5671 60.6484 69.6931 60.5854C74.48 55.6095 76.7475 47.6102 75.2358 40.8076C74.8579 38.981 73.9131 36.1466 71.7716 35.6427C70.5118 35.3908 69.945 36.0836 68.8112 36.4615Z" fill="white"/>
<path d="M50.5448 30.2887C46.7656 27.0764 41.7266 25.9427 38.1364 22.6044C37.3176 26.5725 37.3806 30.7926 38.7663 34.6348C39.1442 35.7056 39.7111 36.8393 40.089 37.9101C40.278 38.288 40.4669 38.6659 40.7189 39.0439C40.278 37.7211 40.026 36.3354 39.7111 35.0127C39.6481 34.8868 39.9 34.7608 39.963 34.9497C40.5929 36.2095 41.3487 37.5322 41.8526 38.8549C41.9786 38.603 42.1046 38.351 42.2305 38.1621C42.2305 38.1621 42.2305 38.162 42.2305 38.0991C41.9786 37.5322 41.9786 36.9653 41.8526 36.3354C41.7267 35.7056 41.4747 35.0757 41.2228 34.5088C41.2228 34.4459 41.2858 34.3829 41.3487 34.4459C41.6637 35.0127 41.9156 35.5796 42.2305 36.1465C42.4195 36.4614 42.6084 36.7763 42.7344 37.1543C42.8604 36.9023 42.9864 36.6504 43.1124 36.3984C43.1124 36.3984 43.1124 36.3984 43.1124 36.3354C42.9864 36.0205 42.8604 35.6426 42.7344 35.2647C42.6084 34.8867 42.3565 34.4458 42.3565 34.0049C42.3565 34.0049 42.4195 33.942 42.4195 34.0049C42.7344 34.3199 42.9234 34.7608 43.1124 35.1387C43.3643 35.5166 43.5532 35.8945 43.8052 36.2725C44.1201 36.3984 44.4351 36.5244 44.75 36.5874C44.75 36.5244 44.687 36.4614 44.687 36.3984C44.561 36.0205 44.3721 35.6426 44.2461 35.2647C44.1831 35.1387 44.3721 35.0127 44.4351 35.1387C44.624 35.4536 44.813 35.7686 45.002 36.0835C45.1909 36.3355 45.3799 36.5874 45.5058 36.8393C45.9467 36.9653 46.4506 37.1543 46.8915 37.2802C46.8286 37.0913 46.7656 36.8393 46.7026 36.6504C46.7026 36.5874 46.7656 36.5244 46.8285 36.5874C47.0175 36.9023 47.3325 37.1543 47.5214 37.4692C49.537 38.0361 51.5526 38.6659 53.3162 39.7997C53.3162 39.7997 53.3792 39.7997 53.3792 39.8627C53.2532 39.3588 53.1902 38.7919 53.0013 38.288C52.7493 37.5322 52.4974 36.8393 52.2454 36.1465C52.2454 36.0835 52.3084 36.0205 52.3714 36.0835C52.8123 36.8393 53.1902 37.5952 53.5681 38.414C53.883 39.1068 54.3239 39.8627 54.5129 40.6185C54.5129 40.6185 54.5129 40.6185 54.5129 40.6815C54.7649 40.8705 55.0168 41.0594 55.2058 41.2484C54.072 38.414 53.0642 35.5796 51.8045 32.7452C51.7415 32.6822 51.8675 32.6192 51.9305 32.6822C54.072 35.5796 55.8986 38.9179 56.5915 42.4451C56.8434 42.6971 57.0954 42.949 57.3473 43.264C56.4655 38.225 54.4499 33.627 50.5448 30.2887Z" fill="white"/>
<path d="M59.3001 62.9158C61.9456 57.373 61.6306 50.6334 58.0404 45.5945C56.4657 43.39 54.3872 41.4374 51.9937 40.1777C49.3482 38.792 46.4509 38.2881 43.7425 37.2803C41.7899 41.0595 39.7743 45.0276 39.3964 49.3107C39.0814 53.4048 40.0262 57.373 41.7898 61.0892C42.7976 61.845 43.7424 62.7268 44.6242 63.6086C45.1281 63.4197 45.632 63.2937 46.1989 63.1048C45.5061 61.782 45.1281 60.3333 44.5613 59.0106C44.5613 58.9476 44.6873 58.8847 44.6873 58.9476C45.3171 60.2704 46.1989 61.5301 46.8288 62.8528C46.8288 62.8528 46.8288 62.8528 46.8288 62.9158C47.1437 62.8528 47.3957 62.7898 47.7106 62.6638C46.3879 60.5853 45.758 58.0658 45.3801 55.6094C45.3801 55.4834 45.5061 55.4204 45.569 55.5464C46.3249 57.9399 47.4587 60.1444 48.4664 62.4749C48.9703 62.3489 49.5372 62.2229 50.0411 62.16C47.8366 57.6879 46.3249 53.0269 45.6321 48.051C45.6321 47.925 45.821 47.862 45.884 47.988C47.2067 52.775 48.9073 57.4989 50.9229 62.034C51.3638 61.971 51.8047 61.908 52.1826 61.908C50.293 59.0106 49.3482 55.4834 48.7184 52.1451C48.7184 52.0191 48.9074 51.9561 48.9074 52.0821C49.9781 55.5464 51.6157 58.5697 53.1274 61.845C53.3164 61.845 53.5683 61.845 53.7573 61.845C53.2534 59.8924 52.8755 57.8769 52.4976 55.8613C52.4976 55.7353 52.6866 55.6723 52.6866 55.7983C53.3794 57.8139 54.0722 59.8295 54.6391 61.845C54.8911 61.845 55.143 61.845 55.395 61.908C55.08 60.3963 54.8281 58.8217 54.5761 57.247C54.5761 57.121 54.7021 57.0581 54.7651 57.184C55.269 58.6957 55.7099 60.2074 56.1508 61.719C56.1508 61.782 56.1508 61.908 56.1508 61.971C57.2216 62.1599 58.2294 62.4749 59.3001 62.9158Z" fill="white"/>
<path d="M29.7592 30.9186C29.6333 30.7926 28.9404 30.0997 28.4365 29.9108C26.169 35.7055 30.0742 40.6185 32.9086 45.4055C33.4755 46.3503 33.9794 47.358 34.4203 48.3028H34.4832C34.0423 47.1691 33.5384 46.0353 33.0975 44.9016C33.0345 44.7756 33.2235 44.7126 33.2865 44.8386C34.2943 46.7912 35.3651 48.6808 36.3728 50.5704C36.3728 50.5074 36.3099 50.3814 36.3099 50.3184C35.617 48.3658 34.7352 46.4762 33.9794 44.5866C33.9164 44.4607 34.1683 44.3347 34.2313 44.4607C35.365 46.2873 36.4988 48.2399 37.4436 50.1924C36.5618 48.1769 35.8689 46.0353 35.1131 44.0197C35.0501 43.8938 35.3021 43.7678 35.3651 43.8938C36.2469 45.1535 37.1287 46.6022 37.8215 48.1139C37.6326 47.484 37.5066 46.8541 37.3176 46.2873C37.0027 45.3425 36.6248 44.3977 36.2469 43.4529C36.1839 43.3269 36.4358 43.2009 36.4988 43.3269C37.0657 44.3347 37.5066 45.4055 38.0735 46.4132C38.3254 46.7912 38.5144 47.2321 38.7033 47.61C38.7663 47.2951 38.8293 46.9801 38.8923 46.6652C38.4514 45.5314 37.9475 44.3977 37.3806 43.2639C37.3176 43.2009 37.4436 43.075 37.5066 43.1379C38.1994 43.8938 38.7034 44.7126 39.1443 45.5944C39.2072 45.3425 39.2702 45.0275 39.3962 44.7756C37.5066 41.4373 36.0579 38.036 33.6014 35.0127C32.4047 33.627 31.145 32.1783 29.7592 30.9186Z" fill="white"/>
<path d="M81.2194 26.6356C78.574 28.5252 76.2435 30.7927 74.2909 33.3751C73.913 34.005 73.5351 34.5719 73.0942 35.2017C74.102 35.8946 74.9208 37.0284 75.2988 38.0361C75.4247 38.3511 75.5507 38.666 75.6767 39.0439C75.7397 38.9809 75.7396 38.918 75.8026 38.855C75.9916 38.603 76.1805 38.3511 76.3695 38.0991C76.4325 38.0361 76.5584 38.0991 76.4955 38.1621C76.3695 38.4771 76.3065 38.792 76.1805 39.1069C76.1175 39.3589 76.0546 39.5478 75.9286 39.7368C75.9286 39.8628 75.9916 39.9887 75.9916 40.0517C76.3695 39.3589 76.9364 38.792 77.4402 38.1621C77.5032 38.0991 77.5663 38.1621 77.5663 38.2251C77.0624 39.1069 76.7475 40.1147 76.2436 40.9965C76.3066 41.3744 76.3695 41.7523 76.4325 42.1303C77.0623 40.6816 78.0702 39.4219 79.078 38.2881C79.1409 38.1621 79.3299 38.2881 79.2669 38.4141C78.1961 40.2407 77.6293 42.3192 76.6215 44.1458C76.6215 44.5868 76.6215 45.0277 76.6215 45.4686C77.5663 42.9491 78.889 40.6816 80.4636 38.2881C80.5266 38.2251 80.5896 38.2881 80.5896 38.3511C79.2669 41.3114 78.1331 44.3348 76.9994 47.3582C78.3221 44.8387 79.8338 42.3822 81.4084 40.1147C81.4714 39.9887 81.6604 40.1147 81.5974 40.2407C80.5266 42.5712 79.4559 44.9017 78.4481 47.2322C78.1332 47.988 77.8182 48.6809 77.5663 49.4367C78.1961 48.3659 78.889 47.3582 79.5188 46.2874C80.7156 44.3348 81.8493 42.3822 82.9831 40.3667C83.0461 40.3037 83.1721 40.3667 83.1721 40.4296C82.3533 42.7601 81.4084 45.1536 80.2746 47.3582C80.0857 47.7361 79.8968 48.051 79.7078 48.4289C80.4007 47.6101 81.0935 46.7913 81.7234 45.9095C82.7941 44.4608 83.739 42.9491 84.7467 41.4374C84.8097 41.3744 84.9986 41.3744 84.9357 41.5004C84.1168 43.8939 82.9201 46.4764 81.3455 48.6179C85.3766 45.0906 87.0143 39.2959 87.5811 34.131C87.9591 31.1076 88.085 28.0843 88.5259 25.1239C88.7149 23.8012 88.9038 22.2265 89.8486 21.2817C89.7227 21.3447 89.5337 21.4707 89.4077 21.5337C88.3999 22.0376 87.4551 22.6045 86.4474 23.1713C84.6837 24.4311 82.8571 25.4388 81.2194 26.6356Z" fill="white"/>
<path d="M35.428 35.8316V35.8946C35.8689 36.5244 36.3098 37.0913 36.7507 37.7212C36.4988 36.3985 36.3728 35.0127 36.4358 33.627C36.4358 33.5011 36.6248 33.5011 36.6248 33.627C36.8138 35.7056 37.3176 37.6582 37.9475 39.6738C38.6404 40.8705 39.2072 42.0673 39.6481 43.264C40.6559 39.4218 37.7585 35.8946 37.0657 32.2414C36.5618 29.4699 36.5618 26.6985 37.1917 23.9901C35.1761 27.5174 34.5462 31.7374 35.428 35.8316Z" fill="white"/>
<path d="M93.124 50.5704C90.2896 53.2159 87.5182 55.7983 84.1169 57.5619C85.8806 57.436 87.6441 57.8769 89.0298 59.1366C89.0928 59.1996 89.1559 59.3256 89.1559 59.4515C89.1559 59.4515 89.2188 59.4515 89.2188 59.5145C89.2188 59.6405 89.2818 59.7665 89.3448 59.9554C89.3448 60.0184 89.3448 60.0814 89.3448 60.1444C90.7935 59.2626 92.0532 58.3178 93.1869 56.9951C93.3129 56.8691 93.5019 57.0581 93.3759 57.184C92.3052 58.7587 90.9824 60.2074 89.4078 61.2152C89.4707 61.4671 89.4708 61.6561 89.4708 61.908C90.1007 61.2782 90.9824 60.7113 91.6123 60.2074C93.6278 58.5697 95.2655 56.6801 96.4623 54.3496C96.5253 54.2237 96.7143 54.2866 96.7143 54.4756C96.1474 56.1762 95.3285 57.8769 94.1317 59.2626C93.5019 60.0184 92.8091 60.7743 91.9903 61.4041C91.1084 62.034 89.6597 62.5379 89.7227 63.7976C90.4155 63.4827 91.1084 63.2307 91.8642 63.0418C93.9428 61.4041 95.7694 59.7665 97.1551 57.436C98.5408 55.1685 99.6116 52.775 100.745 50.3815C101.879 47.862 103.139 45.4055 104.776 43.201C104.776 43.138 105.343 42.5082 105.595 41.9413C103.454 42.8861 101.312 43.8309 99.4226 45.2166C97.1551 46.7913 95.1395 48.6809 93.124 50.5704Z" fill="white"/>
<path d="M101.69 50.4444C101.375 51.2002 100.997 52.019 100.619 52.8378C100.745 52.7748 100.871 52.7749 100.997 52.7749C101.123 52.7749 101.186 52.9638 101.06 52.9638C100.808 53.0898 100.619 53.2158 100.43 53.4047L100.367 53.4677C100.304 53.6567 100.178 53.8456 100.115 54.0976C100.43 53.9716 100.745 53.7826 101.06 53.6567C101.186 53.5937 101.312 53.7826 101.186 53.9086C100.682 54.3495 100.178 54.7274 99.6116 55.1054C99.4856 55.3573 99.3596 55.6722 99.1707 55.9242C100.304 55.1054 101.627 54.4755 102.761 53.9716C102.887 53.9086 103.013 54.0976 102.887 54.1606C101.816 54.9164 100.808 55.7352 99.9265 56.617C99.8636 56.68 99.7376 56.806 99.6746 56.932C100.619 56.4281 101.564 55.8612 102.509 55.2943C102.95 54.8534 103.328 54.4125 103.769 53.9716C106.099 51.5781 108.745 48.7437 112.083 47.7989C108.304 46.9171 104.65 47.8619 101.69 50.4444Z" fill="white"/>
<path d="M26.547 35.1388C25.6651 43.2011 28.4365 50.6335 33.8534 56.4912C34.0423 56.5542 34.2943 56.6802 34.4832 56.7432C32.7196 54.6646 31.4599 52.0822 30.5151 49.5627C30.4521 49.4367 30.6411 49.3737 30.7041 49.4997C32.1527 52.2081 33.9794 54.4126 35.869 56.7432L35.9319 56.8061C35.365 55.5464 35.0501 54.0977 34.7352 52.838C34.0424 49.8146 32.7826 47.1692 31.082 44.5238C29.1924 41.5634 26.6729 37.6582 26.6099 33.942C26.6729 34.3199 26.6099 34.6979 26.547 35.1388Z" fill="white"/>
<path d="M106.099 62.5378C106.351 62.6008 106.603 62.6638 106.855 62.7898C110.508 58.8216 109.06 52.9009 111.768 48.4918C110.193 49.4996 108.682 50.5074 107.296 51.7671C105.784 53.1528 104.462 54.6015 103.013 56.0502C100.745 58.3177 97.8481 61.3411 94.5098 61.9709C94.3208 62.0969 94.1948 62.2229 94.0059 62.3489C97.2182 61.656 100.745 61.467 103.958 62.0339C104.588 61.4041 105.154 60.7742 105.595 60.0184C105.658 59.8924 105.847 59.9554 105.784 60.0813C105.532 60.8372 105.217 61.593 104.714 62.2229C104.777 62.2229 104.903 62.2859 104.966 62.2859C105.847 61.0261 106.729 59.8924 107.359 58.5067C107.422 58.3807 107.611 58.4437 107.611 58.6327C107.359 59.9554 106.918 61.3411 106.099 62.5378Z" fill="white"/>
<path d="M91.4231 21.0928C89.4076 21.9116 89.4705 24.872 89.2816 26.6986C89.1556 28.0843 89.0297 29.47 88.9037 30.8557C88.6517 33.5641 88.3998 36.3355 87.7069 38.9809C86.8881 42.2562 85.5654 45.1536 83.3608 47.5471C83.9277 47.2322 84.4946 46.8543 85.0615 46.5393C86.6992 44.3978 88.2738 41.7524 88.9667 39.2329C88.9667 39.1069 89.1556 39.1699 89.1556 39.2959C88.7147 41.7524 88.0219 43.7679 86.7621 45.6575C87.14 45.4686 87.581 45.2796 87.9589 45.0906C91.6121 38.1621 93.5647 30.1628 91.8011 22.3525C91.7381 22.1006 91.6751 21.4077 91.4231 21.0928Z" fill="white"/>
<path d="M65.0319 72.2378C66.3546 73.3086 67.9292 74.0644 69.5669 74.4424C72.7162 75.1352 75.9915 74.8203 78.9519 73.7495C79.8967 73.3716 80.8415 72.9937 81.7233 72.4898C81.7863 72.4268 81.8493 72.4268 81.9123 72.3638C83.6759 71.356 85.3136 70.0333 86.4473 68.3956C88.2109 65.8132 88.6519 63.2308 88.5259 60.2704C85.1246 62.8528 80.7785 62.8528 76.6844 62.4119C74.1649 62.16 71.5195 61.7821 69.0001 62.097C66.4176 62.4119 64.2761 63.4197 62.3235 65.0574C62.2605 65.1204 62.2605 65.1833 62.1975 65.2463C62.1345 65.3723 62.0715 65.4353 62.0085 65.4353C62.8274 66.632 63.3313 68.1437 63.2683 69.5294C63.2683 69.6554 63.2683 69.7184 63.2683 69.8443C63.7722 70.6002 64.1501 71.545 65.0319 72.2378ZM85.5025 65.7502C84.8097 68.3327 83.172 70.8521 80.6526 71.9859C80.4006 72.1119 80.0857 71.7969 80.3377 71.608C82.2902 69.8443 84.0538 68.0807 85.2506 65.6872C85.3135 65.4353 85.5025 65.5612 85.5025 65.7502ZM82.5422 67.1359C82.6052 67.0099 82.7311 67.1359 82.7311 67.2619C81.5343 69.7814 79.9597 71.8599 77.4402 73.1196C77.3142 73.1826 77.1253 72.9937 77.2513 72.9307C79.0779 71.0411 81.0305 69.2145 82.5422 67.1359ZM79.2039 69.0255C79.2668 68.9625 79.3928 69.0255 79.3298 69.0885C78.385 71.0411 76.8733 72.7417 74.9207 73.7495C74.7318 73.8755 74.4799 73.5605 74.6689 73.4346C76.1176 71.9229 77.6922 70.5372 79.2039 69.0255ZM75.8655 69.9703C75.9285 69.8443 76.1175 69.9703 76.0545 70.0963C75.4247 71.482 74.4799 73.0567 72.9682 73.5605C72.7162 73.6865 72.4643 73.2456 72.6532 73.0566C73.2201 72.5528 73.913 72.2378 74.4799 71.671C75.0468 71.1671 75.4876 70.6002 75.8655 69.9703ZM71.5195 72.6158C72.0864 72.1748 72.7162 71.7969 73.2831 71.419C73.4091 71.356 73.5351 71.545 73.4091 71.608C72.8423 72.0489 72.3384 72.5528 71.8345 73.0566C71.5195 73.2456 71.2046 72.8047 71.5195 72.6158Z" fill="white"/>
<path d="M99.3594 42.1932C94.0685 43.39 88.9666 45.4055 84.3686 48.2399C80.4004 50.6964 76.9362 53.7197 73.5979 56.995C73.4719 57.184 73.3459 57.4359 73.22 57.6249C75.2985 55.9243 78.1959 54.7275 80.5264 54.0347C80.5894 54.0347 80.6524 54.0977 80.5894 54.1606C79.2037 55.1054 77.881 55.9243 76.5583 56.9321C76.4953 56.995 76.3693 57.058 76.3063 57.121C76.5583 56.9951 76.7472 56.9321 76.9992 56.8061C79.2037 55.7983 81.3453 54.7275 83.5498 53.8457C83.6758 53.7827 83.8017 54.0347 83.6757 54.0977C81.5342 55.4204 79.3296 56.5541 77.1251 57.8139C79.0147 57.121 80.9673 56.4912 82.7939 55.7983C82.9199 55.7353 82.9829 55.9243 82.8569 55.9873C81.2193 56.9321 79.5186 57.8139 77.755 58.6957C78.0699 58.6327 78.3219 58.5067 78.6368 58.4437C80.4634 57.8769 82.353 57.184 84.2426 56.8061C87.8328 54.5386 90.8562 51.4522 94.0055 48.5549C96.651 46.1614 99.6743 43.39 103.202 42.0672C103.705 41.7523 104.209 41.5004 104.776 41.3744C104.272 41.4374 103.768 41.5004 103.265 41.5633C101.942 41.6893 100.619 41.9413 99.3594 42.1932Z" fill="white"/>
<path d="M83.8648 60.6483C83.046 61.0262 82.1642 61.3411 81.2824 61.5301C83.7389 61.4671 86.0693 60.9632 88.0219 59.4515C84.9356 57.058 81.3454 59.2625 77.8811 60.8372C79.8337 60.7742 81.7233 60.6483 83.6758 60.3333C83.8648 60.2703 83.9908 60.5223 83.8648 60.6483Z" fill="white"/>
<path d="M30.7673 69.5924C31.0822 69.4035 31.3342 69.2145 31.6491 69.0885C29.0037 68.5216 26.2952 66.758 24.4056 64.9944C24.3426 64.9314 24.4056 64.7424 24.5316 64.8054C25.9173 65.7502 27.429 66.695 29.0036 67.1989C30.3264 67.6398 31.7121 67.8288 33.0348 68.2697C33.2867 68.1437 33.6017 68.0178 33.8536 67.8288C32.027 67.3879 30.2634 66.5061 28.6257 65.6873C28.4368 65.5613 28.6257 65.3723 28.7517 65.4353C30.8933 66.3801 33.0348 66.632 35.3023 67.1359H35.3653C37.3809 66.1911 39.4594 65.4353 41.538 64.6795C42.2938 64.3645 43.1126 64.1126 43.9944 63.7977C41.7269 62.16 39.5224 60.3964 37.0659 58.9477C34.3575 57.436 31.5231 56.3023 28.4998 55.6094C22.831 54.2867 16.9102 53.9088 11.3044 52.3971C14.7687 60.7743 22.2641 66.821 30.7673 69.5924Z" fill="white"/>
<path d="M11.3674 41.1224C13.7609 47.2951 20.2485 48.3659 25.8543 50.6334C26.2323 50.7594 26.6732 50.8223 27.0511 50.9483C25.3505 50.1295 23.6498 49.3737 21.8862 48.6178C21.8232 48.5548 21.8232 48.4919 21.9492 48.4919C23.5238 48.9957 25.0985 49.4367 26.7362 49.8776C25.6654 49.3737 24.5946 48.8068 23.4609 48.3659C23.3349 48.3029 23.3979 48.1139 23.5238 48.1139C24.9725 48.4289 26.4842 48.7438 27.8699 49.1847C27.8699 49.1217 27.8069 49.0587 27.8069 49.0587C27.366 48.8698 26.9881 48.6178 26.5472 48.4289C25.9173 48.1769 25.2875 47.925 24.7206 47.673C24.5946 47.61 24.6576 47.4211 24.7836 47.4841C25.3504 47.61 25.9803 47.799 26.5472 47.925C26.7992 47.988 27.1141 48.051 27.366 48.051C27.303 47.925 27.24 47.799 27.24 47.673C27.1141 47.61 26.9251 47.4841 26.7991 47.4211C26.5472 47.2321 26.2323 47.1691 25.9173 47.1062C25.8544 47.1062 25.8543 46.9802 25.9803 46.9802C26.3582 47.0432 26.6732 47.1062 27.0511 47.1062C26.9881 46.9802 26.9251 46.8542 26.9251 46.6652C26.8621 46.6023 26.7991 46.6023 26.7362 46.5393C26.6102 46.4763 26.6732 46.2873 26.7991 46.3503C26.4842 45.4055 26.2322 44.4607 26.0433 43.5159C23.9647 42.0042 21.1933 42.0042 18.7369 41.7523C16.2174 41.5633 13.8239 41.3114 11.3674 41.1224Z" fill="white"/>
<path d="M50.734 79.2293C54.8911 78.6624 59.6151 76.8988 61.4417 72.8046C63.4573 68.3326 61.1897 63.8606 56.2768 63.1677C56.2138 63.1677 56.2138 63.1677 56.1508 63.1047C54.1983 62.7898 52.2457 62.7898 50.2301 63.1677C47.1437 63.7346 44.1834 64.6794 41.286 65.8131C36.3101 67.6397 31.5231 69.7813 27.429 73.2456C31.0192 73.4975 34.1685 75.0092 37.4438 76.5208C41.6639 78.5364 46.01 79.8591 50.734 79.2293ZM53.1905 74.8202C53.7573 75.2611 54.3872 75.639 55.0171 76.017C55.332 76.2059 55.0171 76.5838 54.7021 76.3949C54.1352 75.954 53.6314 75.4501 53.0015 75.0092C52.9385 74.8832 53.0645 74.7572 53.1905 74.8202ZM49.5373 74.3793C50.923 75.0722 52.3716 75.765 53.5054 76.7728C53.7573 77.0247 53.4424 77.4027 53.1275 77.2767C51.8047 76.5208 50.608 75.4501 49.4113 74.5683C49.3483 74.5053 49.4743 74.3793 49.5373 74.3793ZM43.9314 73.3715C46.199 74.9462 48.5924 75.954 51.1749 76.8358C51.6788 77.0247 51.4898 77.7806 50.9859 77.6546C48.3405 76.8358 45.947 75.3241 43.8685 73.5605C43.7425 73.4975 43.8055 73.3085 43.9314 73.3715ZM43.3016 77.7176C40.4672 77.6546 37.6328 75.3241 35.6802 73.4345C35.5542 73.3085 35.7432 73.1826 35.8692 73.2456C37.0659 74.1904 38.3886 75.0092 39.7113 75.639C40.9081 76.2059 42.2938 76.6468 43.3645 77.3397C43.5535 77.4657 43.4905 77.7176 43.3016 77.7176ZM47.8996 78.2845C44.3723 77.5286 41.223 75.4501 38.7036 72.9306C38.6406 72.8676 38.7036 72.6787 38.8295 72.7416C41.6639 74.8832 44.8132 76.2689 48.0885 77.5916C48.4665 77.7176 48.3405 78.3475 47.8996 78.2845Z" fill="white"/>
<path d="M103.202 62.9159C98.4146 62.16 93.5016 62.7899 89.0926 64.8684C88.9036 65.5613 88.6517 66.3171 88.2738 66.947C88.7147 66.947 89.2186 67.01 89.6595 67.073C89.8484 67.073 89.7855 67.3249 89.5965 67.3879C89.0926 67.4509 88.5258 67.5139 87.9589 67.4509C87.8959 67.5769 87.8329 67.6398 87.7699 67.7658C89.0296 67.7658 90.2894 67.8918 91.5491 68.0178C91.6751 68.0178 91.6751 68.2697 91.5491 68.2697C90.1634 68.3957 88.7777 68.5217 87.392 68.3957C87.266 68.5846 87.1401 68.7736 87.0141 69.0256C89.6595 68.9626 92.305 69.2775 94.8874 69.8444C94.8874 69.8444 94.8874 69.8444 94.9504 69.8444H95.0133C95.0763 69.8444 95.0134 69.9074 94.9504 69.9074C94.9504 69.9703 94.9504 69.9704 94.8874 69.9704C92.053 69.9074 89.2816 69.9074 86.4472 69.7814C86.3212 69.9704 86.1323 70.1593 86.0063 70.2853C87.455 70.2223 88.9666 70.3483 90.3523 70.4742C91.99 70.6002 93.6277 70.7262 95.2023 71.2931C95.3283 71.3561 95.3283 71.545 95.1394 71.545C93.3757 71.608 91.5491 71.2931 89.7225 71.2301C88.2108 71.1671 86.6991 71.1671 85.2504 71.0411C85.1245 71.1671 84.9985 71.2301 84.8725 71.3561C85.6913 71.419 86.5102 71.545 87.329 71.671C88.5887 71.86 89.8485 71.9229 91.1082 72.1749C91.2342 72.1749 91.1712 72.3638 91.1082 72.3638C89.8485 72.4268 88.5258 72.3009 87.266 72.3009C86.1953 72.3009 85.0615 72.3638 84.0537 72.1119C83.9277 72.2379 83.8018 72.3008 83.6128 72.4268C85.3764 72.4898 87.14 72.8677 88.7777 73.3716C90.6673 73.6236 92.4939 73.9385 94.1946 74.0645C97.2179 74.3794 100.304 74.4424 103.265 73.9385C105.343 73.5606 107.422 72.9937 109.437 72.3009C110.697 71.545 112.083 71.0411 113.594 70.8522C112.65 66.0652 107.611 63.6717 103.202 62.9159Z" fill="white"/>
<path d="M95.3285 79.7961C99.4226 78.9143 102.824 77.2767 106.099 74.6942C106.351 74.5053 106.603 74.3163 106.855 74.1274C103.202 75.1981 99.2337 75.4501 95.5174 75.1351C92.5571 74.8832 89.5337 74.3163 86.5733 74.1274C84.3688 74.0014 82.2273 74.1903 80.0857 74.3163C79.6448 74.5053 79.2669 74.6313 78.826 74.7572C79.7708 75.3241 80.6526 76.017 81.6604 76.5838C81.7864 76.6468 81.6604 76.7728 81.5344 76.7728C80.2747 76.2059 78.889 75.828 77.6922 75.1351C77.3773 75.1981 77.0624 75.2611 76.7474 75.3871C80.7786 77.4656 84.6207 79.2923 89.3447 78.9143C89.4077 78.9143 89.4707 79.0403 89.3447 79.0403C84.4948 80.552 79.2039 78.4104 75.1728 75.702C75.1098 75.702 75.1098 75.639 75.1098 75.639C74.6689 75.702 74.165 75.765 73.7241 75.765C79.3929 81.2448 87.896 81.3708 95.3285 79.7961Z" fill="white"/>
<path d="M59.7408 85.7799C62.3862 86.8507 65.1576 87.7325 67.929 88.4883C68.9998 86.7877 70.5745 85.6539 72.2122 84.5202C74.2907 83.1345 75.8654 81.7488 76.8732 79.4812C75.2355 78.5994 73.7868 77.4027 72.653 75.828C71.3933 75.828 70.0706 75.6391 68.8738 75.3241C68.8738 75.3871 68.9368 75.5131 68.9368 75.5761C68.9998 75.765 68.6849 75.828 68.6219 75.6391C68.5589 75.4501 68.4959 75.3241 68.433 75.1352C68.244 75.0722 68.055 75.0092 67.8031 74.9462C67.6141 74.8832 67.3622 74.7573 67.1103 74.6313C67.1732 75.0092 67.2362 75.3871 67.3621 75.7021C67.3621 75.765 67.2362 75.828 67.2362 75.765C66.9843 75.3241 66.6064 74.8202 66.4804 74.3163C66.1025 74.1274 65.6616 73.8755 65.2207 73.5605C65.5986 74.6943 65.9135 75.828 66.0394 76.9618C66.0394 77.1507 65.8505 77.2137 65.7875 77.0248C65.3466 75.5131 64.7167 74.1904 64.1498 72.7417C63.8979 72.5527 63.7089 72.3638 63.52 72.1118C63.8979 74.0644 64.2758 76.017 64.5278 77.9696C64.5278 78.0955 64.4018 78.1585 64.3388 78.0325C63.709 76.143 63.1421 74.2534 62.5752 72.3638C62.5752 72.4267 62.5122 72.4897 62.5122 72.6157C62.5122 72.6787 62.5122 72.6787 62.5752 72.7417C62.8271 74.3163 62.5752 76.08 62.4492 77.6546C62.4492 77.7176 62.3233 77.7176 62.3233 77.6546C62.0713 76.5839 61.8194 75.3871 61.6934 74.1904C61.5674 74.3793 61.4414 74.5683 61.3154 74.6943C61.3154 75.7021 61.1895 76.6469 61.1895 77.6546C61.1895 77.7176 61.0635 77.7806 61.0635 77.6546C60.9376 76.9618 60.7486 76.2059 60.6856 75.5131C60.5596 75.702 60.3707 75.828 60.1817 76.017C59.9298 76.5839 59.8668 77.1507 59.8038 77.7806C59.8038 77.9066 59.6148 77.9696 59.5518 77.7806C59.4888 77.3397 59.4888 76.9618 59.5518 76.5839C58.4811 77.4657 57.2843 78.2215 55.9616 78.7884C55.0798 79.1663 54.135 79.4812 53.1272 79.7332C54.135 83.1975 56.5915 84.4572 59.7408 85.7799Z" fill="white"/>
<path d="M26.1693 73.1196C26.6732 72.6157 27.1771 72.1748 27.681 71.7339C27.807 71.6079 27.9329 71.419 27.9959 71.23C28.2479 70.7261 28.3738 70.2222 28.4998 69.6553C27.2401 69.2144 26.0433 68.7106 24.9096 68.1437C24.5316 69.3404 24.2167 70.6001 24.7836 71.7969C25.0985 72.6787 25.5394 72.9936 26.1693 73.1196Z" fill="white"/>
<path d="M6.83228 73.8124C7.21019 73.9384 7.58812 74.0644 7.90305 74.1904C11.4933 74.8832 15.0835 75.3241 18.7367 75.5761C19.4296 75.4501 20.0595 75.3241 20.7523 75.1981C18.7997 75.0722 16.7842 74.7572 14.9576 74.4423C14.8316 74.4423 14.8946 74.2533 14.9576 74.2533C17.1621 74.1903 19.3666 74.1274 21.5711 74.0644C22.5159 74.0644 23.5237 74.0014 24.5315 73.9384C22.39 73.6235 20.3114 73.3715 18.1699 73.3715C18.1069 73.3715 18.0439 73.2456 18.1699 73.2456C20.2484 72.9306 22.327 72.8046 24.3426 72.9936C24.2166 72.8676 24.0906 72.6787 24.0276 72.5527C23.2718 72.4897 22.5789 72.3637 21.8231 72.3637C21.1303 72.3008 20.5004 72.3637 19.8075 72.1748C19.7445 72.1748 19.7445 72.0488 19.8075 71.9858C20.9413 71.6079 22.39 71.6079 23.6497 71.6709C23.5867 71.419 23.5237 71.23 23.5237 70.978C23.2088 70.9151 22.8938 70.8521 22.5789 70.7891C22.4529 70.7891 22.5159 70.6001 22.5789 70.5371C22.8938 70.4741 23.1458 70.4742 23.4607 70.4112C23.4607 69.4664 23.7757 68.5216 24.2796 67.7657C23.9016 67.5768 23.5237 67.3248 23.0828 67.1359C16.9731 66.1911 10.5485 68.6475 6.83228 73.8124Z" fill="white"/>
<path d="M22.264 82.2527C25.6023 83.1345 29.1926 83.3235 32.5938 82.6307C35.7432 81.9378 38.3256 80.6151 41.034 79.1034C40.6561 78.9774 40.2782 78.7885 39.9003 78.6625C36.7509 81.119 32.5938 81.8118 28.6887 81.6229C28.5627 81.6229 28.5627 81.4339 28.6887 81.3709C32.3419 81.119 35.4912 79.7333 38.7035 78.1586C38.3886 78.0326 38.1366 77.9067 37.8217 77.7807C37.8217 77.8437 37.7587 77.8437 37.6957 77.9067C35.8691 79.1664 33.4126 79.7333 31.2081 79.9222C31.1451 79.9222 31.1451 79.7963 31.2081 79.7963C33.2237 79.1664 34.9243 78.1586 36.7509 77.2768C35.6802 76.7729 34.5464 76.206 33.4126 75.7021C29.2555 76.9619 24.2796 76.7729 19.9965 76.5839C16.4693 76.395 12.942 75.8911 9.54077 75.0723C10.8635 75.8281 12.1232 76.7729 13.3829 77.7177C16.1543 79.7962 18.9887 81.4339 22.264 82.2527Z" fill="white"/>
<path d="M12.186 51.7672C13.2568 52.0191 14.3276 52.2081 15.3984 52.3971C15.9653 52.3971 16.5321 52.2711 17.099 52.1451C16.6581 51.8302 16.2802 51.5153 15.8393 51.2003C14.9575 51.3263 14.0757 51.3893 13.1938 51.5782C12.8159 51.5782 12.501 51.7042 12.186 51.7672Z" fill="white"/>
<path d="M18.9888 50.4445C21.3823 51.5783 23.6498 52.775 26.2323 53.4049C28.1219 53.9088 30.1374 54.4127 31.838 55.2945C31.4601 54.9166 31.1452 54.5386 30.8303 54.0977C26.9881 51.9562 22.705 50.9484 18.7369 49.1218C15.8395 47.7991 13.1941 45.9095 11.7454 43.1381C12.3122 45.0906 13.257 46.9173 14.5798 48.4919C16.3434 50.5705 18.4219 51.9562 20.8154 53.2789C21.8232 53.4049 22.831 53.5938 23.8387 53.7828C22.0121 52.964 20.4375 51.8932 18.8628 50.6335C18.7369 50.5705 18.8628 50.3815 18.9888 50.4445Z" fill="white"/>
<path d="M43.3645 77.4026C42.2938 76.6468 40.9081 76.2689 39.7113 75.702C38.3256 75.0721 37.0659 74.2533 35.8692 73.3085C35.7432 73.2455 35.5542 73.3715 35.6802 73.4975C37.6328 75.3871 40.4042 77.7176 43.3016 77.7805C43.4905 77.7176 43.5535 77.4656 43.3645 77.4026Z" fill="black"/>
<path d="M48.0884 77.5916C44.8131 76.2689 41.6638 74.8831 38.8294 72.7416C38.7034 72.6786 38.6404 72.8046 38.7034 72.9306C41.2229 75.45 44.3722 77.5286 47.8994 78.2844C48.3403 78.3474 48.4663 77.7176 48.0884 77.5916Z" fill="black"/>
<path d="M50.9227 77.6546C51.4266 77.7806 51.6156 77.0248 51.1117 76.8358C48.5292 75.954 46.1358 74.9462 43.8682 73.3715C43.8053 73.3085 43.6793 73.4345 43.7423 73.4975C45.8838 75.3241 48.2773 76.8358 50.9227 77.6546Z" fill="black"/>
<path d="M53.1274 77.2767C53.4423 77.4657 53.7573 77.0248 53.5053 76.7728C52.3716 75.765 50.9229 75.0092 49.5372 74.3793C49.4742 74.3164 49.3482 74.4423 49.4112 74.5053C50.6709 75.5131 51.8047 76.5209 53.1274 77.2767Z" fill="black"/>
<path d="M54.702 76.3948C54.954 76.6468 55.2689 76.2059 55.017 76.0169C54.3871 75.639 53.8202 75.2611 53.1904 74.8202C53.0644 74.7572 52.9384 74.9461 53.0644 75.0091C53.6313 75.45 54.1351 75.8909 54.702 76.3948Z" fill="black"/>
<path d="M80.3375 71.5449C80.0856 71.7339 80.4005 72.0488 80.6524 71.9229C83.1719 70.7891 84.8095 68.2696 85.5024 65.6872C85.5654 65.5612 85.3134 65.4352 85.2504 65.5612C84.0537 68.0177 82.2901 69.7813 80.3375 71.5449Z" fill="black"/>
<path d="M77.2514 72.8677C77.1254 72.9937 77.2514 73.1826 77.4403 73.0566C79.8968 71.7339 81.5345 69.7184 82.7312 67.1989C82.7942 67.0729 82.6683 67.0099 82.5423 67.0729C81.0306 69.2145 79.078 71.0411 77.2514 72.8677Z" fill="black"/>
<path d="M74.8579 73.7494C76.8105 72.7417 78.3222 71.041 79.267 69.0884C79.33 69.0255 79.204 68.8995 79.1411 69.0255C77.6924 70.5371 76.1177 71.9858 74.606 73.4345C74.417 73.6235 74.669 73.8754 74.8579 73.7494Z" fill="black"/>
<path d="M72.9683 73.5605C74.48 72.9936 75.4248 71.482 76.0547 70.0962C76.1177 69.9703 75.9287 69.8443 75.8657 69.9703C75.4878 70.6001 75.0469 71.167 74.48 71.6709C73.9131 72.1748 73.2832 72.5527 72.6534 73.0566C72.4644 73.2456 72.7164 73.6235 72.9683 73.5605Z" fill="black"/>
<path d="M71.7713 72.9937C72.3382 72.5528 72.8421 72.0489 73.346 71.545C73.472 71.482 73.283 71.2931 73.22 71.3561C72.6532 71.797 72.0233 72.1749 71.4564 72.5528C71.2044 72.8047 71.5194 73.2456 71.7713 72.9937Z" fill="black"/>
</g>
<defs>
<filter id="filter0_d" x="0" y="0" width="120.129" height="99" filterUnits="userSpaceOnUse" color-interpolation-filters="sRGB">
<feFlood flood-opacity="0" result="BackgroundImageFix"/>
<feColorMatrix in="SourceAlpha" type="matrix" values="0 0 0 0 0 0 0 0 0 0 0 0 0 0 0 0 0 0 127 0"/>
<feOffset dy="4"/>
<feGaussianBlur stdDeviation="2.5"/>
<feColorMatrix type="matrix" values="0 0 0 0 0 0 0 0 0 0 0 0 0 0 0 0 0 0 0.29 0"/>
<feBlend mode="normal" in2="BackgroundImageFix" result="effect1_dropShadow"/>
<feBlend mode="normal" in="SourceGraphic" in2="effect1_dropShadow" result="shape"/>
</filter>
</defs>
</svg>
