<svg width="741" height="2376" viewBox="0 0 741 2376" fill="none" xmlns="http://www.w3.org/2000/svg">
<path fill-rule="evenodd" clip-rule="evenodd" d="M113.822 1882.58C122.808 1875.04 136.047 1866.49 151.507 1848.41C160.734 1838.11 170.202 1825.06 180.927 1813.51C191.652 1801.96 202.378 1790.41 211.123 1785.62C215.616 1781.85 224.844 1771.56 231.076 1763.78C235.81 1757.25 242.524 1743.96 242.524 1743.96C235.998 1739.22 245.896 1705.39 215.7 1733.28C206.713 1740.83 198.209 1742.86 209.657 1723.04C221.587 1697.72 214.58 1698.49 205.352 1708.79C188.636 1725.36 187.62 1721.11 182.352 1717.88C178.34 1716.14 183.075 1709.61 194.041 1695.3C198.775 1688.78 202.011 1683.51 208.002 1678.48L214.234 1670.7C215.972 1666.69 218.968 1664.18 222.205 1658.91C231.914 1643.11 238.868 1627.06 247.321 1609.76C252.296 1600.48 256.014 1589.7 257.993 1582.93C286.586 1525.76 302.371 1456.36 311.682 1397.5C314.866 1376.96 316.552 1357.68 315.243 1340.91C313.934 1324.14 311.367 1305.87 307.304 1288.86C305.031 1283.11 305.995 1272.09 303.963 1263.59C302.413 1249.58 298.108 1235.32 295.06 1222.56C292.012 1209.81 286.21 1196.81 283.162 1184.05C281.905 1182.55 284.66 1158.1 283.162 1159.36C280.219 1177.15 261.796 1158.59 254.789 1159.36C252.034 1159.12 249.279 1158.88 247.729 1144.86C245.697 1136.36 245.163 1126.6 239.361 1113.6C235.59 1109.11 232.594 1111.62 229.84 1111.38C227.085 1111.14 228.342 1112.63 227.861 1118.14C228.636 1125.15 227.138 1126.41 225.64 1127.66C225.64 1127.66 223.367 1121.91 222.111 1120.42C223.608 1119.16 223.849 1116.41 223.849 1116.41L226.363 1119.4C221.576 1110.65 219.544 1102.15 220.801 1103.65C223.797 1101.13 220.267 1093.89 214.224 1083.64C210.453 1079.15 206.201 1080.16 206.441 1077.41C202.912 1070.16 199.623 1060.16 196.093 1052.91C194.837 1051.41 189.809 1045.42 189.809 1045.42C187.055 1045.18 185.316 1049.19 182.561 1048.95C179.807 1048.71 177.293 1045.71 174.779 1042.72C175.02 1039.96 176.518 1038.71 175.262 1037.21C175.502 1034.45 175.743 1031.7 175.743 1031.7C173.229 1028.7 168.202 1022.71 166.945 1021.21C162.933 1019.48 160.179 1019.23 157.665 1016.24C149.883 1010.01 143.358 1005.27 136.54 988.02C135.524 983.768 122.715 971.544 121.699 967.292C113.382 951.298 103.087 942.069 92.5503 935.595C86.0252 930.861 79.5 926.126 73.2158 918.637C73.2158 918.637 73.2157 918.637 71.9588 917.139C67.895 900.129 67.8426 884.859 89.1044 879.78C91.859 880.021 89.5861 874.27 88.5702 870.018C84.0246 858.517 84.7472 850.254 89.4813 843.729C90.9791 842.472 92.4766 841.215 93.7334 842.713C109.538 852.424 127.564 852.613 141.871 863.581C153.423 874.307 169.71 878.508 182.76 887.978C184.017 889.475 187.254 884.207 190.249 881.694C191.747 880.437 198.513 882.417 201.268 882.658C209.532 883.381 217.554 886.859 218.036 881.35C218.277 878.595 218.759 873.086 217.743 868.834C214.213 861.585 206.431 855.353 194.638 847.381C176.078 837.43 157.519 827.478 137.461 818.784C129.438 815.306 122.914 810.571 116.389 805.837C108.366 802.359 99.086 797.383 90.8222 796.659C74.5355 792.458 58.4896 785.503 42.4438 778.547C22.3866 769.852 8.07915 758.885 4.54951 751.637C1.01987 744.388 -8.01898 736.658 -14.3032 729.169C-20.5875 721.68 -29.3849 711.195 -24.8917 707.424C-20.3984 703.654 -0.100819 709.594 14.6881 715.052C24.2088 717.273 33.7295 719.494 44.507 723.213C60.5528 730.169 74.0848 734.129 83.8464 733.596C90.8533 732.821 100.133 737.797 104.145 739.536C123.186 743.978 145.516 758.423 163.301 761.367C172.821 763.589 182.342 765.81 192.878 772.283C212.694 783.733 223.713 784.697 238.743 787.401C248.263 789.622 252.516 788.606 244.974 779.619C238.69 772.13 234.92 767.636 237.915 765.123C243.666 762.85 234.627 755.12 229.6 749.128C222.058 740.141 214.81 743.67 207.028 737.438C177.932 721.013 147.097 708.599 116.022 698.94C75.4255 687.06 48.0681 666.623 30.4722 645.653C15.39 627.679 7.07388 611.685 -13.5175 593.229C-18.5449 587.237 -23.5723 581.245 -19.3199 580.23C-9.55842 579.696 -14.5856 573.705 -22.6085 570.227C-38.6543 563.271 -34.1612 559.501 -43.4409 554.525C-52.7207 549.55 -66.0116 542.835 -60.2615 540.562C-60.2615 540.562 -62.7752 537.567 -65.5298 537.326C-84.571 532.883 -89.5989 526.892 -100.136 520.418C-106.661 515.684 -125.701 511.241 -124.204 509.984C-126.235 501.48 -148.032 496.796 -160.066 491.579C-168.089 488.101 -187.13 483.659 -178.384 478.873C-178.384 478.873 -186.408 475.395 -188.921 472.4C-203.469 464.187 -224.009 461.001 -240.295 456.8C-253.827 452.84 -266.102 450.378 -279.634 446.418C-291.909 443.956 -303.944 438.739 -316.219 436.276C-329.751 432.316 -344.781 429.613 -358.313 425.653C-371.845 421.693 -378.37 416.958 -398.909 413.772C-412.682 412.567 -423.219 406.094 -444.24 408.417C-446.994 408.176 -457.772 404.457 -467.293 402.236C-476.038 407.022 -485.317 402.046 -496.336 401.082C-510.35 402.631 -522.625 400.168 -537.896 400.22C-550.412 400.512 -562.928 400.805 -575.444 401.097C-592.213 402.405 -611.977 406.227 -625.991 407.776C-641.261 407.827 -657.014 413.388 -669.53 413.68C-682.769 422.236 -697.799 419.533 -712.054 423.837C-736.07 428.674 -757.813 439.261 -784.825 446.612C-794.828 449.9 -809.564 459.713 -822.803 468.269C-833.046 474.312 -847.542 481.37 -857.785 487.413C-863.535 489.686 -867.547 487.946 -873.297 490.219C-894.559 495.297 -915.821 500.375 -937.082 505.454C-957.087 512.03 -974.096 516.093 -987.869 514.887C-994.876 515.662 -1010.63 521.222 -1025.37 531.035C-1040.1 540.848 -1051.84 548.148 -1063.82 558.202C-1075.81 568.256 -1089.29 579.567 -1104.51 594.889C-1113.73 605.184 -1124.46 616.736 -1133.2 621.522C-1144.94 628.821 -1158.66 642.887 -1171.13 658.45C-1183.59 674.014 -1196.06 689.577 -1207.02 703.883C-1222.72 724.715 -1233.15 748.783 -1246.82 778.119C-1254.02 796.919 -1259.96 817.217 -1264.4 836.259L-1269.85 851.047C-1271.59 855.058 -1273.57 861.825 -1274.05 867.334C-1276.52 879.609 -1280.23 890.386 -1282.7 902.662C-1293.56 947.51 -1299.15 995.595 -1303.24 1042.42C-1304.45 1056.2 -1304.4 1071.47 -1305.6 1085.24C-1306.56 1096.26 -1306.51 1111.53 -1302.98 1118.78C-1300.18 1134.29 -1297.13 1147.05 -1296.83 1159.56C-1296.54 1172.08 -1297.51 1183.1 -1299.73 1192.62C-1299.97 1195.37 -1300.21 1198.13 -1300.69 1203.64C-1300.4 1216.15 -1300.34 1231.43 -1296.81 1238.67C-1291.49 1257.18 -1295.61 1224.9 -1292.08 1232.15C-1290.82 1233.65 -1291.36 1223.88 -1291.12 1221.13C-1289.62 1219.87 -1288.12 1218.62 -1287.1 1222.87C-1286.09 1227.12 -1282.8 1237.12 -1283.04 1239.88C-1282.51 1249.64 -1283.47 1260.66 -1276.17 1272.4C-1274.91 1273.9 -1272.88 1282.4 -1273.12 1285.16C-1272.29 1307.44 -1271.71 1332.47 -1270.64 1351.99C-1271.36 1360.26 -1270.35 1364.51 -1264.3 1374.75C-1253.71 1396.5 -1248.45 1399.73 -1238.39 1411.72C-1221.04 1435.44 -1217.02 1437.18 -1222.1 1415.92C-1223.65 1401.9 -1222.16 1400.65 -1213.36 1411.13C-1203.3 1423.11 -1197.5 1436.11 -1187.93 1453.61C-1180.87 1468.1 -1174.83 1478.35 -1180.34 1477.86C-1188.6 1477.14 -1198.36 1477.67 -1206.62 1476.95C-1209.38 1476.71 -1211.89 1473.71 -1214.65 1473.47C-1214.41 1470.72 -1214.17 1467.96 -1212.67 1466.71C-1206.92 1464.43 -1199.67 1460.9 -1195.18 1457.13C-1195.18 1457.13 -1196.19 1452.88 -1197.21 1448.63L-1199.72 1445.63C-1201.22 1446.89 -1202.72 1448.15 -1205.47 1447.91C-1212.48 1448.68 -1217.21 1455.21 -1226.73 1452.98C-1219.43 1464.73 -1213.39 1474.97 -1204.59 1485.45C-1197.29 1497.2 -1189.75 1506.18 -1182.45 1517.93C-1180.95 1516.67 -1179.46 1515.41 -1176.7 1515.65C-1171.19 1516.14 -1162.93 1516.86 -1157.42 1517.34C-1154.66 1517.58 -1152.93 1513.57 -1149.16 1518.06C-1142.87 1525.55 -1134.07 1536.04 -1126.53 1545.03C-1116.48 1557.01 -1109.42 1571.5 -1098.11 1584.98C-1089.55 1598.22 -1074.23 1613.44 -1065.91 1629.44C-1064.65 1630.94 -1057.11 1639.92 -1057.11 1639.92C-1051.6 1640.41 -1047.59 1642.15 -1036.28 1655.63C-1018.68 1676.6 -998.092 1695.05 -981.753 1714.52C-972.955 1725.01 -965.655 1736.75 -958.114 1745.74C-953.086 1751.73 -954.825 1755.74 -963.864 1748.01C-979.428 1735.55 -990.446 1734.58 -1006.79 1715.11C-1008.04 1713.61 -1012.05 1711.87 -1013.31 1710.37C-1024.09 1706.66 -1030.13 1696.41 -1038.93 1685.93C-1045.21 1678.44 -1051.26 1668.19 -1056.28 1662.2C-1066.58 1652.97 -1081.9 1637.75 -1086.16 1638.77C-1086.16 1638.77 -1088.91 1638.53 -1090.17 1637.03C-1068.8 1662.49 -1050.19 1687.72 -1032.59 1708.69C-1024.81 1714.92 -1014.27 1721.39 -1003.74 1727.87C-991.944 1735.84 -977.637 1746.8 -964.587 1756.27C-943.755 1771.98 -931.186 1786.95 -931.668 1792.46C-931.909 1795.22 -936.161 1796.23 -936.402 1798.99C-936.402 1798.99 -933.888 1801.98 -931.374 1804.98L-927.363 1806.72C-921.854 1807.2 -917.842 1808.94 -913.59 1807.92C-909.337 1806.91 -908.081 1808.41 -903.053 1814.4C-900.54 1817.39 -898.026 1820.39 -894.256 1824.88C-890.485 1829.38 -883.96 1834.11 -880.189 1838.61C-874.68 1839.09 -870.669 1840.83 -866.416 1839.81C-863.662 1840.05 -864.678 1835.8 -861.923 1836.04C-860.425 1834.78 -853.9 1839.52 -848.632 1842.75C-847.375 1844.25 -842.107 1847.49 -843.604 1848.75C-843.845 1851.5 -846.6 1851.26 -846.841 1854.01C-848.338 1855.27 -845.825 1858.27 -844.568 1859.76C-840.557 1861.5 -836.545 1863.24 -832.534 1864.98C-825.768 1866.96 -820.259 1867.44 -813.493 1869.42C-798.704 1874.88 -782.417 1879.08 -764.873 1884.78C-755.353 1887 -744.575 1890.72 -747.811 1895.99C-733.745 1909.71 -724.948 1920.2 -714.652 1929.43C-699.863 1934.88 -686.571 1941.6 -671.783 1947.06C-684.592 1934.83 -698.658 1921.11 -712.724 1907.39C-715.238 1904.39 -713.741 1903.14 -713.5 1900.38C-714.516 1896.13 -726.309 1888.16 -708.765 1893.86C-706.011 1894.1 -702.24 1898.59 -700.983 1900.09C-698.47 1903.08 -699.967 1904.34 -695.956 1906.08C-678.894 1917.29 -674.108 1926.03 -657.046 1937.24C-642.498 1945.46 -643.221 1953.72 -634.182 1961.45L-632.925 1962.95C-628.914 1964.69 -624.902 1966.43 -620.891 1968.16C-608.857 1973.38 -596.822 1978.6 -583.29 1982.56C-597.597 1971.59 -611.663 1957.87 -629.982 1945.16C-631.239 1943.67 -629.741 1942.41 -629.741 1942.41C-625.729 1944.15 -621.718 1945.89 -617.707 1947.63C-542.987 1981.92 -457.783 2007.42 -374.37 2021.66C-325.269 2031.51 -257.179 2030.53 -204.119 2026.85C-197.112 2026.07 -185.853 2024.28 -177.348 2022.25C-168.844 2020.22 -160.339 2018.19 -153.091 2014.66L-128.834 2007.07C-113.081 2001.51 -97.3285 1995.95 -80.3191 1991.88C-76.0668 1990.87 -64.326 1983.57 -64.326 1983.57C-68.0966 1979.08 -37.8482 1966.46 -30.6003 1962.93C-14.8478 1957.37 -3.34767 1952.82 4.14104 1946.54C11.6298 1940.26 17.6209 1935.23 20.8573 1929.96C24.3345 1921.94 33.0799 1917.15 47.5756 1910.09C71.1101 1910.76 91.5965 1898.68 113.822 1882.58ZM-89.0643 901.658C-90.3212 900.16 -95.5899 896.923 -95.5899 896.923C-96.8467 895.425 -95.3489 894.169 -93.8512 892.912C-92.3534 891.655 -89.5989 891.896 -88.1011 890.639C-85.5874 893.635 -83.0737 896.63 -81.8169 898.128C-83.3146 899.385 -83.5557 902.14 -85.0535 903.397L-89.0643 901.658ZM-572.91 1213.21C-567.349 1228.96 -560.289 1243.46 -565.558 1240.22C-566.815 1238.73 -569.328 1235.73 -571.842 1232.73C-574.115 1226.98 -577.885 1222.49 -581.415 1215.24C-583.206 1203.98 -583.981 1196.98 -582.002 1190.21C-579.97 1198.71 -576.44 1205.96 -572.91 1213.21ZM-836.89 1835.46C-838.147 1833.96 -839.164 1829.71 -840.421 1828.21C-837.666 1828.45 -834.911 1828.69 -832.156 1828.93C-828.386 1833.42 -823.359 1839.42 -822.102 1840.91C-822.102 1840.91 -830.124 1837.44 -836.89 1835.46ZM-666.965 1891.96C-693.788 1881.29 -712.829 1876.85 -731.87 1872.4C-737.379 1871.92 -743.905 1867.19 -750.671 1865.21C-755.939 1861.97 -760.967 1855.98 -764.978 1854.24C-768.749 1849.75 -772.519 1845.25 -776.29 1840.76C-777.788 1842.02 -780.783 1844.53 -782.281 1845.79C-783.778 1847.04 -785.276 1848.3 -785.517 1851.05C-785.758 1853.81 -791.267 1853.33 -801.804 1846.85C-808.329 1842.12 -813.597 1838.88 -820.122 1834.15C-835.927 1824.44 -839.457 1817.19 -840.473 1812.94C-838.252 1803.42 -836.032 1793.89 -833.812 1784.37C-833.571 1781.62 -833.33 1778.87 -837.341 1777.13C-857.692 1755.92 -861.996 1741.66 -876.838 1720.93C-889.165 1703.2 -883.656 1703.68 -861.326 1718.13C-850.789 1724.6 -840.253 1731.07 -830.973 1736.05C-824.448 1740.78 -823.673 1747.79 -821.4 1753.54C-816.614 1762.29 -808.832 1768.52 -797.279 1779.24C-789.497 1785.48 -780.458 1793.21 -772.917 1802.2C-763.878 1809.93 -756.096 1816.16 -749.812 1823.65C-726.707 1845.1 -695.338 1867.27 -665.226 1887.95C-654.689 1894.43 -654.93 1897.18 -666.965 1891.96ZM-205.795 1538.18C-208.79 1540.69 -212.802 1538.95 -214.059 1537.46C-214.059 1537.46 -213.577 1531.95 -212.079 1530.69C-209.084 1528.18 -204.591 1524.41 -201.595 1521.89L-198.84 1522.13C-197.583 1523.63 -197.824 1526.39 -199.563 1530.4C-199.803 1533.15 -201.542 1537.16 -205.795 1538.18Z" fill="#B1B0B1"/>
</svg>
