<svg width="753" height="463" viewBox="0 0 753 463" fill="none" xmlns="http://www.w3.org/2000/svg">
<path d="M218.86 156.672C189.237 171.971 143.014 194.432 80.188 224.055L70.4224 193.781C75.3052 185.969 83.9315 178.482 96.3013 171.32C107.043 165.786 117.46 160.09 127.551 154.23C143.827 144.79 158.313 131.607 171.008 114.68C185.657 95.7995 192.655 78.5469 192.004 62.9219L191.516 57.5508C190.54 56.5742 186.308 54.6211 178.821 51.6914C172.961 49.4128 169.706 46.9714 169.055 44.3672L171.497 34.6016L190.54 21.9062C208.769 24.8359 219.999 26.9518 224.231 28.2539C235.95 32.8112 243.111 41.112 245.715 53.1562L231.067 90.7539C224.882 92.707 220.325 97.2643 217.395 104.426C219.999 103.124 232.206 98.7292 254.016 91.2422C268.339 86.6849 280.058 80.5 289.172 72.6875C305.774 74.6406 319.934 78.5469 331.653 84.4062C332.955 85.7083 336.21 92.8698 341.418 105.891L336.047 121.027C330.514 121.353 323.678 122.004 315.54 122.98C309.029 123.957 303.333 126.236 298.45 129.816C295.52 131.444 289.661 135.188 280.872 141.047L271.106 137.629C242.46 149.999 228.137 164.81 228.137 182.062C228.137 183.69 228.3 185.318 228.625 186.945C233.183 191.503 236.601 197.688 238.879 205.5C241.158 213.312 243.437 220.962 245.715 228.449C245.715 234.309 244.413 242.284 241.809 252.375C239.205 263.768 237.74 271.743 237.415 276.301C251.086 290.949 266.223 302.993 282.825 312.434C284.452 313.41 301.705 322.036 334.583 338.312C344.023 342.87 362.577 348.404 390.247 354.914C416.614 361.099 435.819 367.772 447.864 374.934C455.351 379.165 460.396 385.676 463 394.465L459.094 410.578C453.56 414.484 446.724 416.6 438.586 416.926C430.774 417.251 425.403 418.228 422.473 419.855C404.244 417.577 391.386 416.438 383.899 416.438C368.274 416.438 349.882 409.439 328.723 395.441C312.447 383.723 296.008 372.004 279.407 360.285C266.386 351.171 246.855 337.499 220.813 319.27C211.698 337.499 199.003 353.449 182.727 367.121C161.568 385.025 143.014 395.441 127.063 398.371C117.297 400.324 107.369 402.115 97.2778 403.742C85.5591 406.021 75.7935 407.16 67.981 407.16C66.3534 407.16 61.6333 406.672 53.8208 405.695C48.6125 405.044 43.8924 405.207 39.6606 406.184C25.9888 399.673 15.8976 396.743 9.38721 397.395L0.109863 387.629L9.38721 386.164C11.9914 382.909 15.2466 381.281 19.1528 381.281C20.1294 381.281 21.106 381.444 22.0825 381.77C26.9653 375.91 35.2661 372.818 46.9849 372.492C70.7479 361.424 94.5109 350.194 118.274 338.801C145.943 324.803 167.428 309.667 182.727 293.391C165.474 277.44 142.037 266.372 112.415 260.188L105.579 243.098L146.106 238.215C154.895 236.913 174.426 243.586 204.7 258.234C212.838 243.586 216.907 229.263 216.907 215.266C216.907 215.591 215.442 206.639 212.512 188.41C212.838 184.829 213.326 179.621 213.977 172.785C213.977 171.809 215.605 166.438 218.86 156.672ZM617.079 48.2734C637.912 44.3672 652.886 43.2279 662 44.8555C665.581 43.8789 672.743 44.2044 683.485 45.832C699.11 48.4362 706.922 49.7383 706.922 49.7383C709.852 54.6211 717.827 60.6432 730.848 67.8047C741.916 73.6641 749.077 81.4766 752.333 91.2422C744.52 100.357 737.684 106.379 731.825 109.309C724.012 110.285 713.921 107.844 701.551 101.984C696.017 102.961 683.81 106.216 664.93 111.75C646.375 117.284 635.633 120.865 632.704 122.492C631.402 123.469 630.262 124.445 629.286 125.422L657.118 143L650.77 164.484C631.564 164.484 619.846 167.089 615.614 172.297C613.01 175.878 610.405 179.296 607.801 182.551C605.197 185.48 601.291 187.922 596.083 189.875C589.572 195.083 582.248 203.71 574.11 215.754L588.758 221.125L659.071 212.336C674.696 210.708 691.623 214.94 709.852 225.031C728.081 235.122 740.614 247.655 747.45 262.629L735.731 278.742C720.757 277.115 713.27 276.301 713.27 276.301C706.434 276.301 696.668 278.742 683.973 283.625C666.395 290.135 656.629 293.716 654.676 294.367C648.166 295.669 638.563 297.948 625.868 301.203C627.495 309.016 628.96 316.828 630.262 324.641C630.588 325.943 630.425 329.849 629.774 336.359C629.774 337.987 629.774 342.219 629.774 349.055C629.774 354.914 627.658 364.68 623.426 378.352C619.52 392.023 616.102 401.301 613.172 406.184C608.941 410.415 603.244 418.065 596.083 429.133C593.153 429.458 590.874 430.109 589.247 431.086C584.038 434.341 575.9 438.41 564.833 443.293C562.554 443.944 560.926 444.595 559.95 445.246C557.346 446.548 556.043 452.245 556.043 462.336C536.512 433.039 515.679 413.508 493.543 403.742C491.265 396.255 486.056 389.257 477.918 382.746C470.757 376.887 463.921 370.865 457.411 364.68C451.877 357.518 443.25 347.102 431.532 333.43C428.928 330.826 425.672 328.71 421.766 327.082L416.395 315.852L400.77 308.039C400.77 299.25 403.862 292.414 410.047 287.531C420.139 279.068 441.948 268.814 475.477 256.77C499.566 248.306 523.817 239.842 548.231 231.379L540.418 207.941C547.58 201.757 555.23 192.642 563.368 180.598C574.435 165.298 581.76 155.695 585.34 151.789C577.528 152.766 569.064 155.533 559.95 160.09C552.137 164.322 544.325 168.391 536.512 172.297C534.885 173.273 525.77 177.017 509.168 183.527C498.426 187.108 489.637 192.154 482.801 198.664L473.524 186.945C474.826 177.505 475.477 172.785 475.477 172.785C475.477 173.111 474.826 169.693 473.524 162.531L506.239 138.117L513.075 151.789C517.306 150.487 533.583 144.139 561.903 132.746C581.76 124.283 598.849 119.562 613.172 118.586C637.912 105.565 655.653 94.1719 666.395 84.4062L655.165 81.4766C648.654 83.4297 639.702 84.569 628.309 84.8945C615.614 85.2201 606.662 86.0339 601.454 87.3359C574.761 92.2188 551.812 99.2174 532.606 108.332C523.491 112.889 510.145 119.562 492.567 128.352C484.103 131.932 475.64 135.188 467.176 138.117C460.015 142.349 453.342 148.534 447.157 156.672C440.646 166.112 434.136 175.552 427.625 184.992C420.139 194.758 411.349 201.594 401.258 205.5L377.821 191.34L381.239 179.621L375.868 163.996C380.75 152.277 389.702 137.629 402.723 120.051C417.372 99.2174 426.974 84.7318 431.532 76.5938C439.019 79.849 443.739 85.3828 445.692 93.1953C447.971 103.286 449.924 109.309 451.551 111.262C484.429 93.6836 530.816 74.9661 590.711 55.1094L583.387 53.1562C577.202 51.5286 571.831 53.8073 567.274 59.9922L546.766 53.6445L502.333 56.0859L530.165 36.0664C530.165 33.7878 527.398 30.0443 521.864 24.8359C516.655 19.3021 514.051 14.582 514.051 10.6758C514.051 7.74609 515.516 4.65365 518.446 1.39844L535.047 6.28125L558.973 0.421875L578.504 2.86328L611.708 24.3477L619.032 41.9258L617.079 48.2734ZM676.649 248.957C675.672 248.632 675.021 248.469 674.696 248.469C644.097 248.469 625.054 250.096 617.567 253.352L612.684 260.188L621.473 276.301C634.168 270.767 652.56 261.652 676.649 248.957ZM585.829 315.363C570.204 316.991 545.464 321.06 511.61 327.57L510.633 322.199L586.805 294.367C585.178 280.37 582.899 270.767 579.969 265.559C558.81 272.069 527.235 282.323 485.243 296.32C475.803 299.901 461.317 304.458 441.786 309.992C462.619 332.128 480.523 348.404 495.497 358.82C516.004 373.794 537.977 383.397 561.415 387.629C571.18 380.142 578.016 370.539 581.922 358.82C584.201 352.961 586.642 341.242 589.247 323.664L585.829 315.363Z" fill="#414042"/>
</svg>
