<svg width="39" height="39" viewBox="0 0 39 39" fill="none" xmlns="http://www.w3.org/2000/svg">
<path d="M19.5 0C8.73059 0 0 8.73044 0 19.5C0 30.2696 8.73059 39 19.5 39C30.2694 39 39 30.2696 39 19.5C39 8.73044 30.2694 0 19.5 0ZM26.2397 20.5337L16.4897 26.6274C16.2924 26.7506 16.0681 26.8125 15.8438 26.8125C15.6405 26.8125 15.437 26.7619 15.2528 26.6595C14.8654 26.4447 14.625 26.0371 14.625 25.5938V13.4062C14.625 12.9629 14.8654 12.5553 15.2528 12.3405C15.6402 12.1244 16.1139 12.1375 16.4897 12.3726L26.2397 18.4663C26.5959 18.6895 26.8125 19.0799 26.8125 19.5C26.8125 19.9201 26.5959 20.3105 26.2397 20.5337Z" fill="#FAFAFA"/>
</svg>
