<svg width="63" height="58" viewBox="0 0 63 58" fill="none" xmlns="http://www.w3.org/2000/svg">
<path fill-rule="evenodd" clip-rule="evenodd" d="M62.5337 28.5109C62.3943 27.3257 62.464 26.0709 62.2549 24.816C62.1851 24.4674 62.1852 24.1189 62.0457 23.7703C61.976 23.5612 61.9063 23.1429 61.9063 22.7943C61.9063 22.5154 61.8366 22.1669 61.8366 21.888C61.7669 21.6092 61.6971 21.3303 61.5577 21.0514C61.4183 20.7029 61.2789 20.2846 61.2091 19.936C61.1394 19.7269 61.1395 19.5177 61.1395 19.3086C61.0697 19.0994 61 18.8206 61 18.7509C61.0697 18.5417 60.8606 18.4023 60.8606 18.2629C60.8606 17.984 60.7211 17.6354 60.5817 17.2869C60.4423 16.9383 60.3029 16.6594 60.3029 16.3109C60.3029 16.1714 59.9543 15.9623 60.024 15.6137C60.024 15.544 59.8846 15.2652 59.8149 15.1954C59.6057 14.9863 59.4663 14.7074 59.3269 14.4286C59.1874 14.1497 59.048 13.8709 58.9086 13.592C58.6297 13.104 58.4206 12.5463 58.072 12.0583C57.9326 11.5703 57.584 11.2914 57.3052 10.9429C57.096 10.7337 57.096 10.8034 57.096 10.9429C57.096 11.0126 57.096 11.152 57.1657 11.2217C57.4446 11.7097 57.3749 11.7097 57.096 11.5006C56.8869 11.3612 56.6777 11.2217 56.5383 11.2217C56.4686 11.2217 56.608 11.5006 56.608 11.7097C56.7474 12.128 56.4686 12.2674 56.8172 12.8252C56.8172 12.8252 56.7474 12.8252 56.6777 12.8252C56.2594 12.4069 55.9109 12.128 55.4926 11.8492L54.8652 11.152C54.7954 10.8034 54.3772 10.4549 54.168 10.176C54.0286 9.96687 53.6103 9.75773 53.6103 9.47887C53.6103 9.47887 53.4012 9.26973 53.3314 9.26973C53.0526 9.1303 52.7737 8.85144 52.5646 8.6423C52.4252 8.43315 52.2857 8.29373 52.1463 8.08459C52.0069 7.87544 51.8674 7.73601 51.6583 7.52687C51.3794 7.1783 51.1006 6.89944 50.8217 6.62059C50.8217 6.62059 50.6126 6.41144 50.4034 6.2023C50.1943 5.99315 49.9852 5.78401 49.9852 5.78401C49.7063 5.50515 49.4972 5.2263 49.2183 4.94744C48.8697 4.66858 48.5909 4.38973 48.312 4.18059C47.824 3.83201 47.1966 3.41372 46.7783 3.06515C46.4994 2.85601 46.2206 2.71658 45.872 2.50744C45.5234 2.36801 45.1749 2.22859 44.896 2.08916C44.6869 1.94973 44.4777 1.88001 44.2686 1.8103C44.0594 1.74058 43.8503 1.8103 43.92 1.67087C43.9897 1.46172 43.7109 1.46173 43.432 1.46173C43.3623 1.46173 43.2229 1.39201 43.1532 1.39201C42.5954 1.18287 41.968 1.04344 41.4103 0.904011C40.7829 0.764582 40.2251 0.555441 39.5977 0.416013C39.3886 0.346298 39.1794 0.346295 39.04 0.276581C38.9703 0.346295 38.9703 0.416013 38.9006 0.416013C38.8309 0.485727 39.1097 0.625157 39.3886 0.694871C40.016 0.834299 40.6435 1.04344 41.2709 1.25258C42.1075 1.53144 42.944 1.8103 43.7109 2.22858C44.0595 2.36801 44.3383 2.50744 44.408 2.64687C44.408 2.71658 44.5474 2.92573 44.9657 2.92573C45.0354 2.92573 45.2446 3.06515 45.3143 3.06515C45.4537 3.2743 46.2206 3.55315 46.4297 3.7623C47.0572 3.97144 47.0572 4.2503 47.5452 4.52916C47.5452 4.52916 47.6149 4.59887 47.5452 4.59887C47.4755 4.59887 47.4057 4.59887 47.2663 4.52916C46.9874 4.38973 46.7086 4.2503 46.4297 4.11087C46.1509 3.97144 45.872 3.7623 45.5932 3.69258C45.1749 3.48344 44.6869 3.34401 44.1989 3.13487C43.7109 2.99544 43.2229 2.85601 42.8046 2.71658C42.3166 2.57715 41.7589 2.50744 41.3406 2.2983C40.9223 2.2983 40.504 2.08916 40.0857 2.08916C39.7372 2.08916 39.4583 1.94973 39.1097 1.88001C38.4126 1.67087 38.064 1.60115 37.7154 1.60115C37.3669 1.60115 36.9486 1.53144 36.2514 1.60115C36.112 1.60115 35.9029 1.60115 35.6937 1.60115H34.9966C34.7875 1.60115 34.5086 1.60115 34.2994 1.67087C33.9509 1.67087 33.6023 1.74059 33.3234 1.74059C33.0446 1.8103 32.696 1.67087 32.4172 1.88001C32.3474 1.94973 31.9292 1.8103 31.6503 1.94973C31.6503 1.94973 31.5109 1.94973 31.4412 1.94973C30.8834 2.01944 30.4652 2.01944 30.0469 2.08916C29.6286 2.15887 29.28 2.2983 28.792 2.43773C28.5829 2.50744 28.2343 2.57715 28.0949 2.57715C27.6766 2.57715 27.328 2.71659 26.9097 2.7863C26.5612 2.85601 26.2126 2.99544 25.7943 3.06515C25.3063 3.13487 24.6091 3.2743 24.2606 3.48344C23.4937 3.90173 22.6572 4.11087 21.96 4.45944C21.472 4.66858 20.9143 4.87773 20.3566 5.08687C20.008 5.2263 19.6594 5.36572 19.2412 5.50515C18.8926 5.64458 18.544 5.85373 18.1257 6.06287C17.9166 6.2023 17.7772 6.2023 17.7772 6.13258C17.7772 6.06287 17.7074 6.06287 17.7074 6.06287C17.7074 6.06287 17.6377 6.06287 17.568 6.06287C17.4983 6.13258 17.4286 6.13258 17.4286 6.2023C17.3589 6.34172 17.2892 6.41144 17.2194 6.55087C17.1497 6.62058 17.0103 6.76001 16.9406 6.76001C16.4526 6.96916 16.0343 7.31772 15.616 7.59658C15.4766 7.6663 15.2674 7.80573 15.2674 7.80573C15.0583 7.73601 14.64 8.08458 14.3612 8.22401C14.2914 8.29373 14.152 8.29373 14.152 8.36344C14.0126 8.50287 13.9429 8.6423 13.8034 8.78173C13.664 8.92116 13.4549 9.06058 13.2457 9.20001C13.0366 9.33944 12.9669 9.47887 13.1063 9.47887C13.1063 9.47887 13.176 9.47887 13.176 9.54858C13.176 9.75773 13.3154 9.82744 13.1063 10.1063C12.8971 10.3852 12.6183 10.4549 12.3394 10.5943C12.2 10.664 11.8514 10.8732 11.8514 10.9429C11.6423 11.2914 11.224 11.7794 11.2937 11.9886C11.2937 12.0583 11.2937 12.1977 11.2937 12.2674C11.2937 12.3372 11.2937 12.4069 11.224 12.4766C10.6663 13.1737 10.0389 13.8709 9.48116 14.0103C9.13259 14.1497 9.20231 14.3589 9.20231 14.3589C9.27202 14.7772 8.92344 15.544 9.13259 15.8229C8.92344 16.3109 8.99315 16.5897 8.99315 16.8686C9.13258 16.7292 9.20229 16.4503 9.34172 16.52C9.48115 16.5897 9.62059 16.7292 9.89945 16.5897C9.89945 16.52 9.96915 16.3806 9.96915 16.3806C9.89943 16.3109 9.96915 16.1714 10.1086 16.032C10.736 15.544 10.736 15.1257 10.9452 14.6377C10.9452 14.568 10.9452 14.568 10.9452 14.4983C11.0149 14.4983 11.0149 14.4983 11.0846 14.4286C11.5726 14.2194 11.6423 14.1497 11.9212 13.592C11.9212 13.5223 11.9212 13.4526 11.9909 13.4526C12.2697 13.2434 12.1303 12.9646 12.4789 12.8252C12.688 12.7554 12.6183 12.9646 12.6183 13.104C12.6183 13.1737 12.6183 13.2434 12.5486 13.3132C12.4092 13.592 12.4789 13.6617 12.688 13.6617C12.9669 13.592 13.0366 13.7314 13.176 13.8012C13.2457 13.8012 13.3154 13.8012 13.3852 13.7314C13.4549 13.7314 13.4549 13.6617 13.5246 13.6617C13.5246 13.592 13.5943 13.5223 13.5246 13.5223C13.2457 13.592 13.664 12.9646 13.176 13.2434C13.2457 13.0343 13.176 12.8949 13.3154 12.6857C13.5943 12.2674 14.0126 11.8492 14.4309 11.5006C14.64 11.2914 14.9189 11.152 15.1977 10.9429C15.4069 10.8034 15.5463 10.3852 15.8252 10.5246C15.8949 10.4549 15.9646 10.3154 16.0343 10.2457C16.0343 10.1063 16.0343 10.0366 16.0343 9.89716C16.0343 9.89716 16.104 9.82744 16.104 9.75773C16.1737 9.75773 16.2434 9.68801 16.2434 9.75773C16.3131 9.75773 16.3132 9.82744 16.3132 9.82744C16.5223 9.96687 16.592 9.96687 17.1497 9.54858C17.3589 9.40916 17.568 9.26973 17.7772 9.20001C17.9166 9.20001 18.1257 9.1303 18.1954 9.06059C18.3349 8.92116 18.4743 8.78173 18.4743 8.71202C18.4743 8.57259 18.6834 8.43315 18.8926 8.29373C19.1017 8.1543 19.1714 7.94516 19.3109 7.80573C19.3806 7.73601 19.52 7.6663 19.52 7.6663C19.8686 7.73601 20.1474 7.45715 20.4263 7.24801C20.496 7.24801 20.5657 7.1783 20.6354 7.1783C20.8446 7.10858 20.7749 7.1783 20.7052 7.31773C20.5657 7.45716 20.496 7.6663 20.3566 7.80573C20.2172 8.01487 19.8686 8.29373 20.3566 8.1543C20.2172 8.29373 19.9383 8.43316 20.0777 8.50287C20.0777 8.50287 20.008 8.57258 19.9383 8.57258C19.8686 8.6423 19.7989 8.6423 19.7291 8.71202C19.3109 8.99087 18.8926 9.20001 18.544 9.54858C18.2652 9.82744 18.1954 10.0366 18.4743 10.0366C18.6137 10.0366 18.7531 10.1063 19.032 9.96687C19.1017 9.89715 19.2412 9.89716 19.3109 9.89716C19.3806 9.96687 19.52 10.0366 19.52 10.176C19.52 10.2457 19.52 10.3852 19.3806 10.5246C19.1714 10.7337 18.8926 10.9429 18.6834 11.152C18.4743 11.2914 18.2652 11.4309 18.056 11.5006C17.8469 11.5703 17.7074 11.64 17.4983 11.7794C17.3589 11.8492 17.2194 11.9886 17.1497 12.0583C17.0103 12.1977 17.1497 12.3372 16.8012 12.4766C16.592 12.5463 16.5223 12.8252 16.3132 12.8949C16.0343 13.3132 15.8252 13.3829 15.616 13.3132C15.5463 13.3132 15.4069 13.3132 15.3372 13.3132C15.2674 13.2434 15.1977 13.1737 15.128 13.104C15.128 13.104 15.0583 13.104 14.9886 13.104C14.9886 13.1737 14.9886 13.2434 14.9886 13.2434C15.1977 13.3132 15.0583 13.5223 14.9886 13.8012C14.9189 14.0103 14.7794 14.1497 14.7097 14.3589C14.5006 14.7074 14.0823 15.1257 13.8034 15.1257C13.4549 15.1954 13.176 15.6137 12.8274 15.8926C12.8274 16.032 12.5486 16.1714 12.4789 16.3806C12.4789 16.52 12.2 16.7989 11.9909 17.008C11.8514 17.2172 11.7817 17.3566 11.712 17.5657C11.5726 18.1234 11.0846 18.472 10.736 18.96C10.4571 19.0994 10.4572 19.3086 10.4572 19.5177C10.3874 19.936 10.1086 20.424 9.76001 20.7029C9.48115 20.5634 9.27201 21.4697 8.99315 21.4C8.99315 21.4697 8.92343 21.6092 8.92343 21.6789C8.92343 21.7486 8.99315 21.8183 9.06287 21.888C8.85373 22.0274 8.92344 22.0972 8.99315 22.1669C9.06286 22.2366 8.78402 23.1429 8.78402 23.2126C8.57487 23.352 8.78401 22.864 8.64458 22.864C8.57486 22.864 8.57488 22.864 8.50516 22.7943C8.36573 22.7246 8.08687 22.7246 8.01715 22.4457C8.01715 22.376 7.87773 22.3063 7.7383 22.6549C7.52916 23.1429 7.2503 22.9337 7.04116 23.4217C7.04116 23.4914 6.90172 23.4914 6.832 23.4914C6.832 23.4914 6.76231 23.4914 6.76231 23.4217C6.69259 23.4217 6.62286 23.2823 6.55315 23.352C6.34401 23.5612 6.27429 23.352 6.13486 23.352C5.92572 23.7703 5.71658 24.0492 5.57715 23.84C5.57715 23.84 5.57715 23.84 5.50744 23.84C5.43772 23.84 5.36802 23.9097 5.36802 23.9097C5.36802 24.0492 5.2983 24.1886 5.2983 24.2583C5.2983 24.3977 5.43772 24.3977 5.43772 24.4674C5.50743 24.7463 5.92573 24.6069 5.64687 25.4434C5.64687 25.5132 5.64688 25.5829 5.71659 25.5829C5.78631 25.6526 5.85602 25.6526 6.06516 25.6526V25.5829L6.13486 25.5132C6.20457 25.5132 6.27431 25.5132 6.41373 25.5829C6.41373 25.5829 6.48343 25.6526 6.48343 25.7223C6.41372 25.7223 6.34402 25.792 6.34402 25.792C6.34402 25.792 6.27429 25.792 6.13486 25.7223C5.92572 26.2103 5.71658 26.4892 5.50744 26.8377C5.29829 27.1166 5.22857 26.9074 5.08915 26.9772C5.08915 26.9772 5.08916 26.9772 5.01945 26.9772C4.88002 26.8377 4.81031 27.3954 4.67088 27.4652C4.67088 27.6046 4.60116 27.8834 4.67088 27.8834C4.88002 28.0229 4.67086 28.5806 4.74057 28.7897C4.53143 29.4869 4.88 29.8354 4.74057 30.4629C4.74057 30.5326 4.74058 30.672 4.81029 30.672C5.01944 30.7417 4.88001 31.0206 4.81029 31.16C4.67086 31.4389 4.67086 31.648 4.81029 31.7177C4.94972 31.7874 4.94973 31.9269 5.01945 32.136C5.08916 32.624 5.08916 32.624 5.36802 32.4846C5.57716 32.3452 5.64687 32.4846 5.64687 32.9029C5.50744 33.112 5.71658 33.3909 5.57715 33.6697C5.43773 33.8789 5.43773 34.3669 5.36802 34.6457C5.36802 34.7852 5.36802 34.9943 5.36802 35.2034C5.50745 35.1337 5.50744 35.3429 5.50744 35.552C5.50744 35.9006 5.57716 36.1097 5.71659 36.1794C5.71659 36.1794 5.78629 36.3189 5.78629 36.3886C5.78629 36.6674 5.78629 36.8766 5.78629 37.1554C5.78629 37.2949 5.71657 37.3646 5.78629 37.3646C5.856 37.4343 5.92573 37.504 6.06516 37.504C6.13488 37.504 6.2743 37.504 6.34402 37.4343C6.41373 37.4343 6.27431 37.0857 6.41373 37.1554C6.41373 37.1554 6.41372 37.4343 6.48343 37.5737C6.48343 37.7829 6.48343 37.9223 6.48343 38.1314C6.48343 38.6194 6.62286 39.1074 6.55315 39.5257C6.55315 39.8046 6.62286 40.1532 6.48343 40.2926L6.41373 40.5017C6.69259 41.0594 6.48344 41.0594 6.34402 41.1292C6.2743 41.1989 6.2743 41.3383 6.34402 41.4777C6.55316 41.7566 6.76231 41.9657 6.76231 42.4537C6.83202 43.0812 7.18058 42.8023 7.25029 43.36C7.25029 43.4994 7.45945 43.7086 7.45945 43.9874C7.45945 44.4057 7.59886 44.824 7.87772 45.312C8.15657 45.7303 8.08686 45.8 7.87772 45.8C7.73829 45.8 7.66858 45.8697 7.59886 45.8697C7.59886 45.8697 7.59886 46.0092 7.59886 46.0789C7.59886 46.1486 7.7383 46.2183 7.7383 46.2183C7.80802 46.2183 7.87773 46.1486 8.01715 46.2183C8.08687 46.288 8.29601 46.4274 8.29601 46.6366C8.36572 46.9154 8.43544 47.1246 8.64458 47.3337C8.78401 47.5429 8.99315 47.8914 8.99315 48.1006C8.92344 48.3097 9.272 48.6583 9.272 48.8674C9.272 49.2857 9.55086 49.2857 9.69029 49.4949C9.96915 49.9132 10.3177 50.3315 10.3177 50.7497C10.3177 50.8195 10.3874 50.9589 10.4572 51.0286C10.5966 51.3074 10.5966 51.4469 10.5269 51.5166C10.3874 51.5863 10.5269 51.656 10.6663 51.7257C10.8057 51.7954 10.9451 51.8652 11.0846 52.0743C11.224 52.2137 11.3634 52.4229 11.5029 52.5623C11.6423 52.7017 11.8514 52.9109 11.9909 52.9806C12.0606 53.0503 12.0606 52.9109 12.1303 52.8412C12.1303 52.8412 12.2 52.8412 12.2 52.7714C12.4789 52.7017 12.8274 52.7714 13.0366 52.5623C13.0366 52.5623 13.176 52.5623 13.2457 52.632C13.4549 52.8412 13.7337 53.0503 13.9429 53.2594C14.0823 53.3989 14.2217 53.608 14.3612 53.6777C14.5006 53.8172 14.64 53.8869 14.8491 53.9566C14.9189 53.9566 15.0583 54.1657 15.1977 54.3052C15.4069 54.6537 15.7554 54.9326 16.0343 55.072C16.3132 55.2114 16.5223 55.4206 16.7314 55.56C17.08 55.8389 17.08 55.8389 17.2891 55.6994C17.1497 55.3509 17.2194 55.3509 17.568 55.56C17.7772 55.6994 18.1954 55.9783 18.1954 56.048C18.2652 56.2572 18.6137 56.2572 18.6834 56.4663C18.7531 56.536 19.1017 56.7452 19.2412 56.8846C19.3806 57.024 19.4503 57.024 19.5897 57.0937C19.9383 57.2332 20.0777 57.1635 20.2869 57.1635C20.3566 57.1635 20.7051 57.1635 20.7749 57.1635C21.0537 57.3029 21.1932 57.3029 21.3326 57.1635C21.4023 57.0937 21.6114 57.0937 21.8206 57.0937C21.96 57.0937 22.0994 57.0937 22.1691 57.2332C22.3086 57.3726 22.5177 57.512 22.7269 57.512C22.7966 57.512 22.7966 57.3726 22.7269 57.3029C22.6572 56.9543 22.6572 56.9543 22.2389 56.6057C22.0297 56.4663 21.8206 56.2572 21.5417 56.1177C21.4023 56.048 21.2629 55.9086 21.1932 55.8389C21.0537 55.6297 20.7749 55.4903 20.4263 55.2812C20.1474 55.1417 19.8686 55.0023 19.6594 54.8629C19.3806 54.584 19.032 54.5143 18.7532 54.3052C18.544 54.1657 18.3349 53.9566 18.1954 53.7474C17.9863 53.608 17.7074 53.5383 17.4983 53.3989C17.4286 53.3292 17.2892 53.2595 17.2194 53.1897C16.9406 53.0503 16.7314 52.8412 16.5223 52.7017C16.3132 52.5623 16.104 52.4926 15.8949 52.3532C15.6857 52.2137 15.5463 52.0743 15.4069 51.7955C15.4069 51.7955 15.2674 51.656 15.1977 51.656C14.9886 51.5166 14.7794 51.3772 14.5006 51.2377C14.0126 50.9589 14.0126 50.9589 13.7337 50.6103C13.5246 50.3314 13.3154 50.192 13.176 50.2617C13.1063 50.3314 12.9669 50.192 12.8972 50.0526C12.8274 49.9132 12.5486 49.704 12.688 49.6343C12.8972 49.5646 12.6183 49.2857 12.5486 49.1463C12.4092 48.8675 12.2 48.728 12.0606 48.5189C11.9909 48.5886 11.8514 48.5886 11.7817 48.6583C11.712 48.728 11.7817 48.7977 11.712 48.8674C11.712 48.8674 11.6423 48.8674 11.5726 48.8674C11.5726 48.7977 11.5726 48.7977 11.5726 48.728C11.5726 48.4492 11.5726 48.1703 11.4331 47.9612C11.2937 47.6823 11.1543 47.4732 10.8754 47.0549C10.3177 46.2183 9.69029 45.4514 9.34172 44.4057C9.34172 44.4057 9.34172 44.336 9.272 44.336C9.06286 44.1966 8.99315 43.9177 8.99315 43.7086C8.92344 43.36 9.20229 43.5692 9.272 43.4994C9.272 43.4994 9.27201 43.4994 9.34172 43.4994V43.4297C9.34172 43.36 9.272 43.36 9.272 43.36C9.20229 43.36 9.2023 43.36 9.13259 43.36C9.06287 43.4297 8.92344 43.2903 8.78402 43.1509L8.99315 43.0114C8.99315 43.0114 8.99315 43.0114 9.06287 43.0114C9.13258 42.9417 9.06286 42.7326 8.99315 42.6629C8.85372 42.3143 8.92345 42.6629 8.85373 42.6629H8.78402C8.78402 42.7326 8.7143 42.7326 8.7143 42.8023C8.7143 42.5932 8.50516 42.5932 8.50516 42.3143C8.50516 42.1749 8.50515 42.1052 8.64458 42.2446C8.71429 42.3143 8.85373 42.3143 8.85373 42.3143C8.92345 42.1749 8.78401 42.1749 8.7143 42.0354C8.7143 41.896 8.64457 41.7566 8.57486 41.5474C8.50515 41.3383 8.43544 41.408 8.36573 41.4777C8.36573 41.4777 8.36573 41.5474 8.36573 41.4777C8.36573 41.5474 8.29601 41.5474 8.29601 41.5474C8.29601 41.4777 8.29601 41.4777 8.29601 41.408V41.4777C8.29601 41.1989 8.29601 40.92 8.29601 40.7109C8.29601 40.6412 8.296 40.5714 8.22629 40.5017L8.01715 39.456C7.94744 39.1074 7.87772 38.7589 7.87772 38.4103C7.87772 38.2012 7.66859 38.1314 7.80802 37.9223C7.73831 37.8526 7.66858 37.6434 7.59886 37.6434C7.45944 37.5737 7.38973 37.6434 7.38973 37.4343C7.38973 36.8766 7.18059 36.5977 7.11088 36.1794C7.11088 36.04 6.97145 35.9703 7.11088 35.9006C7.38973 35.8309 7.38973 35.8309 7.32001 35.3429C7.32001 35.064 7.32001 34.8549 7.32001 34.576C7.32001 34.2972 7.18057 34.0183 7.18057 33.7394C7.18057 33.4606 7.25029 33.1817 7.25029 32.9029C7.32001 32.5543 7.18059 32.624 7.11088 32.624C7.04116 32.624 7.04115 32.6937 6.97144 32.7634C6.90173 32.8332 6.832 32.9029 6.832 32.624C6.832 32.4846 6.83201 32.2057 6.97144 32.2057C7.04115 32.2057 7.11086 32.136 7.18057 32.0663C7.18057 32.0663 7.25029 31.9269 7.25029 31.8572C7.11086 31.648 7.45944 31.4389 7.32001 31.2297C7.18058 31.0206 7.45944 30.8812 7.38973 30.5326C7.32002 30.184 7.45943 29.6263 7.52915 29.208C7.59886 28.8594 7.52916 28.8594 7.38973 28.9989C7.2503 29.1383 7.11087 28.9989 7.04116 29.4172C6.97144 29.4172 6.97144 29.3474 6.97144 29.3474C6.97144 29.208 7.04116 28.9989 7.04116 28.9292C7.18059 28.7897 7.32002 28.5806 7.45945 28.5109C7.52916 28.4412 7.59887 28.6503 7.66858 28.72C7.80801 28.8594 7.87772 28.7897 7.94744 28.3714C8.15658 27.6743 8.15659 27.6046 7.80802 27.6046C7.66859 27.6046 7.52915 27.4652 7.32001 27.6046C7.2503 27.6743 7.11086 27.4652 7.18057 27.3257C7.32 26.9074 7.18059 26.8377 7.11088 26.768C6.97145 26.6286 7.04115 26.4194 7.18057 26.1406C7.25029 26.0709 7.32001 25.9314 7.32001 25.792C7.45944 25.3737 7.52915 24.9554 7.87772 24.816C7.94743 24.816 8.01716 24.5372 8.08687 24.3977C8.08687 24.328 8.15657 24.2583 8.22629 24.2583C8.22629 24.2583 8.296 24.3977 8.22629 24.3977C8.08686 24.7463 8.01715 25.0949 7.87772 25.4434C7.66857 26.2103 7.66858 26.6286 8.01715 26.768C8.08687 26.8377 8.15657 26.8377 8.22629 26.9772L8.36573 26.9074C8.43544 26.6983 8.50515 26.4194 8.57486 26.3497C8.784 26.1406 8.57487 25.9314 8.78402 25.7223C8.99316 25.5132 8.784 25.3737 8.92343 25.1646C8.99315 25.0252 8.99315 24.8857 9.06287 24.816C9.2023 24.6069 9.34173 24.3977 9.41144 24.1886C9.48115 23.9794 9.55086 23.7006 9.69029 23.4914C9.89944 23.0034 10.1086 22.5852 10.3177 22.1669C10.5966 21.7486 10.8057 21.2606 11.0149 20.8423C11.0846 20.6332 11.0846 20.8423 11.0846 20.8423C11.0846 21.0514 11.2937 20.8423 11.4331 20.7029C11.5029 20.6332 11.6423 20.424 11.6423 20.2846C11.6423 20.0754 11.5029 20.2846 11.3634 20.3543L11.2937 20.424C11.224 20.424 11.1543 20.4937 11.1543 20.424C11.1543 20.3543 11.224 20.2149 11.2937 20.1452C11.3634 20.0754 11.4332 20.0057 11.5029 20.0057C11.6423 19.936 11.7817 19.936 11.9212 19.6572C11.9909 19.5177 12.0606 19.3086 12.1303 19.2389C12.2697 19.0994 12.3394 18.8903 12.4091 18.8206C12.688 18.472 12.7577 18.1234 13.0366 17.8446C13.2457 17.6354 13.3851 17.3566 13.5246 17.1474C13.7337 16.9383 13.8732 16.5897 14.0823 16.4503C14.3612 16.2412 14.3611 16.032 14.5703 15.8926C14.8491 15.6137 15.128 15.4743 15.4069 15.1257C15.4069 15.1257 15.5463 15.1257 15.616 15.1257C15.6857 15.056 15.8252 14.9166 15.8252 14.9166C15.7554 14.7772 15.8252 14.6377 16.0343 14.568C16.3132 14.4983 16.2434 14.1497 16.4526 14.1497C16.592 14.1497 16.6617 14.1497 16.7314 14.1497C16.8012 14.2892 16.9406 14.1497 17.1497 13.9406C17.3589 13.7314 17.4286 13.592 17.4286 13.4526C17.4286 13.4526 17.4286 13.3132 17.4983 13.3132C17.8469 13.104 18.1257 12.8949 18.4743 12.6857C18.8229 12.4766 19.1017 12.1977 19.4503 11.9886H19.52C19.7989 12.128 20.2172 11.7097 20.6354 11.5006C20.8446 11.3612 20.8446 11.4309 20.984 11.4309C21.1234 11.5006 21.3326 11.4309 21.472 11.152C21.5417 11.0126 21.7509 10.8732 21.96 10.7337L21.8903 10.5246C22.0297 10.4549 22.1692 10.4549 22.3086 10.3852C22.5177 10.2457 22.7269 10.176 22.936 10.0366C23.0057 9.96687 23.1452 9.96687 23.1452 9.96687C23.1452 10.176 23.4937 9.96687 23.7726 9.89716C23.912 9.89716 23.9817 9.89716 23.9817 9.75773C23.912 9.54859 24.5394 9.33944 24.6789 9.20001C24.9577 9.1303 25.1669 9.1303 25.376 9.06059C25.4457 9.06059 25.7246 8.99087 25.5852 9.1303C25.5154 9.20001 25.376 9.26973 25.2366 9.26973C25.0972 9.33944 25.0274 9.47887 24.8183 9.40916C24.8183 9.40916 24.6091 9.47887 24.6091 9.54858C24.6091 9.6183 24.6092 9.6183 24.6789 9.6183C24.888 9.6183 25.0972 9.68801 25.376 9.47887C25.5852 9.47887 25.7246 9.40915 25.9337 9.33944C26.1429 9.26972 26.352 9.20001 26.4914 9.20001C26.5612 9.20001 26.9795 9.06058 26.9795 8.99087C27.1189 8.78172 27.4674 8.92116 27.6766 8.71202C27.7463 8.6423 28.1646 8.57258 28.3737 8.57258C28.5132 8.57258 28.6526 8.57258 28.792 8.50287C29.3497 8.36344 29.9074 8.22401 30.256 8.36344C30.6743 8.29373 31.0229 8.50287 31.5806 8.22401C31.72 8.1543 31.9989 8.1543 31.9989 8.29373C31.9989 8.36344 32.4869 8.36344 32.5566 8.29373C32.6263 8.1543 32.7657 8.08458 32.9052 8.22401C33.1143 8.36344 33.6023 8.29373 33.9509 8.29373C34.0206 8.29373 34.16 8.1543 34.2994 8.1543C33.9509 8.08458 34.2297 8.01487 34.4389 8.01487C34.5086 8.01487 34.5783 8.01487 34.648 8.01487C35.136 8.08459 35.5543 8.1543 36.0423 8.22401C36.2514 8.29373 36.7394 8.29373 36.8789 8.29373C37.1577 8.36344 37.3669 8.29373 37.6457 8.29373C37.9246 8.36344 38.2731 8.43316 38.552 8.50287C38.7611 8.57258 38.9703 8.57258 39.1795 8.6423C39.3886 8.71201 39.5977 8.78173 39.8069 8.85144C40.0857 8.99087 40.2949 9.1303 40.5737 9.20001C40.8526 9.33944 41.1314 9.47887 41.4103 9.54858C41.6892 9.6183 41.8983 9.82744 42.1074 9.96687C42.2469 10.0366 42.3863 10.176 42.5257 10.2457C42.6652 10.3154 42.8046 10.4549 42.8046 10.5246C42.8743 10.664 43.1532 10.664 43.1532 10.7337C43.1532 10.8732 43.2229 10.9429 43.432 11.0126C43.5017 11.0823 43.6411 11.0823 43.7806 11.152C43.92 11.2217 43.9897 11.2914 44.0595 11.3612C44.0595 11.3612 44.1989 11.4309 44.3383 11.5006C44.6172 11.64 44.7566 11.7794 44.6869 11.8492C44.6172 11.9189 44.5474 11.9886 44.4777 12.128C44.3383 12.2674 44.408 12.4766 44.7566 12.6857C44.9657 12.8949 45.3143 13.0343 45.4537 13.2434C45.5932 13.5223 45.872 13.6617 46.0812 13.8709C46.2903 14.08 46.2903 14.3589 46.6389 14.4983L46.7086 14.568C46.5692 14.6377 46.7783 14.7772 46.848 14.9166C46.848 14.9863 46.848 15.056 46.848 15.056C46.7086 15.056 46.5692 14.9863 46.4297 14.9166C46.2903 14.8469 46.2903 14.7772 46.2206 14.6377C46.1509 14.568 46.0114 14.568 46.0114 14.6377C46.0114 14.7074 45.9417 14.7772 45.8023 14.6377C45.7326 14.568 45.6629 14.4983 45.5932 14.4286C45.4537 14.3589 45.3143 14.2194 45.3143 14.4286C45.3143 14.6377 45.1052 14.7074 45.384 15.056C45.4537 15.1257 45.4537 15.1954 45.4537 15.2652C45.3143 15.544 45.5932 15.8926 45.7326 16.1714C45.872 16.3806 45.9417 16.6594 46.0812 16.9383L46.2903 17.2869L46.4297 17.7052C46.4297 17.7749 46.4995 17.8446 46.4995 17.8446C46.848 18.1234 47.1966 18.472 47.5452 18.5417C47.6846 18.5417 47.8937 18.6812 47.824 18.3326C47.824 18.2629 47.8937 18.1932 47.8937 18.1932C47.8937 18.1932 47.9634 18.1932 48.0332 18.1932C48.0332 18.1932 48.1029 18.3326 48.1029 18.4023C48.1029 18.5417 48.0332 18.6114 48.1726 18.8206C48.312 19.0994 48.4515 19.3783 48.5909 19.6572C48.6606 19.7269 48.6606 19.7966 48.7303 19.8663C48.7303 19.8663 48.8697 20.0057 48.9394 20.2149C49.0789 20.3543 49.1486 20.5634 49.1486 20.5634C49.1486 20.8423 49.288 21.1212 49.2183 21.3303C49.2183 21.4697 49.0092 21.2606 48.9394 21.1909C48.8697 21.1909 48.8 21.1212 48.7303 21.1212C48.5212 21.0514 48.5212 21.0514 48.5212 21.4C48.5212 21.5394 48.5212 21.6789 48.5212 21.6789C48.2423 21.9577 48.5212 22.4457 48.5909 22.864C48.5909 22.9337 48.6606 23.0034 48.6606 23.0034C48.5909 23.2126 48.5211 23.4914 48.6606 23.7703C48.5211 24.2583 48.5212 24.816 48.4514 25.304C48.3817 25.6526 48.3817 25.9314 48.5909 26.1406C48.6606 26.28 48.7303 26.4194 48.8 26.5589C48.8 26.6286 48.7303 26.768 48.8 26.8377C48.8 27.1166 48.7303 27.4652 48.6606 27.6046C48.5211 27.8137 48.5212 27.9532 48.5212 28.0926C48.5212 28.232 48.5909 28.3714 48.6606 28.5109C48.6606 28.5806 48.7303 28.6503 48.7303 28.6503C48.7303 28.72 48.8 28.7897 48.8 28.8594C48.8 28.9292 48.8697 29.0686 48.9394 29.0686C49.0789 29.1383 49.1486 29.4172 49.1486 29.6263C49.0789 29.9749 49.1486 30.184 49.288 30.4629C49.4274 30.672 49.3577 30.7417 49.6366 30.8114L49.7063 30.8812C49.8457 31.0206 49.9154 30.9509 49.9852 30.672C50.0549 30.5326 50.0549 30.3234 50.1246 30.2537C50.264 30.1143 50.264 29.8354 50.3337 29.7657C50.4732 29.5566 50.264 29.4172 50.3337 29.3474C50.4732 29.1383 50.3337 28.9989 50.264 28.8594C50.264 28.8594 50.264 28.72 50.3337 28.72C50.5429 28.6503 50.6126 28.5109 50.4034 28.232V28.0926C50.4731 28.0229 50.5429 27.9532 50.6126 27.9532C50.6126 27.9532 50.6823 27.9532 50.752 28.0229C50.752 28.1623 50.8217 28.3714 50.752 28.5806C50.752 28.9292 50.752 29.2777 50.8914 29.4869C50.9612 29.6263 51.0309 29.7657 51.0309 29.9052C51.0309 30.3932 51.1006 30.5326 51.3794 30.5326C51.4492 30.5326 51.5886 30.672 51.6583 30.3932C51.6583 30.2537 51.8674 30.2537 51.9372 30.1143C52.0069 29.9749 52.0069 29.696 52.0069 29.4869C52.0069 29.3474 52.0766 29.0686 52.0766 29.0686C52.2857 28.9292 52.3554 28.6503 52.4252 28.3017C52.4949 28.0229 52.704 27.8834 52.6343 27.4652C52.8434 27.3954 52.7737 27.0469 52.7737 26.8377C52.7737 26.6286 52.5646 26.5589 52.5646 26.28C52.5646 25.9314 52.3554 26.0709 52.2857 25.8617C52.216 25.5829 52.0766 25.792 52.0766 25.9314C52.0766 26.0012 52.0766 26.1406 52.0069 26.2103C52.0069 26.28 51.9371 26.3497 51.8674 26.3497C51.7977 26.2103 51.728 26.0709 51.728 26.0709C51.7977 25.6526 51.6583 25.6526 51.5189 25.5829C51.4492 25.5829 51.3794 25.5132 51.3794 25.4434C51.3097 25.1646 51.1703 24.9554 51.1006 24.6069C51.0309 24.328 50.9612 24.1189 50.9612 23.84C50.9612 23.4914 51.0309 23.352 51.0309 23.1429C51.0309 22.9337 51.1006 22.7943 51.24 22.7246C51.3794 22.5852 51.24 22.0972 51.4491 22.0274C51.4491 22.0274 51.3794 21.6789 51.3794 21.5394C51.3794 21.4 51.3794 21.1212 51.24 20.9817C51.1703 20.8423 51.1006 20.7029 51.1006 20.5634C51.1006 20.424 51.1703 20.2846 51.1703 20.1452C51.1703 20.0754 51.1703 19.8663 51.1703 19.8663C50.8914 19.6572 51.0309 19.448 50.9612 19.2389C50.9612 19.0297 50.9612 18.7509 50.8914 18.5417C50.8217 18.3326 50.752 18.0537 50.6823 17.8446C50.6126 17.6354 50.5429 17.4263 50.5429 17.2172C50.4732 16.8686 50.3337 16.5897 50.264 16.2412C50.1943 16.1017 50.1943 15.9623 50.1246 15.8229C50.1246 15.7532 50.1943 15.7532 50.1943 15.7532C50.264 15.7532 50.3337 15.8926 50.3337 15.9623C50.4035 16.1017 50.4034 16.2412 50.4731 16.3806C50.5429 16.52 50.5429 16.6594 50.6126 16.7989C50.6126 16.9383 50.8914 17.1474 50.752 17.2869C50.6126 17.4263 50.8914 17.4263 50.8914 17.5657C50.8914 17.7052 50.9612 17.984 51.0309 18.1932C51.1006 18.472 51.24 18.6114 51.3097 18.7509C51.3794 18.96 51.5189 19.1692 51.6583 19.3783C51.7977 19.5874 51.8674 19.7966 52.0766 19.936C52.1463 20.0057 52.1463 20.1452 52.1463 20.2149C52.0766 20.7029 52.0766 21.1909 52.0069 21.6092C52.0069 21.6789 51.9372 21.7486 52.0069 21.8183C52.2857 22.0274 52.2857 22.5154 52.4252 22.864C52.2857 23.0732 52.4949 23.1429 52.4949 23.2823C52.5646 23.4914 52.5646 23.7006 52.6343 23.9794C52.6343 24.0492 52.704 24.1189 52.704 24.1886C52.8434 24.2583 52.9829 24.3977 53.0526 24.4674C53.192 24.4674 53.2617 24.328 53.192 24.0492V23.9794C53.2617 23.9794 53.2617 23.9794 53.3314 23.9794C53.3314 23.9794 53.4012 24.0492 53.4012 24.1189C53.4012 24.4674 53.4709 24.816 53.3314 25.0252C53.192 25.3737 53.4011 25.792 53.2617 26.0709C53.192 26.2103 53.192 26.5589 53.0526 26.5589C52.8434 26.6286 52.9132 26.8377 52.9829 27.0469C53.0526 27.1863 53.0526 27.1863 52.9829 27.3954C52.9132 27.6046 52.7737 27.8834 52.704 28.0926C52.6343 28.3017 52.4949 28.5806 52.4252 28.7897C52.2857 29.0686 52.216 29.4172 52.216 29.7657C52.216 29.8354 52.1463 29.9749 52.1463 30.0446C52.0069 30.3234 51.8674 30.6023 51.728 30.8812C51.5886 31.16 51.3794 31.2994 51.4491 31.7177C51.4491 31.7874 51.3794 31.8572 51.3794 31.9269C51.1703 32.136 51.0309 32.3452 50.8217 32.3452C50.6823 32.3452 50.4034 32.4846 50.1943 32.624C50.0549 32.6937 49.9852 32.7634 49.8457 32.8332C49.6366 32.9029 49.5669 32.7634 49.7063 32.4149C49.7063 32.3452 49.776 32.2754 49.776 32.2057C49.8457 32.4846 49.9154 32.2057 49.9154 32.0663C49.9154 31.9269 49.8457 31.7874 49.776 31.7177L49.6366 31.7874L49.5669 31.9269C49.7063 32.136 49.5669 32.4846 49.5669 32.7634C49.5669 32.9029 49.5669 33.112 49.4274 33.112C49.2183 33.1817 49.2183 33.2514 49.2183 33.5303C49.2183 33.6697 49.1486 33.8789 49.0091 33.9486C48.8 34.088 48.5211 34.2972 48.312 34.3669C48.0331 34.4366 47.8937 34.7154 47.6846 34.8549C47.6149 34.9246 47.6149 34.9246 47.5452 34.9943C47.5452 35.064 47.5451 35.1337 47.6149 35.1337C47.7543 35.2034 47.824 35.3429 47.6846 35.552C47.6149 35.6914 47.6149 35.7612 47.6846 35.7612C47.7543 35.7612 47.824 35.8309 47.8937 35.8309C47.8937 35.8309 47.9634 35.8309 47.9634 35.9006C47.9634 35.9703 47.8937 35.9703 47.8937 36.04C47.5452 36.3886 47.4755 36.4583 47.1966 37.0857C47.1966 37.1554 47.0572 37.2252 47.0572 37.2252C46.848 37.2252 46.7086 37.4343 46.4995 37.6434C46.0115 38.0617 45.5931 38.2709 45.1749 38.3406C44.9657 38.4103 44.7566 38.4103 44.5474 38.48C44.4777 38.48 44.408 38.4103 44.3383 38.5497C44.2686 38.6194 44.2686 38.7589 44.3383 38.8286C44.408 38.8983 44.4777 38.8983 44.5474 38.968C44.6172 39.0377 44.5474 39.0377 44.4777 39.1074C44.408 39.1772 44.2686 39.2469 44.1989 39.3166C43.92 39.5954 43.92 39.5954 44.1291 39.7349C44.2686 39.8046 44.4777 39.6652 44.5474 39.8743C44.6172 40.1532 44.7566 40.1532 45.0354 40.0137C45.1052 40.0137 45.1051 39.944 45.1749 39.944C45.2446 39.944 45.3143 39.944 45.3143 40.0137C45.3143 40.0834 45.2446 40.1532 45.2446 40.2229C45.1052 40.5017 44.6869 40.5017 44.6869 40.8503L44.6172 40.92C44.408 40.92 44.1292 41.1292 43.8503 41.2686C43.6412 41.408 43.432 41.408 43.2926 41.6869C43.2926 41.6869 43.1531 41.7566 43.0834 41.8263C42.8046 42.0354 42.5955 41.9657 42.3166 42.2446C42.1075 42.4537 41.8286 42.3143 41.5497 42.5932C41.2012 42.5932 40.9223 42.9417 40.5737 42.9417C40.504 43.0812 40.3646 43.0812 40.2949 43.1509C40.3646 43.1509 40.4343 43.2206 40.504 43.2206C40.6434 43.2206 40.7829 43.1509 40.8526 43.1509C40.992 43.0812 41.2011 43.0114 41.3406 42.9417H41.4103L41.3406 43.0114C41.1314 43.0812 40.992 43.2206 40.7829 43.36C40.5737 43.4994 40.4343 43.6389 40.2252 43.7086C40.0857 43.7783 40.016 44.1966 40.1554 44.1966C40.1554 44.1966 40.2251 44.1966 40.2949 44.1966C40.5737 43.9874 40.6434 44.0572 40.7132 44.1966C40.7829 44.336 40.9223 44.2663 41.0617 44.1269C41.1314 44.0572 41.1314 44.0572 41.2012 43.9874C41.4103 43.848 41.5497 43.7086 41.6891 43.5692C41.7589 43.4994 41.968 43.5692 42.0377 43.5692C42.2469 43.6389 42.5954 43.36 42.7349 43.4297C42.8046 43.4297 42.8743 43.4297 43.0137 43.36H43.0834C43.2926 43.2206 43.432 43.0812 43.5714 43.0812C43.7806 43.0812 43.8503 42.9417 43.9897 42.8023C44.0594 42.8023 44.1291 42.8023 44.1291 42.7326C44.1291 42.8023 44.0595 42.8023 44.0595 42.872C44.0595 42.9417 43.9897 42.9417 43.92 43.0114C43.7109 43.2206 43.432 43.2206 43.2926 43.4994C43.5017 43.4994 43.6412 43.4297 43.8503 43.4297C43.92 43.4297 43.9897 43.4297 44.0595 43.4297C44.1292 43.4297 44.2686 43.4297 44.2686 43.4994C44.2686 43.6389 44.1989 43.7783 43.9897 43.9177C43.8503 43.9874 43.6412 44.1269 43.5017 44.1966C43.3623 44.2663 43.1532 44.336 42.944 44.336C42.5954 44.336 42.2469 44.336 41.7589 44.7543H41.6194C41.5497 44.7543 41.5497 44.7543 41.5497 44.7543C41.5497 44.824 41.48 44.824 41.5497 44.8937C41.5497 44.9634 41.6194 44.9634 41.6194 45.0332C41.6194 45.1029 41.5497 45.2423 41.4103 45.2423C41.3406 45.2423 41.2012 45.2423 41.1314 45.2423C41.0617 45.2423 40.992 45.312 40.8526 45.312C40.8526 45.4515 40.6434 45.4514 40.504 45.5909C40.4343 45.7303 40.2252 45.8 40.0857 45.8697C39.7372 46.0789 39.5977 46.288 39.4583 46.4972C39.3886 46.6366 39.528 46.5669 39.5977 46.4972L39.8766 46.3577C39.8069 46.4274 39.7372 46.5669 39.6674 46.5669C39.3886 46.7063 39.1097 46.9154 38.8309 46.9852C38.6217 47.0549 38.3429 47.264 38.2034 47.3337C38.064 47.4034 37.9246 47.4732 38.064 47.5429C38.1337 47.5429 38.2732 47.5429 38.4126 47.5429C38.4823 47.5429 38.6914 47.4732 38.6914 47.4035C38.8309 47.1943 39.1794 47.1246 39.3886 46.9852C39.6674 46.8457 39.9463 46.7063 40.2949 46.5669C40.5737 46.4275 40.7132 46.6366 41.0617 46.4274C41.0617 46.4972 40.992 46.4972 40.992 46.5669C40.8526 46.7063 40.6434 46.8457 40.3646 46.9155C39.9463 47.0549 39.5977 47.264 39.5977 47.3337C39.5977 47.5429 39.8766 47.4732 40.016 47.4035C40.0857 47.4035 40.016 47.6126 40.016 47.6823C40.0857 47.8914 39.6674 47.9612 39.528 48.1006C39.1097 48.1006 38.7612 48.3794 38.3429 48.4492C38.1337 48.4492 37.7851 48.6583 37.5063 48.8674C37.2971 49.0069 36.9486 49.0766 36.7395 49.1463C36.5303 49.216 36.3909 49.2857 36.1817 49.2857C35.9726 49.2857 35.7634 49.4949 35.4846 49.4949C34.9269 49.6343 34.648 49.8435 34.5086 50.0526C34.3692 50.192 34.5086 50.3314 34.0903 50.4709V50.5406C34.2994 50.5406 34.2297 50.6103 34.16 50.7497C33.7417 51.0983 34.16 51.3074 34.2297 51.5863H34.3691C34.648 51.5166 34.5783 51.7257 34.9269 51.5863C34.9966 51.656 35.0663 51.7954 35.0663 51.8652C35.0663 51.8652 34.9966 51.9349 34.9966 52.0046C34.9269 52.2137 34.7874 52.4229 34.9269 52.4926C35.2057 52.7715 35.5543 52.9806 36.3909 53.0503C36.6697 53.0503 36.9486 53.0503 37.2274 53.12C37.5063 53.12 37.7852 53.12 37.9943 53.12C38.4126 53.12 38.9006 53.12 39.1097 53.2594C39.3886 53.4686 40.016 53.3292 40.504 53.3292L40.6434 53.2594C40.9223 52.9109 41.2709 52.9806 41.6194 52.8412C41.968 52.7017 42.1772 52.7017 42.2469 52.8412C42.2469 52.9109 42.3166 52.9806 42.3863 52.9109C42.7349 52.8412 42.5257 52.9806 42.456 53.12C42.3863 53.1897 42.3166 53.3292 42.3863 53.3292C42.5257 53.3292 42.8743 53.2595 42.8743 53.1897C43.1532 52.7715 43.6412 52.7714 44.0595 52.5623C44.4777 52.3532 44.896 52.2834 45.0354 52.4229C45.1749 52.5623 45.5234 52.4926 45.9417 52.2835C46.4297 52.0046 46.9177 51.8652 47.4057 51.5166C47.6149 51.3772 47.9634 51.3772 48.1726 51.3074C48.3817 51.2377 48.5909 51.2377 48.8 51.168C49.0092 51.0983 49.4274 50.8892 49.1486 51.2377C49.2183 51.2377 49.288 51.168 49.3577 51.168C49.5669 50.9589 49.7063 50.9589 49.9154 50.8892C50.0549 50.8195 50.1943 50.7497 50.3337 50.6103C50.5429 50.4709 50.752 50.2617 50.9612 50.0526C51.1703 49.9132 51.3097 49.9132 51.5189 49.6343C51.5886 49.5646 51.8674 49.3554 52.0766 49.216C52.216 49.0766 52.4252 48.9372 52.5646 48.7977C52.704 48.6583 52.8434 48.5886 52.9132 48.5886C53.192 48.5886 53.3314 48.3097 53.5406 48.1006C53.8194 47.8217 53.9589 47.5429 54.3074 47.264C54.7954 46.776 55.2137 46.288 55.7017 45.8697C55.9109 45.6606 56.1897 45.3817 56.3989 45.1726C56.608 44.8937 56.8171 44.6846 57.0263 44.4057C57.3749 43.9177 57.7234 43.4994 58.072 43.0114C58.4206 42.5234 58.6994 42.0354 59.048 41.5474C59.1875 41.3383 59.2572 41.1292 59.3269 40.92C59.3966 40.7109 59.4663 40.5017 59.6057 40.3623C59.8149 40.0834 59.9543 39.7349 60.0937 39.3863C60.4423 39.1772 60.3029 38.7589 60.4423 38.48C60.6515 38.0617 60.7909 37.6434 60.8606 37.2252C60.8606 37.0857 60.9303 36.8766 61.0697 36.8766C61.1394 36.8766 61.2092 36.8766 61.2789 36.9463C61.3486 37.016 61.4183 36.8766 61.488 36.6674C61.5577 36.4583 61.5577 36.3189 61.6274 36.1097C61.6274 35.9006 61.6972 35.7612 61.6972 35.552C61.7669 35.064 61.9063 34.576 62.0457 34.088C62.1154 33.8092 62.0457 33.4606 62.1154 33.2514C62.3246 32.624 62.1852 32.0663 62.3246 31.5086C62.1154 31.2994 62.5337 30.8114 62.3246 30.6023C62.3246 30.184 62.3246 29.7657 62.3943 29.4869C62.5337 29.2777 62.3246 28.7897 62.5337 28.5109ZM16.6617 7.45716C16.592 7.59658 16.5223 7.6663 16.4526 7.80573C16.3829 7.87544 16.2434 7.94515 16.2434 7.94515C15.7554 8.29373 15.4069 8.43316 15.0583 8.50287C14.7794 8.57258 14.9886 8.36344 15.0583 8.29373C15.5463 7.87544 16.0343 7.59659 16.5223 7.38744C16.6617 7.38744 16.6617 7.45716 16.6617 7.45716ZM8.50516 23.84C8.43545 23.84 8.43544 23.84 8.36573 23.84C8.36573 23.84 8.36573 23.7703 8.43544 23.7006C8.50516 23.7006 8.50516 23.7703 8.50516 23.7703C8.57488 23.7703 8.50516 23.84 8.50516 23.84ZM20.7749 11.2217C20.7749 11.2217 20.7051 11.2217 20.7749 11.2217V11.152H20.8446C20.8446 11.152 20.8446 11.152 20.7749 11.2217ZM21.2629 7.73601C21.1932 7.73601 21.1931 7.73601 21.1234 7.80573C21.1234 7.80573 21.1234 7.73601 21.1932 7.73601H21.2629ZM23.7029 6.06287H23.5634C23.6331 5.99316 23.7029 5.99316 23.7029 5.92344C23.6332 5.92344 23.5634 5.99316 23.4937 5.99316C23.4937 5.99316 23.4937 5.99316 23.5634 5.99316L23.4937 6.06287H23.3543C23.424 6.06287 23.4937 5.99316 23.4937 5.99316H23.424C23.4937 5.99316 23.5634 5.92344 23.8423 5.78401C23.7726 5.85373 23.7726 5.85372 23.7029 5.85372C23.912 5.78401 23.9817 5.78401 23.912 5.78401C23.912 5.92344 23.7726 5.99316 23.7029 6.06287ZM24.6789 6.2023H24.6091C24.6091 6.2023 24.6789 6.13258 24.7486 6.06287C24.7486 6.06287 24.8183 6.06287 24.888 6.13258C24.8183 6.13258 24.7486 6.2023 24.6789 6.2023ZM29.5589 4.04115H29.4891C29.4891 4.04115 29.5589 3.97144 29.5589 4.04115C29.6286 3.97144 29.6983 3.97144 29.6983 3.97144C29.6286 4.04115 29.6286 4.04115 29.5589 4.04115ZM31.72 5.15658C31.6503 5.15658 31.5109 5.15658 31.3714 5.08687C31.1623 5.01715 30.744 5.15658 30.6743 5.01716C31.0229 4.94744 31.3017 4.87773 31.6503 4.7383C31.72 4.7383 31.8594 4.7383 31.9291 4.7383C31.9989 4.80801 31.9292 4.94744 32.208 4.94744C32.0686 5.01716 31.9292 5.08687 31.72 5.15658ZM32.1383 3.7623C31.9989 3.7623 31.8594 3.7623 31.6503 3.83201C31.3017 3.83201 30.9532 3.83201 30.6046 3.90173C30.5349 3.90173 30.4652 3.90173 30.3954 3.90173L30.6743 3.7623C30.9532 3.83201 31.3714 3.69258 31.6503 3.69258C31.8594 3.69258 31.9292 3.69258 32.0686 3.62287C32.1383 3.62287 32.4172 3.62287 32.4172 3.62287C32.5566 3.69258 32.4172 3.69258 32.1383 3.7623ZM38.2732 4.11087C37.9943 4.04115 37.6457 3.97144 37.3669 3.97144C37.0183 3.97144 36.7395 3.90173 36.3909 3.90173C35.624 3.90173 34.8572 3.83201 34.2994 3.69258C34.2297 3.69258 34.16 3.69258 34.0206 3.69258C34.0206 3.69258 33.9509 3.69258 33.8812 3.7623H33.8114C33.7417 3.83201 33.672 3.83201 33.6023 3.83201L33.3932 3.7623L32.9749 3.83201C32.9749 3.83201 32.9052 3.83201 32.9052 3.90173C32.8355 3.97144 32.8354 3.97144 32.7657 3.97144L32.696 3.90173C32.7657 3.90173 32.8354 3.90173 32.8354 3.83201H32.9052C32.9749 3.7623 33.0446 3.7623 33.1143 3.7623L33.3234 3.83201H33.7417C33.8114 3.83201 33.8812 3.7623 33.9509 3.69258L33.8812 3.7623C33.8812 3.7623 33.9509 3.7623 34.0206 3.7623C34.4389 3.62287 34.5086 3.62287 34.5783 3.62287C34.8572 3.69258 35.2754 3.62287 35.4846 3.69258C35.8332 3.7623 36.0423 3.69258 36.2514 3.69258C36.6 3.69258 36.9486 3.7623 37.2972 3.7623C37.6457 3.7623 37.9943 3.83201 38.3429 3.90173C38.4126 3.90173 38.4823 3.97144 38.552 4.04115C38.6217 4.11087 38.6217 4.11087 38.6914 4.18059C38.6914 4.2503 38.6914 4.2503 38.7612 4.32001C38.552 4.11087 38.4126 4.11087 38.2732 4.11087ZM40.2949 47.6823C40.2949 47.6823 40.2252 47.6823 40.1554 47.6126C40.1554 47.6126 40.2251 47.5429 40.2949 47.5429H40.3646C40.3646 47.6126 40.3646 47.6823 40.2949 47.6823ZM48.8 14.2194C48.7303 14.1497 48.5909 14.0103 48.5212 13.8709C48.4514 13.7314 48.3817 13.592 48.3817 13.592C48.5212 13.6617 48.7303 13.7314 48.8697 13.8709C48.9394 13.9406 48.9394 14.1497 49.0091 14.2892C48.9394 14.2892 48.8697 14.2892 48.8 14.2194ZM49.776 15.6137C49.776 15.6137 49.7063 15.544 49.7063 15.4743C49.7063 15.4046 49.6366 15.2652 49.6366 15.1954C49.6366 14.9863 49.5669 14.9166 49.3577 14.7772C49.288 14.7772 49.2183 14.568 49.2183 14.568C49.2183 14.4983 49.288 14.4983 49.3577 14.4983L49.4274 14.568C49.4274 14.6377 49.4274 14.6377 49.4274 14.7074C49.776 14.9863 49.7063 15.2652 49.9154 15.544C49.8457 15.6137 49.776 15.6137 49.776 15.6137ZM53.9589 16.1714C53.9589 16.1714 53.8891 16.1017 53.9589 16.1714L53.68 15.6834C53.4709 15.3349 53.2617 15.056 53.4012 14.8469C53.4012 14.8469 53.3314 14.6377 53.2617 14.568C53.192 14.568 53.192 14.568 53.1223 14.6377C53.1223 14.6377 53.1223 14.7074 53.0526 14.7074C52.9829 14.6377 52.9829 14.568 52.9132 14.568C52.8434 14.4286 52.7737 14.2194 52.704 14.08C52.5646 13.9406 52.704 13.8012 52.4949 13.6617C52.3554 13.592 52.4252 13.3829 52.216 13.3132C52.1463 13.1737 52.0069 12.9646 52.0069 12.8949C52.0069 12.616 51.728 12.3372 51.4491 12.0583C51.24 11.7794 51.0309 11.5703 50.8217 11.2914C50.6823 11.0823 50.4034 10.8732 50.1943 10.5943C50.1246 10.4549 49.9154 10.3154 49.776 10.176C49.6366 10.0366 49.4274 9.89716 49.3577 9.75773C49.1486 9.40916 48.9394 9.26973 48.5909 9.20001C48.3817 8.92116 47.8937 8.78173 47.6846 8.50287C47.4754 8.22401 46.9177 8.01487 46.7783 7.73601C46.7086 7.59659 46.4994 7.6663 46.2903 7.52687C45.9417 7.24801 45.5235 6.96916 45.1052 6.76001C44.6869 6.55087 44.1989 6.34173 43.7109 6.13258C43.5017 6.06287 43.2229 5.92344 43.0137 5.85372C42.7349 5.64458 42.5954 5.50516 42.5257 5.29601L42.5954 5.2263C42.6652 5.2263 42.8046 5.2263 42.8046 5.29601C43.2229 5.57487 43.7806 5.78401 44.1989 5.99316C44.4777 6.2023 44.6869 6.2023 44.896 6.27201C45.1052 6.41144 45.3143 6.55087 45.5234 6.6903C45.8023 6.89944 46.0114 6.96916 46.2903 7.03887C46.2903 7.03887 46.36 7.1783 46.4297 7.1783C46.7086 7.38744 46.9874 7.59659 47.2663 7.73601C47.5451 7.94516 47.824 8.1543 48.0332 8.36344C48.2423 8.57259 48.5909 8.85144 49.0091 9.06059C49.4274 9.26973 49.8457 9.68801 50.1246 10.1063C50.264 10.3852 50.6126 10.664 50.8217 11.0126C51.1006 11.3612 51.5189 11.7097 51.5886 12.0583C51.728 12.4069 51.9372 12.4069 52.0766 12.616C52.1463 12.8252 52.2857 12.9646 52.4252 13.1737C52.4949 13.2434 52.5646 13.3132 52.5646 13.3132C52.6343 13.6617 53.0526 14.0103 53.1223 14.2892C53.192 14.4983 53.3314 14.6377 53.4709 14.8469C53.68 15.056 53.7497 15.4743 53.6103 15.4046C53.2617 15.2652 53.4709 15.544 53.5406 15.7532C53.6103 15.8926 53.68 15.9623 53.7497 16.1017C53.9589 16.1017 53.9589 16.1017 53.9589 16.1714ZM54.0983 16.4503C54.0983 16.4503 54.0286 16.3806 54.0983 16.4503C54.0983 16.3806 54.168 16.3806 54.168 16.4503V16.52C54.0983 16.4503 54.0983 16.4503 54.0983 16.4503ZM56.9566 13.5223V13.4526C56.9566 13.4526 57.0263 13.4526 57.0263 13.5223V13.592C57.0263 13.5223 56.9566 13.5223 56.9566 13.5223Z" fill="white"/>
<path fill-rule="evenodd" clip-rule="evenodd" d="M4.18303 46.2183C3.90417 45.4515 3.69503 44.7543 3.5556 43.9875C3.5556 43.848 3.41618 43.6389 3.27675 43.4297C3.27675 43.4297 3.20703 43.5692 3.20703 43.6389C3.13732 43.7086 3.13731 43.7783 3.06759 43.9177C2.99788 44.4057 2.99789 44.4057 2.85846 44.4755C2.78874 44.4755 2.78874 44.4755 2.71902 44.5452C2.64931 45.1029 2.37045 45.0332 2.0916 45.1726C2.02188 45.1726 1.88246 45.2423 1.81274 45.312C1.95217 45.6606 2.0916 45.5909 2.16132 45.7303C2.37046 46.1486 2.50987 46.2183 2.6493 46.3577C2.71902 46.4275 2.78874 46.4972 2.78874 46.5669C2.92817 46.9852 3.06761 47.1246 3.27675 47.3337C3.34646 47.4035 3.41616 47.5429 3.41616 47.6126C3.41616 47.6823 3.41616 47.752 3.34645 47.752C3.27673 47.752 3.13731 47.6126 3.06759 47.6126C2.99788 47.6126 2.99789 47.6823 2.92818 47.752C2.99789 47.8217 3.06759 47.8915 3.06759 47.9612C3.48588 48.4492 3.76475 48.3795 3.97389 48.24C4.11332 48.1703 4.25275 48.1703 4.32246 48.1006C4.39218 48.1006 4.39216 48.0309 4.39216 47.8915C4.39216 47.6823 4.32246 47.4035 4.32246 47.264C4.18303 46.8457 4.25274 46.5669 4.18303 46.2183Z" fill="white"/>
<path fill-rule="evenodd" clip-rule="evenodd" d="M2.09143 33.8092C2.30057 33.9486 2.37028 34.4366 2.37028 34.8549C2.37028 34.9246 2.37028 34.9943 2.37028 35.064C2.37028 35.1337 2.44001 35.2035 2.50972 35.1337C2.57943 34.8549 2.64914 34.576 2.71885 34.2972C2.78857 34.0183 2.71886 33.6 2.85829 33.3212C2.64915 32.9726 2.92801 32.6937 2.92801 32.3452C2.92801 32.136 2.85828 31.8572 2.99771 31.5783C3.06742 31.2995 3.06743 30.8812 3.13714 30.5326C3.20686 30.1143 3.27656 29.7657 3.34628 29.3475C3.34628 29.1383 3.27657 28.9292 3.13714 28.9292C2.99772 28.9989 2.99771 29.208 2.99771 29.3475C2.99771 29.4869 2.92801 29.696 2.92801 29.9052C2.8583 30.2537 2.71885 30.5326 2.64914 30.8115C2.37028 30.8812 2.30057 31.5086 2.09143 31.8572C1.74286 32.624 1.74285 32.8332 2.02171 33.6C2.02171 33.6697 2.09143 33.8092 2.09143 33.8092Z" fill="white"/>
<path fill-rule="evenodd" clip-rule="evenodd" d="M3.20681 26.9074C3.34624 26.5589 3.62509 26.28 3.76451 25.8617C3.83423 25.6526 3.97365 25.5132 4.04337 25.3737C4.53137 24.9554 4.53138 24.9554 4.60109 24.0492C4.60109 23.9794 4.67081 23.84 4.67081 23.7703C4.67081 23.7006 4.60109 23.7006 4.60109 23.7006H4.53138C4.32223 24.1886 4.25251 23.9794 4.11309 24.0492C3.90394 24.1189 3.6948 24.2583 3.41594 24.8857C3.27651 25.304 3.20681 25.8617 2.92796 26.2103C2.71881 26.4892 2.7188 26.9074 2.78852 26.9772C2.92795 27.256 3.06738 27.1863 3.20681 26.9074Z" fill="white"/>
<path fill-rule="evenodd" clip-rule="evenodd" d="M6.27432 40.0137C6.27432 39.7348 6.2046 39.3863 6.13488 39.1074C6.13488 39.0377 6.06518 38.968 5.99547 38.8983C5.99547 38.8286 5.92575 38.7589 5.99547 38.6891C6.06518 38.4103 5.92574 38.2011 5.85603 38.2011C5.7166 38.1314 5.57717 37.7131 5.43774 38.0617C5.2286 38.48 5.01945 38.7589 4.7406 38.8286C4.7406 38.8286 4.6709 38.8983 4.6709 38.968C4.6709 39.0377 4.67088 39.1074 4.7406 39.1771C4.88002 39.456 4.94974 39.456 5.08917 39.456C5.15888 39.456 5.22861 39.3166 5.29832 39.5954C5.43775 40.0137 5.50747 40.0137 5.71661 40.0137C5.85604 40.0137 5.92576 39.8743 6.06518 40.1531C5.99547 39.7348 6.27432 40.2926 6.27432 40.0137Z" fill="white"/>
<path fill-rule="evenodd" clip-rule="evenodd" d="M7.80806 47.1246C7.80806 47.1943 7.80806 47.1246 7.80806 47.1246C7.73835 47.1246 7.73834 47.0549 7.73834 47.0549L7.80806 47.1246C7.66863 46.8457 7.59892 46.6366 7.45949 46.4972C7.25035 46.0789 7.1109 46.2183 6.90176 46.0789C6.69262 45.8697 6.83206 46.288 6.69263 46.288C6.69263 46.3577 6.69263 46.4972 6.76235 46.5669C6.97149 46.9155 7.11091 47.264 7.38977 47.6126C7.45948 47.752 7.52919 47.8217 7.5989 48.0309C7.66862 48.3795 7.87777 48.5886 8.01719 48.5189C8.15662 48.4492 8.36577 48.3795 8.5052 48.3098V48.1703C8.29606 47.752 8.15663 47.1943 7.80806 47.1246Z" fill="white"/>
<path fill-rule="evenodd" clip-rule="evenodd" d="M2.4401 40.0137C2.50981 40.0137 2.50981 40.0137 2.50981 40.0137C2.57953 39.6652 2.71895 39.456 2.78867 39.1075C2.85838 38.7589 2.85838 38.48 2.71895 38.1315C2.85838 37.8526 2.64923 37.7829 2.64923 37.504C2.64923 37.1555 2.44009 37.016 2.37038 37.3646C2.37038 37.6435 2.30068 37.6435 2.23096 37.7132C2.16125 37.7132 2.16124 37.8526 2.16124 37.992C2.16124 38.7589 2.02181 39.1772 1.67323 39.1075C1.60352 39.1075 1.60352 39.1772 1.60352 39.2469C1.67323 39.3166 1.67324 39.456 1.74295 39.456C1.88238 39.5257 2.16124 39.456 2.4401 40.0137Z" fill="white"/>
<path fill-rule="evenodd" clip-rule="evenodd" d="M6.27432 21.6789C6.34403 21.888 6.41374 22.0274 6.55317 22.1669C6.55317 22.1669 6.62289 22.1669 6.62289 22.0971C6.69261 21.9577 6.83203 21.8183 6.90174 21.6789C6.97146 21.5394 6.97146 21.3303 6.97146 21.1909C6.97146 20.9817 6.90174 20.7726 6.83203 20.7029C6.76231 20.6331 6.83203 20.4937 6.90174 20.3543C6.97146 20.2846 6.97146 20.1451 6.97146 20.0754C6.90175 19.8663 6.83204 19.6571 6.76233 19.448C6.69261 19.448 6.62289 19.5177 6.55317 19.5177C6.55317 19.5874 6.48345 19.7269 6.48345 19.7966C6.48345 20.2149 6.41374 20.4937 6.13488 21.0514C6.06517 21.1211 6.06519 21.3303 6.06519 21.3303C6.27433 21.3303 6.20461 21.5394 6.27432 21.6789Z" fill="white"/>
<path fill-rule="evenodd" clip-rule="evenodd" d="M7.04132 44.8937C7.11103 44.824 7.25045 44.8937 7.25045 44.6149C7.18074 44.336 7.18075 43.9874 7.11104 43.848C6.9019 43.1509 6.83217 43.0812 6.62303 43.0812C6.41389 43.0812 6.27446 43.36 5.99561 43.0114C5.99561 43.0812 5.99561 43.1509 5.99561 43.2206C5.99561 43.2903 6.06532 43.36 6.06532 43.4297C6.20475 43.7086 6.27447 43.4297 6.4139 43.848C6.48361 44.0572 6.69274 44.2663 6.83216 44.5452C6.83216 44.6846 6.90189 44.9634 7.04132 44.8937Z" fill="white"/>
<path fill-rule="evenodd" clip-rule="evenodd" d="M47.1268 30.7417C47.1268 30.7417 47.0571 30.7417 46.9874 30.8114C46.848 31.0206 46.7085 31.16 46.6388 31.3692C46.5691 31.5086 46.4994 31.7177 46.4297 31.8572V31.9966C46.4994 31.9966 46.5691 31.9966 46.5691 32.0663C46.7085 32.2057 46.7782 32.2057 46.9177 31.9269C46.9874 31.7874 46.9874 31.7177 47.0571 31.5783C47.1268 31.4389 47.1268 31.3692 47.1268 31.2297C47.1268 31.16 47.1268 31.0206 47.1268 30.9509C47.1965 30.8114 47.1268 30.7417 47.1268 30.7417Z" fill="white"/>
<path fill-rule="evenodd" clip-rule="evenodd" d="M34.8572 9.06059C34.9269 9.06059 34.8572 8.99087 34.8572 8.92116C34.7875 8.85145 34.5783 8.85145 34.5086 8.85145C34.2995 8.85145 34.0206 8.78173 33.8115 8.78173C33.6023 8.78173 33.3932 8.71202 33.3235 8.71202C33.0446 8.71202 32.9052 8.71202 32.8355 8.78173C32.7658 8.78173 32.696 8.85145 32.696 8.85145C32.696 8.85145 32.696 8.92116 32.7658 8.92116C32.9052 8.92116 33.1143 8.99087 33.2538 8.99087C33.6721 9.06059 34.0903 9.13031 34.5783 9.13031C34.7178 9.13031 34.7875 9.06059 34.8572 9.06059Z" fill="white"/>
<path fill-rule="evenodd" clip-rule="evenodd" d="M38.3427 9.96686C38.3427 9.96686 38.4821 9.96686 38.5519 9.96686C38.6216 9.89715 38.6216 9.82744 38.5519 9.75772C38.3427 9.61829 38.2033 9.47886 37.8547 9.40915L37.6456 9.33943C37.5759 9.47886 37.6456 9.54857 37.7153 9.688C37.8547 9.82743 37.9941 9.89715 38.3427 9.96686Z" fill="white"/>
<path fill-rule="evenodd" clip-rule="evenodd" d="M7.04127 19.3783C7.11098 19.3783 7.18069 19.448 7.2504 19.448C7.2504 19.448 7.32012 19.448 7.38984 19.3783C7.38984 19.3086 7.45955 19.2389 7.38984 19.2389C7.25041 19.0297 7.38983 18.472 6.97155 18.8206C6.90183 18.8903 6.90184 18.6114 6.69269 18.8903C6.62298 18.96 6.6927 19.1691 6.76241 19.2389C6.83213 19.3086 6.97155 19.3086 7.04127 19.3783Z" fill="white"/>
<path fill-rule="evenodd" clip-rule="evenodd" d="M24.7486 10.1063C24.4697 10.3154 24.1908 10.4549 23.9817 10.664C23.9817 10.664 23.9817 10.7337 24.0514 10.7337C24.3303 10.8034 24.5394 10.3852 24.8183 10.4549C24.8183 10.4549 25.0274 10.3154 25.0274 10.2457C25.0971 10.176 25.0971 10.1063 25.0274 10.1063C25.0274 10.0366 24.888 10.1063 24.7486 10.1063Z" fill="white"/>
<path fill-rule="evenodd" clip-rule="evenodd" d="M8.99331 17.984C9.06303 17.8446 9.13275 17.7051 9.13275 17.6354C9.13275 17.4263 9.06303 17.2868 9.06303 17.0777C9.06303 17.008 9.06303 16.9383 9.06303 16.8686C8.99332 16.9383 8.9236 16.9383 8.9236 16.9383C8.85388 17.2171 8.92361 17.4263 8.78418 17.7748C8.78418 17.8446 8.78418 17.9143 8.78418 17.984C8.85389 18.0537 8.9236 17.984 8.99331 17.984Z" fill="white"/>
<path fill-rule="evenodd" clip-rule="evenodd" d="M21.6811 11.0823C21.7508 11.0823 21.9599 11.0126 22.0297 11.0126C22.0297 10.9429 22.0994 10.8732 22.0994 10.8034C22.0297 10.7337 22.0994 10.5943 21.8205 10.7337L21.4719 10.9429C21.5416 11.0126 21.6114 11.0823 21.6811 11.0823Z" fill="white"/>
<path fill-rule="evenodd" clip-rule="evenodd" d="M8.15656 30.8812C8.01713 30.8812 8.01712 30.8812 8.01712 30.8812C7.94741 30.8812 7.9474 30.9509 7.87769 30.9509C7.87769 31.0206 7.87769 31.0903 7.9474 31.16C8.01712 31.2297 8.15654 31.2297 8.22626 31.2994C8.29597 31.2994 8.29598 31.5783 8.36569 31.3692C8.36569 31.2995 8.36569 31.0903 8.36569 31.0903C8.22627 30.9509 8.15656 30.8812 8.15656 30.8812Z" fill="white"/>
<path fill-rule="evenodd" clip-rule="evenodd" d="M19.5199 8.43314C19.5896 8.36343 19.5199 8.29371 19.5199 8.22399C19.4501 8.22399 19.4501 8.15428 19.3804 8.15428C19.3107 8.224 19.241 8.29371 19.1713 8.36343C19.1016 8.43314 18.9622 8.57257 18.9622 8.57257C19.0319 8.64228 19.1713 8.57257 19.241 8.57257C19.3107 8.64228 19.5199 8.50285 19.5199 8.43314Z" fill="white"/>
<path fill-rule="evenodd" clip-rule="evenodd" d="M23.0056 11.2914C23.0753 11.3611 23.2845 11.2914 23.4239 11.2914C23.5633 11.152 23.633 11.0823 23.7027 10.9429C23.4936 10.9429 23.3542 11.0126 23.2147 11.0126C23.0753 11.152 22.9359 11.2914 23.0056 11.2914Z" fill="white"/>
<path fill-rule="evenodd" clip-rule="evenodd" d="M43.5018 40.8503C43.5018 40.8503 43.5715 40.8503 43.6413 40.8503L43.711 40.6412C43.711 40.5714 43.7807 40.5714 43.711 40.5017C43.6413 40.5017 43.5715 40.432 43.5018 40.432L43.4321 40.5017C43.4321 40.5714 43.3624 40.6411 43.4321 40.7109C43.3624 40.7806 43.4321 40.7806 43.5018 40.8503Z" fill="white"/>
<path fill-rule="evenodd" clip-rule="evenodd" d="M12.2698 15.1257C12.3395 15.1257 12.3395 15.1257 12.4092 15.1257C12.4092 15.056 12.4789 14.9863 12.4789 14.9166C12.4789 14.8469 12.5487 14.7772 12.5487 14.7075C12.6184 14.4286 12.4789 14.6377 12.4092 14.7075C12.1304 15.056 12.1304 15.056 12.2698 15.1257Z" fill="white"/>
<path fill-rule="evenodd" clip-rule="evenodd" d="M2.92812 41.4777C2.8584 41.4777 2.8584 41.6869 2.8584 41.7566C2.92811 41.8263 2.9281 41.896 2.99781 41.9657C3.06753 41.896 3.13725 41.8263 3.13725 41.7566C3.06754 41.6171 2.99783 41.4777 2.92812 41.4777Z" fill="white"/>
<path fill-rule="evenodd" clip-rule="evenodd" d="M4.11304 49.704C4.11304 49.704 4.11304 49.7738 4.11304 49.8435C4.25247 49.9829 4.32218 50.0526 4.39189 50.1223L4.32219 49.7737C4.25248 49.704 4.18275 49.704 4.11304 49.704Z" fill="white"/>
<path fill-rule="evenodd" clip-rule="evenodd" d="M0.139437 39.944C0.139437 39.8743 0.0697185 39.8046 0.0697185 39.8743C4.25398e-06 39.8743 0 39.944 0 40.0137C0.0697143 40.1532 0.0697185 40.2229 0.0697185 40.2926L0.139437 39.944Z" fill="white"/>
<path fill-rule="evenodd" clip-rule="evenodd" d="M24.2605 57.7909C24.2605 57.8606 24.3302 57.8606 24.3302 57.9303C24.3999 57.9303 24.4697 57.9303 24.4697 57.9303C24.4697 57.9303 24.4697 57.8606 24.4697 57.7909C24.3999 57.7909 24.3302 57.7909 24.2605 57.7909Z" fill="white"/>
<path fill-rule="evenodd" clip-rule="evenodd" d="M24.0515 57.8606C24.0515 57.8606 24.0515 57.9303 24.0515 58C24.1212 58 24.191 57.9303 24.191 57.9303C24.191 57.9303 24.1909 57.8606 24.2606 57.8606C24.1909 57.8606 24.1212 57.7909 24.0515 57.8606Z" fill="white"/>
<path fill-rule="evenodd" clip-rule="evenodd" d="M10.736 16.9383C10.736 16.9383 10.6663 16.9383 10.5966 16.9383C10.5966 17.008 10.5269 17.0777 10.5269 17.0777C10.5966 17.0777 10.5966 17.0777 10.6663 17.0777C10.6663 17.008 10.736 16.9383 10.736 16.9383Z" fill="white"/>
<path fill-rule="evenodd" clip-rule="evenodd" d="M9.89935 16.9383C10.1085 16.6594 9.89935 16.7291 9.89935 16.6594C9.69021 16.9383 9.89935 16.8686 9.89935 16.9383Z" fill="white"/>
<path fill-rule="evenodd" clip-rule="evenodd" d="M7.66873 19.448C7.66873 19.3783 7.66874 19.3086 7.73845 19.2389C7.66874 19.3086 7.66873 19.3086 7.5293 19.448V19.5177C7.59901 19.5177 7.66873 19.448 7.66873 19.448Z" fill="white"/>
<path fill-rule="evenodd" clip-rule="evenodd" d="M12.8274 53.5383C12.8971 53.4686 12.688 53.3292 12.6183 53.1898C12.5486 53.2595 12.7577 53.3989 12.8274 53.5383Z" fill="white"/>
<path fill-rule="evenodd" clip-rule="evenodd" d="M12.3394 55.3509C12.4091 55.4206 12.4788 55.4206 12.4788 55.4206C12.4788 55.4206 12.4788 55.3509 12.4788 55.2811C12.4091 55.2811 12.3394 55.2114 12.3394 55.2114C12.3394 55.2811 12.3394 55.3509 12.3394 55.3509Z" fill="white"/>
<path fill-rule="evenodd" clip-rule="evenodd" d="M25.4458 9.89714C25.3761 9.96685 25.3064 9.96685 25.3064 9.96685L25.3761 10.0366L25.4458 9.96685C25.5155 9.96685 25.4458 9.96685 25.4458 9.89714Z" fill="white"/>
<path fill-rule="evenodd" clip-rule="evenodd" d="M27.2583 9.61831C27.2583 9.68802 27.2583 9.68802 27.328 9.68802C27.328 9.68802 27.4674 9.68802 27.4674 9.61831C27.4674 9.54859 27.4674 9.5486 27.4674 9.47888C27.328 9.5486 27.2583 9.61831 27.2583 9.61831Z" fill="white"/>
<path fill-rule="evenodd" clip-rule="evenodd" d="M30.1165 9.20002C30.1165 9.20002 30.1862 9.20002 30.1862 9.26974C30.2559 9.26974 30.3256 9.20002 30.3256 9.20002C30.2559 9.13031 30.2559 9.13031 30.1862 9.13031C30.1862 9.13031 30.1862 9.20002 30.1165 9.20002Z" fill="white"/>
<path fill-rule="evenodd" clip-rule="evenodd" d="M24.8183 57.7909C24.7485 57.7909 24.7485 57.8606 24.7485 57.8606C24.7485 57.8606 24.8183 57.9303 24.888 57.9303L24.9577 57.8606C24.888 57.8606 24.8183 57.8606 24.8183 57.7909Z" fill="white"/>
<path fill-rule="evenodd" clip-rule="evenodd" d="M0.139543 40.7806C0.139543 40.7806 0.0698242 40.8503 0.0698242 40.92C0.0698242 40.9897 0.139543 40.9897 0.139543 41.0594C0.139543 40.9897 0.20924 40.9897 0.20924 40.92C0.20924 40.8503 0.139543 40.7806 0.139543 40.7806Z" fill="white"/>
<path fill-rule="evenodd" clip-rule="evenodd" d="M17.2893 55.8389L17.1499 55.7692C17.2196 55.8389 17.2196 55.8389 17.2893 55.8389C17.2893 55.9086 17.2893 55.8389 17.2893 55.8389Z" fill="white"/>
<path fill-rule="evenodd" clip-rule="evenodd" d="M9.89939 17.0777L9.96909 16.9383C9.89938 17.008 9.82968 17.0777 9.89939 17.0777C9.82968 17.0777 9.89939 17.0777 9.89939 17.0777Z" fill="white"/>
<path fill-rule="evenodd" clip-rule="evenodd" d="M6.06532 23.352C6.06532 23.352 6.06532 23.4217 6.06532 23.352L5.99561 23.5612L6.06532 23.4914C6.06532 23.4217 6.06532 23.4217 6.06532 23.352Z" fill="white"/>
<path fill-rule="evenodd" clip-rule="evenodd" d="M44.7566 13.8709V13.9406H44.8263C44.8263 13.9406 44.8263 13.9406 44.7566 13.8709C44.8263 13.8709 44.7566 13.8709 44.7566 13.8709Z" fill="white"/>
<path fill-rule="evenodd" clip-rule="evenodd" d="M12.6183 53.0503L12.5486 52.9806V53.0503L12.6183 53.12C12.6183 53.12 12.6183 53.12 12.6183 53.0503Z" fill="white"/>
<path fill-rule="evenodd" clip-rule="evenodd" d="M12.8274 53.5383C12.8274 53.608 12.8971 53.608 12.8971 53.6778H12.9668V53.608L12.8274 53.5383Z" fill="white"/>
<path fill-rule="evenodd" clip-rule="evenodd" d="M6.69263 46.0789C6.69263 46.0789 6.69263 46.1486 6.69263 46.0789L6.76235 46.2183V46.1486C6.76235 46.1486 6.69263 46.1486 6.69263 46.0789Z" fill="white"/>
<path fill-rule="evenodd" clip-rule="evenodd" d="M37.1577 55.6298C37.088 55.6298 37.088 55.6995 37.0183 55.6995H37.088C37.1577 55.6995 37.1577 55.6298 37.2274 55.6298H37.1577Z" fill="white"/>
</svg>
