<svg width="37" height="37" viewBox="0 0 37 37" fill="none" xmlns="http://www.w3.org/2000/svg">
<path d="M27.7486 0.00769847L22.9506 0C17.5602 0 14.0767 3.57401 14.0767 9.10575V13.3041H9.25249C8.83562 13.3041 8.49805 13.6421 8.49805 14.0589V20.1419C8.49805 20.5588 8.83601 20.8963 9.25249 20.8963H14.0767V36.2456C14.0767 36.6624 14.4143 37 14.8311 37H21.1253C21.5422 37 21.8798 36.662 21.8798 36.2456V20.8963H27.5204C27.9373 20.8963 28.2748 20.5588 28.2748 20.1419L28.2771 14.0589C28.2771 13.8588 28.1975 13.6671 28.0562 13.5254C27.9149 13.3838 27.7225 13.3041 27.5223 13.3041H21.8798V9.74511C21.8798 8.03451 22.2874 7.16612 24.5157 7.16612L27.7479 7.16497C28.1644 7.16497 28.5019 6.827 28.5019 6.41052V0.762148C28.5019 0.346046 28.1647 0.00846832 27.7486 0.00769847Z" fill="#FAFAFA"/>
</svg>
