<svg width="37" height="37" viewBox="0 0 37 37" fill="none" xmlns="http://www.w3.org/2000/svg">
<path d="M26.789 0H10.2104C4.58038 0 0 4.5806 0 10.2106V26.7892C0 32.4194 4.58038 36.9998 10.2104 36.9998H26.789C32.4194 36.9998 36.9998 32.4192 36.9998 26.7892V10.2106C37 4.5806 32.4194 0 26.789 0ZM33.7172 26.7892C33.7172 30.6093 30.6093 33.717 26.7892 33.717H10.2104C6.39052 33.7172 3.2828 30.6093 3.2828 26.7892V10.2106C3.2828 6.39074 6.39052 3.2828 10.2104 3.2828H26.789C30.609 3.2828 33.717 6.39074 33.717 10.2106V26.7892H33.7172Z" fill="#FAFAFA"/>
<path d="M18.5 8.96631C13.2429 8.96631 8.96606 13.2431 8.96606 18.5002C8.96606 23.7571 13.2429 28.0337 18.5 28.0337C23.757 28.0337 28.0339 23.7571 28.0339 18.5002C28.0339 13.2431 23.757 8.96631 18.5 8.96631ZM18.5 24.7507C15.0533 24.7507 12.2489 21.9467 12.2489 18.5C12.2489 15.0531 15.053 12.2489 18.5 12.2489C21.9469 12.2489 24.7511 15.0531 24.7511 18.5C24.7511 21.9467 21.9467 24.7507 18.5 24.7507Z" fill="#FAFAFA"/>
<path d="M28.4337 6.18311C27.8013 6.18311 27.1799 6.43916 26.7333 6.88781C26.2844 7.33427 26.0264 7.95582 26.0264 8.59049C26.0264 9.2232 26.2846 9.84452 26.7333 10.2932C27.1797 10.7396 27.8013 10.9979 28.4337 10.9979C29.0684 10.9979 29.6878 10.7396 30.1364 10.2932C30.5851 9.84452 30.8411 9.22298 30.8411 8.59049C30.8411 7.95582 30.5851 7.33427 30.1364 6.88781C29.69 6.43916 29.0684 6.18311 28.4337 6.18311Z" fill="#FAFAFA"/>
</svg>
