<svg width="37" height="37" viewBox="0 0 37 37" fill="none" xmlns="http://www.w3.org/2000/svg">
<g clip-path="url(#clip0)">
<path d="M36.8039 27.0096C36.7591 26.9131 36.7173 26.833 36.6785 26.7688C36.0365 25.6126 34.8098 24.1935 32.999 22.5111L32.9607 22.4725L32.9416 22.4536L32.9222 22.4343H32.9028C32.0809 21.6508 31.5605 21.1241 31.3426 20.8544C30.9438 20.3406 30.8545 19.8206 31.0724 19.2937C31.2264 18.8956 31.8048 18.0549 32.8062 16.7704C33.333 16.0896 33.7502 15.544 34.0583 15.133C36.2803 12.1789 37.2436 10.2913 36.948 9.46924L36.8333 9.27714C36.7562 9.16149 36.5571 9.05569 36.2364 8.95921C35.915 8.86292 35.5041 8.847 35.0031 8.91116L29.4551 8.94949C29.3652 8.91764 29.2369 8.92061 29.0697 8.95921C28.9027 8.9978 28.8192 9.01717 28.8192 9.01717L28.7226 9.06541L28.646 9.12337C28.5817 9.1617 28.5111 9.2291 28.434 9.32546C28.3572 9.42147 28.2931 9.53415 28.2418 9.66256C27.6378 11.2166 26.951 12.6614 26.1802 13.997C25.705 14.7934 25.2686 15.4836 24.87 16.0679C24.472 16.6521 24.1381 17.0826 23.8686 17.3585C23.5987 17.6346 23.3551 17.8559 23.1364 18.023C22.9179 18.1902 22.7512 18.2609 22.6358 18.235C22.52 18.2092 22.4111 18.1835 22.3079 18.1579C22.1282 18.0422 21.9837 17.885 21.8747 17.6859C21.7653 17.4869 21.6916 17.2363 21.6531 16.9345C21.6147 16.6325 21.5921 16.3727 21.5856 16.1543C21.5796 15.9362 21.5824 15.6276 21.5954 15.2295C21.6087 14.8312 21.6147 14.5617 21.6147 14.4204C21.6147 13.9323 21.6243 13.4026 21.6434 12.8311C21.6628 12.2596 21.6785 11.8067 21.6917 11.4732C21.7048 11.1392 21.7108 10.7859 21.7108 10.4135C21.7108 10.041 21.6882 9.74892 21.6434 9.53692C21.5991 9.32518 21.5311 9.11966 21.4416 8.92041C21.3515 8.72136 21.2197 8.56738 21.0467 8.45807C20.8733 8.3489 20.6578 8.26226 20.4014 8.19789C19.7206 8.04385 18.8538 7.96052 17.8004 7.94757C15.4118 7.92193 13.8769 8.07617 13.1963 8.4101C12.9266 8.55119 12.6825 8.74396 12.4643 8.98781C12.2331 9.27046 12.2008 9.42471 12.3677 9.45008C13.1384 9.56553 13.684 9.8417 14.0051 10.2783L14.1209 10.5097C14.2109 10.6766 14.3007 10.9722 14.3907 11.3959C14.4805 11.8196 14.5385 12.2884 14.564 12.8019C14.6281 13.7395 14.6281 14.5422 14.564 15.2099C14.4997 15.8779 14.4389 16.398 14.381 16.7704C14.323 17.1429 14.2364 17.4447 14.1209 17.6758C14.0051 17.907 13.9282 18.0482 13.8896 18.0995C13.851 18.1508 13.8189 18.1831 13.7934 18.1958C13.6265 18.2598 13.4529 18.2924 13.2732 18.2924C13.0932 18.2924 12.875 18.2024 12.6182 18.0225C12.3615 17.8426 12.095 17.5955 11.8188 17.2808C11.5427 16.966 11.2312 16.5262 10.8843 15.9611C10.5377 15.3961 10.1781 14.7283 9.80562 13.9578L9.49746 13.3989C9.30482 13.0394 9.04167 12.516 8.70774 11.829C8.37361 11.1418 8.07828 10.477 7.82154 9.83488C7.71891 9.56519 7.56473 9.35987 7.35927 9.21858L7.26285 9.16062C7.19875 9.10934 7.09585 9.05488 6.9547 8.99686C6.81334 8.9389 6.66584 8.89733 6.51159 8.87176L1.23316 8.91008C0.693769 8.91008 0.32779 9.03228 0.135083 9.27633L0.0579603 9.39178C0.0194326 9.45608 0 9.55878 0 9.70014C0 9.84143 0.0385277 10.0148 0.115651 10.2202C0.886206 12.0312 1.72417 13.7777 2.62954 15.4601C3.5349 17.1425 4.32165 18.4978 4.98931 19.5246C5.6571 20.5521 6.33778 21.522 7.03135 22.4335C7.72492 23.3454 8.18401 23.9298 8.40863 24.1866C8.63352 24.4438 8.81017 24.6361 8.93857 24.7645L9.42027 25.2268C9.72849 25.535 10.1811 25.9043 10.7783 26.3344C11.3757 26.7648 12.037 27.1886 12.7626 27.6063C13.4884 28.0234 14.3327 28.3637 15.296 28.6269C16.2592 28.8904 17.1967 28.9961 18.1086 28.9451H20.324C20.7733 28.9063 21.1137 28.765 21.3451 28.5212L21.4218 28.4246C21.4733 28.348 21.5216 28.2289 21.5661 28.0686C21.6112 27.9081 21.6336 27.7313 21.6336 27.5389C21.6204 26.9868 21.6624 26.4891 21.7585 26.0461C21.8545 25.6032 21.964 25.2693 22.0864 25.0444C22.2087 24.8197 22.3468 24.6301 22.5004 24.4764C22.6544 24.3223 22.7641 24.229 22.8285 24.1969C22.8924 24.1646 22.9435 24.1426 22.982 24.1295C23.2903 24.0268 23.653 24.1263 24.0708 24.4283C24.4883 24.7301 24.8798 25.1028 25.2461 25.5457C25.6121 25.989 26.0519 26.4864 26.5655 27.0385C27.0795 27.5908 27.5289 28.0014 27.914 28.2715L28.2991 28.5027C28.5564 28.6569 28.8903 28.7982 29.3013 28.9266C29.7116 29.055 30.0711 29.0871 30.3798 29.0229L35.3113 28.946C35.7991 28.946 36.1786 28.8652 36.4479 28.705C36.7176 28.5445 36.8779 28.3676 36.9296 28.1752C36.9811 27.9827 36.9839 27.7642 36.9393 27.5199C36.8937 27.2763 36.8487 27.1059 36.8039 27.0096Z" fill="#FAFAFA"/>
</g>
<defs>
<clipPath id="clip0">
<rect width="37" height="37" fill="white"/>
</clipPath>
</defs>
</svg>
