<svg width="16" height="22" viewBox="0 0 16 22" fill="none" xmlns="http://www.w3.org/2000/svg">
<path d="M13.791 13.254C13.8945 13.1486 14.018 13.0648 14.1542 13.0076C14.2905 12.9505 14.4367 12.921 14.5845 12.921C14.7322 12.921 14.8785 12.9505 15.0147 13.0076C15.151 13.0648 15.2745 13.1486 15.378 13.254C15.5842 13.4667 15.6995 13.7513 15.6995 14.0475C15.6995 14.3437 15.5842 14.6283 15.378 14.841L8.72798 21.492C8.6217 21.598 8.49552 21.682 8.35669 21.7392C8.21786 21.7963 8.06911 21.8255 7.91898 21.825C7.60198 21.825 7.31598 21.698 7.10898 21.492L0.458977 14.841C0.0149766 14.397 0.0149766 13.698 0.458977 13.254C0.902977 12.81 1.60198 12.81 2.04598 13.254L6.79198 18.016V1.11098C6.79263 0.964005 6.82231 0.818602 6.87931 0.683125C6.93631 0.547648 7.01952 0.424766 7.12414 0.321534C7.22877 0.218302 7.35276 0.136755 7.48899 0.0815737C7.62521 0.0263927 7.771 -0.00133461 7.91798 -1.61291e-05C8.53698 -1.61291e-05 9.02898 0.491984 9.02898 1.11098V18.015L13.791 13.254Z" fill="#414042"/>
</svg>
